STARTFONT 2.1
FONT -Adobe-Helvetica-Medium-R-Normal--20-140-100-100-P-100-ISO10646-1
SIZE 14 100 100
FONTBOUNDINGBOX 22 29 -2 -7
COMMENT ISO10646-1 extension by Markus Kuhn <mkuhn@acm.org>, 2001-03-20
COMMENT 
COMMENT +
COMMENT  Copyright 1984-1989, 1994 Adobe Systems Incorporated.
COMMENT  Copyright 1988, 1994 Digital Equipment Corporation.
COMMENT
COMMENT  Adobe is a trademark of Adobe Systems Incorporated which may be
COMMENT  registered in certain jurisdictions.
COMMENT  Permission to use these trademarks is hereby granted only in
COMMENT  association with the images described in this file.
COMMENT
COMMENT  Permission to use, copy, modify, distribute and sell this software
COMMENT  and its documentation for any purpose and without fee is hereby
COMMENT  granted, provided that the above copyright notices appear in all
COMMENT  copies and that both those copyright notices and this permission
COMMENT  notice appear in supporting documentation, and that the names of
COMMENT  Adobe Systems and Digital Equipment Corporation not be used in
COMMENT  advertising or publicity pertaining to distribution of the software
COMMENT  without specific, written prior permission.  Adobe Systems and
COMMENT  Digital Equipment Corporation make no representations about the
COMMENT  suitability of this software for any purpose.  It is provided "as
COMMENT  is" without express or implied warranty.
COMMENT -
STARTPROPERTIES 26
FOUNDRY "Adobe"
FAMILY_NAME "Helvetica"
WEIGHT_NAME "Medium"
SLANT "R"
SETWIDTH_NAME "Normal"
ADD_STYLE_NAME ""
PIXEL_SIZE 20
POINT_SIZE 140
RESOLUTION_X 100
RESOLUTION_Y 100
SPACING "P"
AVERAGE_WIDTH 100
CHARSET_REGISTRY "ISO10646"
CHARSET_ENCODING "1"
CAP_HEIGHT 14
X_HEIGHT 10
FONT_ASCENT 16
FONT_DESCENT 4
FACE_NAME "Helvetica"
COPYRIGHT "Copyright (c) 1984, 1987 Adobe Systems Incorporated. All Rights Reserved. Copyright (c) 1988, 1991 Digital Equipment Corporation. All Rights Reserved."

STARTCHAR char0
ENCODING 0
SWIDTH 722 0
DWIDTH 14 0
BBX 11 13 1 0
BITMAP
AAA0
0000
8020
0000
8020
0000
8020
0000
8020
0000
8020
0000
AAA0
ENDCHAR
STARTCHAR space
ENCODING 32
SWIDTH 278 0
DWIDTH 5 0
BBX 1 1 0 0
BITMAP
00
ENDCHAR
STARTCHAR exclam
ENCODING 33
SWIDTH 278 0
DWIDTH 6 0
BBX 2 14 2 0
BITMAP
C0
C0
C0
C0
C0
C0
C0
C0
80
80
00
00
C0
C0
ENDCHAR
STARTCHAR quotedbl
ENCODING 34
SWIDTH 355 0
DWIDTH 5 0
BBX 5 5 0 9
BITMAP
D8
D8
D8
D8
D8
ENDCHAR
STARTCHAR numbersign
ENCODING 35
SWIDTH 556 0
DWIDTH 10 0
BBX 10 13 0 0
BITMAP
0900
0900
0900
7FC0
7FC0
1200
1200
1200
FF80
FF80
2400
2400
2400
ENDCHAR
STARTCHAR dollar
ENCODING 36
SWIDTH 556 0
DWIDTH 10 0
BBX 9 16 1 -2
BITMAP
0800
3E00
7F00
CB00
C800
E800
7800
3E00
0F00
0980
C980
EB80
7F00
3E00
0800
0800
ENDCHAR
STARTCHAR percent
ENCODING 37
SWIDTH 889 0
DWIDTH 16 0
BBX 14 13 1 0
BITMAP
7860
CCC0
CCC0
CD80
CD80
7B00
0300
0678
06CC
0CCC
0CCC
18CC
1878
ENDCHAR
STARTCHAR ampersand
ENCODING 38
SWIDTH 667 0
DWIDTH 13 0
BBX 12 13 1 0
BITMAP
3C00
7E00
6600
6600
3C00
7C00
EEC0
C6C0
C3C0
C380
E7C0
7EE0
3C70
ENDCHAR
STARTCHAR quotesingle
ENCODING 39
SWIDTH 191 0
DWIDTH 3 0
BBX 1 5 1 9
BITMAP
80
80
80
80
80
ENDCHAR
STARTCHAR parenleft
ENCODING 40
SWIDTH 333 0
DWIDTH 6 0
BBX 4 18 0 -4
BITMAP
10
30
60
60
C0
C0
C0
C0
C0
C0
C0
C0
C0
C0
60
60
30
10
ENDCHAR
STARTCHAR parenright
ENCODING 41
SWIDTH 333 0
DWIDTH 6 0
BBX 4 18 1 -4
BITMAP
80
C0
60
60
30
30
30
30
30
30
30
30
30
30
60
60
C0
80
ENDCHAR
STARTCHAR asterisk
ENCODING 42
SWIDTH 389 0
DWIDTH 7 0
BBX 5 7 1 7
BITMAP
20
A8
F8
20
F8
A8
20
ENDCHAR
STARTCHAR plus
ENCODING 43
SWIDTH 584 0
DWIDTH 10 0
BBX 8 10 1 0
BITMAP
18
18
18
18
FF
FF
18
18
18
18
ENDCHAR
STARTCHAR comma
ENCODING 44
SWIDTH 278 0
DWIDTH 5 0
BBX 2 5 1 -3
BITMAP
C0
C0
40
40
80
ENDCHAR
STARTCHAR hyphen
ENCODING 45
SWIDTH 333 0
DWIDTH 6 0
BBX 5 1 0 5
BITMAP
F8
ENDCHAR
STARTCHAR period
ENCODING 46
SWIDTH 278 0
DWIDTH 5 0
BBX 2 2 1 0
BITMAP
C0
C0
ENDCHAR
STARTCHAR slash
ENCODING 47
SWIDTH 278 0
DWIDTH 5 0
BBX 5 14 0 0
BITMAP
18
18
18
18
30
30
30
60
60
60
C0
C0
C0
C0
ENDCHAR
STARTCHAR zero
ENCODING 48
SWIDTH 556 0
DWIDTH 10 0
BBX 8 13 1 0
BITMAP
3C
7E
66
C3
C3
C3
C3
C3
C3
C3
66
7E
3C
ENDCHAR
STARTCHAR one
ENCODING 49
SWIDTH 556 0
DWIDTH 10 0
BBX 5 13 2 0
BITMAP
18
F8
F8
18
18
18
18
18
18
18
18
18
18
ENDCHAR
STARTCHAR two
ENCODING 50
SWIDTH 556 0
DWIDTH 10 0
BBX 8 13 1 0
BITMAP
3C
FE
C3
03
07
0E
1C
38
70
E0
C0
FF
FF
ENDCHAR
STARTCHAR three
ENCODING 51
SWIDTH 556 0
DWIDTH 10 0
BBX 8 13 1 0
BITMAP
3E
7F
C3
C3
06
1C
1E
07
03
C3
C7
7E
3C
ENDCHAR
STARTCHAR four
ENCODING 52
SWIDTH 556 0
DWIDTH 10 0
BBX 9 13 0 0
BITMAP
0300
0700
0F00
1B00
3300
3300
6300
C300
FF80
FF80
0300
0300
0300
ENDCHAR
STARTCHAR five
ENCODING 53
SWIDTH 556 0
DWIDTH 10 0
BBX 8 13 1 0
BITMAP
FE
FE
C0
C0
FC
FE
C7
03
03
C3
C7
FE
7C
ENDCHAR
STARTCHAR six
ENCODING 54
SWIDTH 556 0
DWIDTH 10 0
BBX 8 13 1 0
BITMAP
3C
7F
63
C0
C0
DC
FE
C3
C3
C3
E3
7E
3C
ENDCHAR
STARTCHAR seven
ENCODING 55
SWIDTH 556 0
DWIDTH 10 0
BBX 8 13 1 0
BITMAP
FF
FF
03
06
0C
0C
18
18
30
30
60
60
60
ENDCHAR
STARTCHAR eight
ENCODING 56
SWIDTH 556 0
DWIDTH 10 0
BBX 8 13 1 0
BITMAP
3C
7E
E7
C3
C3
66
7E
E7
C3
C3
E7
7E
3C
ENDCHAR
STARTCHAR nine
ENCODING 57
SWIDTH 556 0
DWIDTH 10 0
BBX 8 13 1 0
BITMAP
3C
7E
C7
C3
C3
C3
7F
3B
03
03
C6
FE
7C
ENDCHAR
STARTCHAR colon
ENCODING 58
SWIDTH 278 0
DWIDTH 5 0
BBX 2 10 1 0
BITMAP
C0
C0
00
00
00
00
00
00
C0
C0
ENDCHAR
STARTCHAR semicolon
ENCODING 59
SWIDTH 278 0
DWIDTH 5 0
BBX 2 13 1 -3
BITMAP
C0
C0
00
00
00
00
00
00
C0
C0
40
40
80
ENDCHAR
STARTCHAR less
ENCODING 60
SWIDTH 584 0
DWIDTH 10 0
BBX 8 9 1 0
BITMAP
03
0F
3C
70
C0
70
3C
0F
03
ENDCHAR
STARTCHAR equal
ENCODING 61
SWIDTH 584 0
DWIDTH 11 0
BBX 7 5 2 2
BITMAP
FE
FE
00
FE
FE
ENDCHAR
STARTCHAR greater
ENCODING 62
SWIDTH 584 0
DWIDTH 10 0
BBX 8 9 1 0
BITMAP
C0
F0
3C
0E
03
0E
3C
F0
C0
ENDCHAR
STARTCHAR question
ENCODING 63
SWIDTH 556 0
DWIDTH 10 0
BBX 7 14 1 0
BITMAP
7C
FE
C6
C6
0E
1C
38
30
30
30
00
00
30
30
ENDCHAR
STARTCHAR at
ENCODING 64
SWIDTH 1015 0
DWIDTH 18 0
BBX 16 17 1 -3
BITMAP
03F0
0FFC
1C0E
3006
63D3
6773
C633
CC63
CC66
CC66
CCCC
CFF8
6770
7000
3800
1FF0
07E0
ENDCHAR
STARTCHAR A
ENCODING 65
SWIDTH 667 0
DWIDTH 13 0
BBX 12 14 0 0
BITMAP
0600
0600
0F00
0F00
1980
1980
30C0
30C0
3FC0
7FE0
6060
6060
C030
C030
ENDCHAR
STARTCHAR B
ENCODING 66
SWIDTH 667 0
DWIDTH 13 0
BBX 11 14 1 0
BITMAP
FF00
FF80
C1C0
C0C0
C0C0
C180
FF80
FFC0
C0E0
C060
C060
C0E0
FFC0
FF80
ENDCHAR
STARTCHAR C
ENCODING 67
SWIDTH 722 0
DWIDTH 14 0
BBX 12 14 1 0
BITMAP
0F80
3FE0
7070
6030
E000
C000
C000
C000
C000
E000
6030
7070
3FE0
0F80
ENDCHAR
STARTCHAR D
ENCODING 68
SWIDTH 722 0
DWIDTH 14 0
BBX 12 14 1 0
BITMAP
FF80
FFC0
C0E0
C060
C030
C030
C030
C030
C030
C030
C060
C0E0
FFC0
FF80
ENDCHAR
STARTCHAR E
ENCODING 69
SWIDTH 667 0
DWIDTH 13 0
BBX 10 14 2 0
BITMAP
FFC0
FFC0
C000
C000
C000
C000
FF80
FF80
C000
C000
C000
C000
FFC0
FFC0
ENDCHAR
STARTCHAR F
ENCODING 70
SWIDTH 611 0
DWIDTH 12 0
BBX 9 14 2 0
BITMAP
FF80
FF80
C000
C000
C000
C000
FF00
FF00
C000
C000
C000
C000
C000
C000
ENDCHAR
STARTCHAR G
ENCODING 71
SWIDTH 778 0
DWIDTH 15 0
BBX 13 14 1 0
BITMAP
0FC0
3FF0
7038
6018
E018
C000
C000
C0F8
C0F8
E018
6018
7038
3FF8
0FD8
ENDCHAR
STARTCHAR H
ENCODING 72
SWIDTH 722 0
DWIDTH 14 0
BBX 11 14 1 0
BITMAP
C060
C060
C060
C060
C060
C060
FFE0
FFE0
C060
C060
C060
C060
C060
C060
ENDCHAR
STARTCHAR I
ENCODING 73
SWIDTH 278 0
DWIDTH 6 0
BBX 2 14 2 0
BITMAP
C0
C0
C0
C0
C0
C0
C0
C0
C0
C0
C0
C0
C0
C0
ENDCHAR
STARTCHAR J
ENCODING 74
SWIDTH 500 0
DWIDTH 10 0
BBX 8 14 0 0
BITMAP
03
03
03
03
03
03
03
03
03
C3
C3
E7
7E
3C
ENDCHAR
STARTCHAR K
ENCODING 75
SWIDTH 667 0
DWIDTH 13 0
BBX 12 14 2 0
BITMAP
C0E0
C1C0
C380
C700
CE00
DC00
F800
FC00
CE00
C700
C380
C1C0
C0E0
C070
ENDCHAR
STARTCHAR L
ENCODING 76
SWIDTH 556 0
DWIDTH 11 0
BBX 9 14 1 0
BITMAP
C000
C000
C000
C000
C000
C000
C000
C000
C000
C000
C000
C000
FF80
FF80
ENDCHAR
STARTCHAR M
ENCODING 77
SWIDTH 833 0
DWIDTH 16 0
BBX 14 14 1 0
BITMAP
C00C
C00C
E01C
E01C
F03C
F03C
D86C
D86C
CCCC
CCCC
C48C
C78C
C30C
C30C
ENDCHAR
STARTCHAR N
ENCODING 78
SWIDTH 722 0
DWIDTH 14 0
BBX 11 14 1 0
BITMAP
C060
E060
F060
F060
D860
CC60
CC60
C660
C660
C360
C1E0
C1E0
C0E0
C060
ENDCHAR
STARTCHAR O
ENCODING 79
SWIDTH 778 0
DWIDTH 15 0
BBX 13 14 1 0
BITMAP
0F80
3FE0
7070
6030
E038
C018
C018
C018
C018
E038
6030
7070
3FE0
0F80
ENDCHAR
STARTCHAR P
ENCODING 80
SWIDTH 667 0
DWIDTH 13 0
BBX 10 14 2 0
BITMAP
FF00
FF80
C1C0
C0C0
C0C0
C1C0
FF80
FF00
C000
C000
C000
C000
C000
C000
ENDCHAR
STARTCHAR Q
ENCODING 81
SWIDTH 778 0
DWIDTH 15 0
BBX 13 15 1 -1
BITMAP
0F80
3FE0
7070
6030
E038
C018
C018
C018
C018
E1B8
61B0
70F0
3FE0
0FB0
0030
ENDCHAR
STARTCHAR R
ENCODING 82
SWIDTH 722 0
DWIDTH 14 0
BBX 11 14 1 0
BITMAP
FF80
FFC0
C0E0
C060
C060
C0E0
FFC0
FF80
C0C0
C0C0
C060
C060
C060
C060
ENDCHAR
STARTCHAR S
ENCODING 83
SWIDTH 667 0
DWIDTH 13 0
BBX 10 14 1 0
BITMAP
1E00
7F80
E1C0
C0C0
E000
7C00
1F00
0380
01C0
00C0
C0C0
E1C0
7F80
3F00
ENDCHAR
STARTCHAR T
ENCODING 84
SWIDTH 611 0
DWIDTH 12 0
BBX 10 14 1 0
BITMAP
FFC0
FFC0
0C00
0C00
0C00
0C00
0C00
0C00
0C00
0C00
0C00
0C00
0C00
0C00
ENDCHAR
STARTCHAR U
ENCODING 85
SWIDTH 722 0
DWIDTH 14 0
BBX 11 14 1 0
BITMAP
C060
C060
C060
C060
C060
C060
C060
C060
C060
C060
C060
60C0
7FC0
1F00
ENDCHAR
STARTCHAR V
ENCODING 86
SWIDTH 667 0
DWIDTH 13 0
BBX 12 14 0 0
BITMAP
C030
C030
6060
6060
6060
30C0
30C0
30C0
1980
1980
1980
0F00
0F00
0600
ENDCHAR
STARTCHAR W
ENCODING 87
SWIDTH 944 0
DWIDTH 18 0
BBX 16 14 1 0
BITMAP
C183
C183
C183
C3C3
63C6
6246
6666
6666
366C
366C
342C
1C38
1818
1818
ENDCHAR
STARTCHAR X
ENCODING 88
SWIDTH 667 0
DWIDTH 13 0
BBX 11 14 1 0
BITMAP
C060
C060
60C0
71C0
3180
1B00
0E00
0E00
1B00
3180
71C0
60C0
C060
C060
ENDCHAR
STARTCHAR Y
ENCODING 89
SWIDTH 667 0
DWIDTH 13 0
BBX 12 14 0 0
BITMAP
C030
C030
6060
6060
30C0
39C0
1980
0F00
0600
0600
0600
0600
0600
0600
ENDCHAR
STARTCHAR Z
ENCODING 90
SWIDTH 611 0
DWIDTH 12 0
BBX 10 14 1 0
BITMAP
FFC0
FFC0
00C0
0180
0300
0600
0C00
1C00
1800
3000
6000
C000
FFC0
FFC0
ENDCHAR
STARTCHAR bracketleft
ENCODING 91
SWIDTH 278 0
DWIDTH 5 0
BBX 4 18 0 -4
BITMAP
F0
F0
C0
C0
C0
C0
C0
C0
C0
C0
C0
C0
C0
C0
C0
C0
F0
F0
ENDCHAR
STARTCHAR backslash
ENCODING 92
SWIDTH 278 0
DWIDTH 5 0
BBX 5 14 0 0
BITMAP
C0
C0
C0
60
60
60
30
30
30
30
18
18
18
18
ENDCHAR
STARTCHAR bracketright
ENCODING 93
SWIDTH 278 0
DWIDTH 5 0
BBX 4 18 0 -4
BITMAP
F0
F0
30
30
30
30
30
30
30
30
30
30
30
30
30
30
F0
F0
ENDCHAR
STARTCHAR asciicircum
ENCODING 94
SWIDTH 469 0
DWIDTH 9 0
BBX 7 6 1 7
BITMAP
10
38
6C
6C
C6
C6
ENDCHAR
STARTCHAR underscore
ENCODING 95
SWIDTH 556 0
DWIDTH 11 0
BBX 11 2 0 -4
BITMAP
FFE0
FFE0
ENDCHAR
STARTCHAR grave
ENCODING 96
SWIDTH 333 0
DWIDTH 4 0
BBX 4 3 0 11
BITMAP
C0
60
30
ENDCHAR
STARTCHAR a
ENCODING 97
SWIDTH 556 0
DWIDTH 11 0
BBX 9 10 1 0
BITMAP
7E00
E700
C300
0700
7F00
E300
C300
C300
E780
7980
ENDCHAR
STARTCHAR b
ENCODING 98
SWIDTH 556 0
DWIDTH 11 0
BBX 9 14 1 0
BITMAP
C000
C000
C000
C000
DE00
FF00
E300
C180
C180
C180
C180
E300
FF00
DE00
ENDCHAR
STARTCHAR c
ENCODING 99
SWIDTH 500 0
DWIDTH 10 0
BBX 8 10 1 0
BITMAP
3E
7F
63
C0
C0
C0
C0
63
7F
3E
ENDCHAR
STARTCHAR d
ENCODING 100
SWIDTH 556 0
DWIDTH 11 0
BBX 9 14 1 0
BITMAP
0180
0180
0180
0180
3D80
7F80
6380
C180
C180
C180
C180
6380
7F80
3D80
ENDCHAR
STARTCHAR e
ENCODING 101
SWIDTH 556 0
DWIDTH 10 0
BBX 8 10 1 0
BITMAP
3C
7E
C3
C3
FF
C0
C0
E3
7F
3C
ENDCHAR
STARTCHAR f
ENCODING 102
SWIDTH 278 0
DWIDTH 6 0
BBX 6 14 0 0
BITMAP
1C
3C
30
30
FC
FC
30
30
30
30
30
30
30
30
ENDCHAR
STARTCHAR g
ENCODING 103
SWIDTH 556 0
DWIDTH 11 0
BBX 9 14 1 -4
BITMAP
3D80
7F80
6180
C180
C180
C180
C180
6380
7F80
3D80
0180
6300
7F00
1C00
ENDCHAR
STARTCHAR h
ENCODING 104
SWIDTH 556 0
DWIDTH 10 0
BBX 8 14 1 0
BITMAP
C0
C0
C0
C0
DE
FF
E3
C3
C3
C3
C3
C3
C3
C3
ENDCHAR
STARTCHAR i
ENCODING 105
SWIDTH 222 0
DWIDTH 4 0
BBX 2 14 1 0
BITMAP
C0
C0
00
00
C0
C0
C0
C0
C0
C0
C0
C0
C0
C0
ENDCHAR
STARTCHAR j
ENCODING 106
SWIDTH 222 0
DWIDTH 4 0
BBX 4 18 -1 -4
BITMAP
30
30
00
00
30
30
30
30
30
30
30
30
30
30
30
30
F0
E0
ENDCHAR
STARTCHAR k
ENCODING 107
SWIDTH 500 0
DWIDTH 9 0
BBX 8 14 1 0
BITMAP
C0
C0
C0
C0
C6
CC
D8
F0
F8
D8
CC
CE
C6
C7
ENDCHAR
STARTCHAR l
ENCODING 108
SWIDTH 222 0
DWIDTH 4 0
BBX 2 14 1 0
BITMAP
C0
C0
C0
C0
C0
C0
C0
C0
C0
C0
C0
C0
C0
C0
ENDCHAR
STARTCHAR m
ENCODING 109
SWIDTH 833 0
DWIDTH 16 0
BBX 14 10 1 0
BITMAP
DE78
FFFC
E38C
C30C
C30C
C30C
C30C
C30C
C30C
C30C
ENDCHAR
STARTCHAR n
ENCODING 110
SWIDTH 556 0
DWIDTH 10 0
BBX 8 10 1 0
BITMAP
DE
FF
E3
C3
C3
C3
C3
C3
C3
C3
ENDCHAR
STARTCHAR o
ENCODING 111
SWIDTH 556 0
DWIDTH 11 0
BBX 9 10 1 0
BITMAP
3E00
7F00
6300
C180
C180
C180
C180
6300
7F00
3E00
ENDCHAR
STARTCHAR p
ENCODING 112
SWIDTH 556 0
DWIDTH 11 0
BBX 9 14 1 -4
BITMAP
DE00
FF00
E300
C180
C180
C180
C180
E300
FF00
DE00
C000
C000
C000
C000
ENDCHAR
STARTCHAR q
ENCODING 113
SWIDTH 556 0
DWIDTH 11 0
BBX 9 14 1 -4
BITMAP
3D80
7F80
6380
C180
C180
C180
C180
6380
7F80
3D80
0180
0180
0180
0180
ENDCHAR
STARTCHAR r
ENCODING 114
SWIDTH 333 0
DWIDTH 6 0
BBX 5 10 1 0
BITMAP
D8
D8
E0
C0
C0
C0
C0
C0
C0
C0
ENDCHAR
STARTCHAR s
ENCODING 115
SWIDTH 500 0
DWIDTH 9 0
BBX 7 10 1 0
BITMAP
3C
7E
C6
C0
FC
3E
06
C6
FC
78
ENDCHAR
STARTCHAR t
ENCODING 116
SWIDTH 278 0
DWIDTH 6 0
BBX 6 13 0 0
BITMAP
30
30
30
FC
FC
30
30
30
30
30
30
3C
1C
ENDCHAR
STARTCHAR u
ENCODING 117
SWIDTH 556 0
DWIDTH 10 0
BBX 8 10 1 0
BITMAP
C3
C3
C3
C3
C3
C3
C3
C7
FF
7B
ENDCHAR
STARTCHAR v
ENCODING 118
SWIDTH 500 0
DWIDTH 10 0
BBX 8 10 1 0
BITMAP
C3
C3
C3
66
66
66
24
3C
18
18
ENDCHAR
STARTCHAR w
ENCODING 119
SWIDTH 722 0
DWIDTH 14 0
BBX 12 10 1 0
BITMAP
C630
C630
C630
6660
6660
6960
2940
39C0
1980
1980
ENDCHAR
STARTCHAR x
ENCODING 120
SWIDTH 500 0
DWIDTH 10 0
BBX 8 10 1 0
BITMAP
C3
E7
66
3C
18
18
3C
66
E7
C3
ENDCHAR
STARTCHAR y
ENCODING 121
SWIDTH 500 0
DWIDTH 10 0
BBX 8 14 1 -4
BITMAP
C3
C3
C3
66
66
66
24
3C
18
18
18
18
70
70
ENDCHAR
STARTCHAR z
ENCODING 122
SWIDTH 500 0
DWIDTH 9 0
BBX 7 10 1 0
BITMAP
FE
FE
06
0C
18
30
60
C0
FE
FE
ENDCHAR
STARTCHAR braceleft
ENCODING 123
SWIDTH 334 0
DWIDTH 6 0
BBX 6 18 -1 -4
BITMAP
0C
18
30
30
30
30
30
60
C0
60
30
30
30
30
30
30
18
0C
ENDCHAR
STARTCHAR bar
ENCODING 124
SWIDTH 260 0
DWIDTH 5 0
BBX 2 18 1 -4
BITMAP
C0
C0
C0
C0
C0
C0
C0
C0
C0
C0
C0
C0
C0
C0
C0
C0
C0
C0
ENDCHAR
STARTCHAR braceright
ENCODING 125
SWIDTH 334 0
DWIDTH 6 0
BBX 6 18 0 -4
BITMAP
C0
60
30
30
30
30
30
18
0C
18
30
30
30
30
30
30
60
C0
ENDCHAR
STARTCHAR asciitilde
ENCODING 126
SWIDTH 584 0
DWIDTH 10 0
BBX 8 3 1 4
BITMAP
73
FF
CE
ENDCHAR
STARTCHAR space
ENCODING 160
SWIDTH 278 0
DWIDTH 5 0
BBX 1 1 0 0
BITMAP
00
ENDCHAR
STARTCHAR exclamdown
ENCODING 161
SWIDTH 333 0
DWIDTH 6 0
BBX 2 14 2 -4
BITMAP
C0
C0
00
00
40
40
C0
C0
C0
C0
C0
C0
C0
C0
ENDCHAR
STARTCHAR cent
ENCODING 162
SWIDTH 556 0
DWIDTH 10 0
BBX 8 14 1 -2
BITMAP
04
04
3E
7F
6B
C8
C8
C8
C8
6B
7F
3E
10
10
ENDCHAR
STARTCHAR sterling
ENCODING 163
SWIDTH 556 0
DWIDTH 10 0
BBX 9 13 0 0
BITMAP
1E00
3F00
6180
6180
6000
3000
7E00
1800
1800
3000
6080
FF80
DF00
ENDCHAR
STARTCHAR currency
ENCODING 164
SWIDTH 556 0
DWIDTH 10 0
BBX 8 7 1 3
BITMAP
C3
FF
66
66
66
FF
C3
ENDCHAR
STARTCHAR yen
ENCODING 165
SWIDTH 556 0
DWIDTH 10 0
BBX 8 13 1 0
BITMAP
C3
C3
66
66
66
3C
FF
18
FF
18
18
18
18
ENDCHAR
STARTCHAR brokenbar
ENCODING 166
SWIDTH 260 0
DWIDTH 5 0
BBX 2 18 1 -4
BITMAP
C0
C0
C0
C0
C0
C0
C0
00
00
00
00
C0
C0
C0
C0
C0
C0
C0
ENDCHAR
STARTCHAR section
ENCODING 167
SWIDTH 556 0
DWIDTH 10 0
BBX 8 18 1 -4
BITMAP
3C
7E
C3
C3
F0
7C
6E
C7
C3
E3
73
3E
0E
07
C3
C3
7E
3C
ENDCHAR
STARTCHAR dieresis
ENCODING 168
SWIDTH 333 0
DWIDTH 6 0
BBX 5 2 0 12
BITMAP
D8
D8
ENDCHAR
STARTCHAR copyright
ENCODING 169
SWIDTH 737 0
DWIDTH 15 0
BBX 13 14 1 0
BITMAP
0F80
3060
4010
4710
8888
9088
9008
9008
9008
8888
4710
4010
3060
0F80
ENDCHAR
STARTCHAR ordfeminine
ENCODING 170
SWIDTH 370 0
DWIDTH 7 0
BBX 5 8 1 6
BITMAP
70
98
38
48
D8
68
00
F8
ENDCHAR
STARTCHAR guillemotleft
ENCODING 171
SWIDTH 556 0
DWIDTH 9 0
BBX 7 6 1 2
BITMAP
36
6C
D8
D8
6C
36
ENDCHAR
STARTCHAR logicalnot
ENCODING 172
SWIDTH 584 0
DWIDTH 11 0
BBX 9 5 1 3
BITMAP
FF80
FF80
0180
0180
0180
ENDCHAR
STARTCHAR hyphen
ENCODING 173
SWIDTH 333 0
DWIDTH 6 0
BBX 5 1 0 5
BITMAP
F8
ENDCHAR
STARTCHAR registered
ENCODING 174
SWIDTH 737 0
DWIDTH 14 0
BBX 13 14 0 0
BITMAP
0F80
3060
4010
4F90
8848
8848
8848
8F88
8908
8888
4850
4010
3060
0F80
ENDCHAR
STARTCHAR macron
ENCODING 175
SWIDTH 333 0
DWIDTH 5 0
BBX 5 1 0 12
BITMAP
F8
ENDCHAR
STARTCHAR degree
ENCODING 176
SWIDTH 400 0
DWIDTH 7 0
BBX 5 5 1 8
BITMAP
70
D8
88
D8
70
ENDCHAR
STARTCHAR plusminus
ENCODING 177
SWIDTH 584 0
DWIDTH 10 0
BBX 8 11 1 0
BITMAP
18
18
18
FF
FF
18
18
18
00
FF
FF
ENDCHAR
STARTCHAR twosuperior
ENCODING 178
SWIDTH 333 0
DWIDTH 6 0
BBX 5 8 0 5
BITMAP
70
F8
98
18
30
60
F8
F8
ENDCHAR
STARTCHAR threesuperior
ENCODING 179
SWIDTH 333 0
DWIDTH 6 0
BBX 5 8 0 5
BITMAP
70
F8
98
30
30
98
F8
70
ENDCHAR
STARTCHAR acute
ENCODING 180
SWIDTH 333 0
DWIDTH 4 0
BBX 4 3 0 11
BITMAP
30
60
C0
ENDCHAR
STARTCHAR mu
ENCODING 181
SWIDTH 556 0
DWIDTH 10 0
BBX 8 14 1 -4
BITMAP
C3
C3
C3
C3
C3
C3
C3
E7
FF
DB
C0
C0
C0
C0
ENDCHAR
STARTCHAR paragraph
ENCODING 182
SWIDTH 537 0
DWIDTH 10 0
BBX 8 18 1 -4
BITMAP
3F
72
F2
F2
F2
F2
F2
72
32
12
12
12
12
12
12
12
12
12
ENDCHAR
STARTCHAR periodcentered
ENCODING 183
SWIDTH 278 0
DWIDTH 4 0
BBX 2 2 1 4
BITMAP
C0
C0
ENDCHAR
STARTCHAR cedilla
ENCODING 184
SWIDTH 333 0
DWIDTH 5 0
BBX 5 5 0 -4
BITMAP
60
70
18
D8
F0
ENDCHAR
STARTCHAR onesuperior
ENCODING 185
SWIDTH 333 0
DWIDTH 6 0
BBX 4 8 0 5
BITMAP
30
F0
F0
30
30
30
30
30
ENDCHAR
STARTCHAR ordmasculine
ENCODING 186
SWIDTH 365 0
DWIDTH 7 0
BBX 5 8 1 6
BITMAP
70
D8
88
88
D8
70
00
F8
ENDCHAR
STARTCHAR guillemotright
ENCODING 187
SWIDTH 556 0
DWIDTH 9 0
BBX 7 6 1 2
BITMAP
D8
6C
36
36
6C
D8
ENDCHAR
STARTCHAR onequarter
ENCODING 188
SWIDTH 834 0
DWIDTH 15 0
BBX 14 13 0 0
BITMAP
3030
F030
F060
30C0
30C0
3188
3118
3338
0678
06D8
0CFC
1818
1818
ENDCHAR
STARTCHAR onehalf
ENCODING 189
SWIDTH 834 0
DWIDTH 15 0
BBX 14 13 0 0
BITMAP
3030
F030
F060
30C0
30C0
31B8
317C
334C
060C
0618
0C30
187C
187C
ENDCHAR
STARTCHAR threequarters
ENCODING 190
SWIDTH 834 0
DWIDTH 15 0
BBX 14 13 0 0
BITMAP
7030
F830
9860
30C0
30C0
9988
F918
7338
0678
06D8
0CFC
1818
1818
ENDCHAR
STARTCHAR questiondown
ENCODING 191
SWIDTH 611 0
DWIDTH 10 0
BBX 7 14 1 -4
BITMAP
18
18
00
00
18
18
18
38
70
E0
C6
C6
FE
7C
ENDCHAR
STARTCHAR Agrave
ENCODING 192
SWIDTH 667 0
DWIDTH 13 0
BBX 12 18 0 0
BITMAP
1800
0C00
0600
0000
0600
0600
0F00
0F00
1980
1980
30C0
30C0
3FC0
7FE0
6060
6060
C030
C030
ENDCHAR
STARTCHAR Aacute
ENCODING 193
SWIDTH 667 0
DWIDTH 13 0
BBX 12 18 0 0
BITMAP
0180
0300
0600
0000
0600
0600
0F00
0F00
1980
1980
30C0
30C0
3FC0
7FE0
6060
6060
C030
C030
ENDCHAR
STARTCHAR Acircumflex
ENCODING 194
SWIDTH 667 0
DWIDTH 13 0
BBX 12 18 0 0
BITMAP
0600
0F00
1980
0000
0600
0600
0F00
0F00
1980
1980
30C0
30C0
3FC0
7FE0
6060
6060
C030
C030
ENDCHAR
STARTCHAR Atilde
ENCODING 195
SWIDTH 667 0
DWIDTH 13 0
BBX 12 18 0 0
BITMAP
0C80
1680
1300
0000
0600
0600
0F00
0F00
1980
1980
30C0
30C0
3FC0
7FE0
6060
6060
C030
C030
ENDCHAR
STARTCHAR Adieresis
ENCODING 196
SWIDTH 667 0
DWIDTH 13 0
BBX 12 17 0 0
BITMAP
1980
1980
0000
0600
0600
0F00
0F00
1980
1980
30C0
30C0
3FC0
7FE0
6060
6060
C030
C030
ENDCHAR
STARTCHAR Aring
ENCODING 197
SWIDTH 667 0
DWIDTH 13 0
BBX 12 17 0 0
BITMAP
0600
0900
0900
0600
0600
0F00
0F00
1980
1980
30C0
30C0
3FC0
7FE0
6060
6060
C030
C030
ENDCHAR
STARTCHAR AE
ENCODING 198
SWIDTH 1000 0
DWIDTH 18 0
BBX 16 14 1 0
BITMAP
07FF
07FF
0D80
0D80
1980
1980
31FE
31FE
3F80
7F80
6180
6180
C1FF
C1FF
ENDCHAR
STARTCHAR Ccedilla
ENCODING 199
SWIDTH 722 0
DWIDTH 14 0
BBX 12 18 1 -4
BITMAP
0F80
3FE0
7070
6030
E000
C000
C000
C000
C000
E000
6030
7070
3FE0
0F80
0600
0300
1B00
1E00
ENDCHAR
STARTCHAR Egrave
ENCODING 200
SWIDTH 667 0
DWIDTH 13 0
BBX 10 18 2 0
BITMAP
3000
1800
0C00
0000
FFC0
FFC0
C000
C000
C000
C000
FF80
FF80
C000
C000
C000
C000
FFC0
FFC0
ENDCHAR
STARTCHAR Eacute
ENCODING 201
SWIDTH 667 0
DWIDTH 13 0
BBX 10 18 2 0
BITMAP
0300
0600
0C00
0000
FFC0
FFC0
C000
C000
C000
C000
FF80
FF80
C000
C000
C000
C000
FFC0
FFC0
ENDCHAR
STARTCHAR Ecircumflex
ENCODING 202
SWIDTH 667 0
DWIDTH 13 0
BBX 10 18 2 0
BITMAP
0C00
1E00
3300
0000
FFC0
FFC0
C000
C000
C000
C000
FF80
FF80
C000
C000
C000
C000
FFC0
FFC0
ENDCHAR
STARTCHAR Edieresis
ENCODING 203
SWIDTH 667 0
DWIDTH 13 0
BBX 10 17 2 0
BITMAP
3300
3300
0000
FFC0
FFC0
C000
C000
C000
C000
FF80
FF80
C000
C000
C000
C000
FFC0
FFC0
ENDCHAR
STARTCHAR Igrave
ENCODING 204
SWIDTH 278 0
DWIDTH 6 0
BBX 4 18 0 0
BITMAP
C0
60
30
00
30
30
30
30
30
30
30
30
30
30
30
30
30
30
ENDCHAR
STARTCHAR Iacute
ENCODING 205
SWIDTH 278 0
DWIDTH 6 0
BBX 4 18 2 0
BITMAP
30
60
C0
00
C0
C0
C0
C0
C0
C0
C0
C0
C0
C0
C0
C0
C0
C0
ENDCHAR
STARTCHAR Icircumflex
ENCODING 206
SWIDTH 278 0
DWIDTH 6 0
BBX 6 18 0 0
BITMAP
30
78
84
00
30
30
30
30
30
30
30
30
30
30
30
30
30
30
ENDCHAR
STARTCHAR Idieresis
ENCODING 207
SWIDTH 278 0
DWIDTH 6 0
BBX 6 17 0 0
BITMAP
CC
CC
00
30
30
30
30
30
30
30
30
30
30
30
30
30
30
ENDCHAR
STARTCHAR Eth
ENCODING 208
SWIDTH 722 0
DWIDTH 14 0
BBX 14 14 -1 0
BITMAP
3FE0
3FF0
3038
3018
300C
300C
FE0C
FE0C
300C
300C
3018
3038
3FF0
3FE0
ENDCHAR
STARTCHAR Ntilde
ENCODING 209
SWIDTH 722 0
DWIDTH 14 0
BBX 11 18 1 0
BITMAP
0C80
1680
1300
0000
C060
E060
F060
F060
D860
CC60
CC60
C660
C660
C360
C1E0
C1E0
C0E0
C060
ENDCHAR
STARTCHAR Ograve
ENCODING 210
SWIDTH 778 0
DWIDTH 15 0
BBX 13 18 1 0
BITMAP
1800
0C00
0600
0000
0F80
3FE0
7070
6030
E038
C018
C018
C018
C018
E038
6030
7070
3FE0
0F80
ENDCHAR
STARTCHAR Oacute
ENCODING 211
SWIDTH 778 0
DWIDTH 15 0
BBX 13 18 1 0
BITMAP
0180
0300
0600
0000
0F80
3FE0
7070
6030
E038
C018
C018
C018
C018
E038
6030
7070
3FE0
0F80
ENDCHAR
STARTCHAR Ocircumflex
ENCODING 212
SWIDTH 778 0
DWIDTH 15 0
BBX 13 18 1 0
BITMAP
0300
0780
0CC0
0000
0F80
3FE0
7070
6030
E038
C018
C018
C018
C018
E038
6030
7070
3FE0
0F80
ENDCHAR
STARTCHAR Otilde
ENCODING 213
SWIDTH 778 0
DWIDTH 15 0
BBX 13 18 1 0
BITMAP
0640
0B40
0980
0000
0F80
3FE0
7070
6030
E038
C018
C018
C018
C018
E038
6030
7070
3FE0
0F80
ENDCHAR
STARTCHAR Odieresis
ENCODING 214
SWIDTH 778 0
DWIDTH 15 0
BBX 13 17 1 0
BITMAP
0CC0
0CC0
0000
0F80
3FE0
7070
6030
E038
C018
C018
C018
C018
E038
6030
7070
3FE0
0F80
ENDCHAR
STARTCHAR multiply
ENCODING 215
SWIDTH 584 0
DWIDTH 10 0
BBX 10 9 0 0
BITMAP
C0C0
6180
3300
1E00
0C00
1E00
3300
6180
C0C0
ENDCHAR
STARTCHAR Oslash
ENCODING 216
SWIDTH 778 0
DWIDTH 15 0
BBX 14 14 0 0
BITMAP
07CC
1FF8
3830
3078
70DC
618C
630C
620C
660C
6C1C
3818
3838
6FF0
C7C0
ENDCHAR
STARTCHAR Ugrave
ENCODING 217
SWIDTH 722 0
DWIDTH 14 0
BBX 11 18 1 0
BITMAP
1800
0C00
0600
0000
C060
C060
C060
C060
C060
C060
C060
C060
C060
C060
C060
60C0
7FC0
1F00
ENDCHAR
STARTCHAR Uacute
ENCODING 218
SWIDTH 722 0
DWIDTH 14 0
BBX 11 18 1 0
BITMAP
0300
0600
0C00
0000
C060
C060
C060
C060
C060
C060
C060
C060
C060
C060
C060
60C0
7FC0
1F00
ENDCHAR
STARTCHAR Ucircumflex
ENCODING 219
SWIDTH 722 0
DWIDTH 14 0
BBX 11 18 1 0
BITMAP
0600
0F00
1980
0000
C060
C060
C060
C060
C060
C060
C060
C060
C060
C060
C060
60C0
7FC0
1F00
ENDCHAR
STARTCHAR Udieresis
ENCODING 220
SWIDTH 722 0
DWIDTH 14 0
BBX 11 17 1 0
BITMAP
3180
3180
0000
C060
C060
C060
C060
C060
C060
C060
C060
C060
C060
C060
60C0
7FC0
1F00
ENDCHAR
STARTCHAR Yacute
ENCODING 221
SWIDTH 667 0
DWIDTH 13 0
BBX 12 18 0 0
BITMAP
0180
0300
0600
0000
C030
C030
6060
6060
30C0
39C0
1980
0F00
0600
0600
0600
0600
0600
0600
ENDCHAR
STARTCHAR Thorn
ENCODING 222
SWIDTH 667 0
DWIDTH 12 0
BBX 10 14 1 0
BITMAP
C000
C000
C000
FF00
FF80
C1C0
C0C0
C0C0
C1C0
FF80
FF00
C000
C000
C000
ENDCHAR
STARTCHAR germandbls
ENCODING 223
SWIDTH 611 0
DWIDTH 9 0
BBX 7 14 1 0
BITMAP
38
7C
C6
C6
C6
C6
DC
DC
C6
C6
C6
C6
DE
DC
ENDCHAR
STARTCHAR agrave
ENCODING 224
SWIDTH 556 0
DWIDTH 11 0
BBX 9 14 1 0
BITMAP
3000
1800
0C00
0000
7E00
E700
C300
0700
7F00
E300
C300
C300
E780
7980
ENDCHAR
STARTCHAR aacute
ENCODING 225
SWIDTH 556 0
DWIDTH 11 0
BBX 9 14 1 0
BITMAP
0C00
1800
3000
0000
7E00
E700
C300
0700
7F00
E300
C300
C300
E780
7980
ENDCHAR
STARTCHAR acircumflex
ENCODING 226
SWIDTH 556 0
DWIDTH 11 0
BBX 9 14 1 0
BITMAP
1800
3C00
6600
0000
7E00
E700
C300
0700
7F00
E300
C300
C300
E780
7980
ENDCHAR
STARTCHAR atilde
ENCODING 227
SWIDTH 556 0
DWIDTH 11 0
BBX 9 14 1 0
BITMAP
3200
5A00
4C00
0000
7E00
E700
C300
0700
7F00
E300
C300
C300
E780
7980
ENDCHAR
STARTCHAR adieresis
ENCODING 228
SWIDTH 556 0
DWIDTH 11 0
BBX 9 14 1 0
BITMAP
6600
6600
0000
0000
7E00
E700
C300
0700
7F00
E300
C300
C300
E780
7980
ENDCHAR
STARTCHAR aring
ENCODING 229
SWIDTH 556 0
DWIDTH 11 0
BBX 9 14 1 0
BITMAP
1800
2400
2400
1800
7E00
E700
C300
0700
7F00
E300
C300
C300
E780
7980
ENDCHAR
STARTCHAR ae
ENCODING 230
SWIDTH 889 0
DWIDTH 17 0
BBX 14 10 2 0
BITMAP
7EF0
E7F8
C30C
070C
7FFC
E300
C300
C38C
E7FC
7AF0
ENDCHAR
STARTCHAR ccedilla
ENCODING 231
SWIDTH 500 0
DWIDTH 10 0
BBX 8 14 1 -4
BITMAP
3E
7F
63
C0
C0
C0
C0
63
7F
3E
18
0C
6C
78
ENDCHAR
STARTCHAR egrave
ENCODING 232
SWIDTH 556 0
DWIDTH 10 0
BBX 8 14 1 0
BITMAP
30
18
0C
00
3C
7E
C3
C3
FF
C0
C0
E3
7F
3C
ENDCHAR
STARTCHAR eacute
ENCODING 233
SWIDTH 556 0
DWIDTH 10 0
BBX 8 14 1 0
BITMAP
0C
18
30
00
3C
7E
C3
C3
FF
C0
C0
E3
7F
3C
ENDCHAR
STARTCHAR ecircumflex
ENCODING 234
SWIDTH 556 0
DWIDTH 10 0
BBX 8 14 1 0
BITMAP
18
3C
66
00
3C
7E
C3
C3
FF
C0
C0
E3
7F
3C
ENDCHAR
STARTCHAR edieresis
ENCODING 235
SWIDTH 556 0
DWIDTH 10 0
BBX 8 14 1 0
BITMAP
66
66
00
00
3C
7E
C3
C3
FF
C0
C0
E3
7F
3C
ENDCHAR
STARTCHAR igrave
ENCODING 236
SWIDTH 278 0
DWIDTH 4 0
BBX 4 14 0 0
BITMAP
C0
60
30
00
60
60
60
60
60
60
60
60
60
60
ENDCHAR
STARTCHAR iacute
ENCODING 237
SWIDTH 278 0
DWIDTH 4 0
BBX 4 14 0 0
BITMAP
30
60
C0
00
60
60
60
60
60
60
60
60
60
60
ENDCHAR
STARTCHAR icircumflex
ENCODING 238
SWIDTH 278 0
DWIDTH 4 0
BBX 6 14 -1 0
BITMAP
30
78
CC
00
30
30
30
30
30
30
30
30
30
30
ENDCHAR
STARTCHAR idieresis
ENCODING 239
SWIDTH 278 0
DWIDTH 4 0
BBX 5 14 0 0
BITMAP
D8
D8
00
00
60
60
60
60
60
60
60
60
60
60
ENDCHAR
STARTCHAR eth
ENCODING 240
SWIDTH 556 0
DWIDTH 11 0
BBX 9 14 1 0
BITMAP
6000
3600
3800
4C00
3E00
7F00
6300
C180
C180
C180
C180
6300
7F00
3E00
ENDCHAR
STARTCHAR ntilde
ENCODING 241
SWIDTH 556 0
DWIDTH 10 0
BBX 8 14 1 0
BITMAP
32
5A
4C
00
DE
FF
E3
C3
C3
C3
C3
C3
C3
C3
ENDCHAR
STARTCHAR ograve
ENCODING 242
SWIDTH 556 0
DWIDTH 11 0
BBX 9 14 1 0
BITMAP
3000
1800
0C00
0000
3E00
7F00
6300
C180
C180
C180
C180
6300
7F00
3E00
ENDCHAR
STARTCHAR oacute
ENCODING 243
SWIDTH 556 0
DWIDTH 11 0
BBX 9 14 1 0
BITMAP
0600
0C00
1800
0000
3E00
7F00
6300
C180
C180
C180
C180
6300
7F00
3E00
ENDCHAR
STARTCHAR ocircumflex
ENCODING 244
SWIDTH 556 0
DWIDTH 11 0
BBX 9 14 1 0
BITMAP
1800
3C00
6600
0000
3E00
7F00
6300
C180
C180
C180
C180
6300
7F00
3E00
ENDCHAR
STARTCHAR otilde
ENCODING 245
SWIDTH 556 0
DWIDTH 11 0
BBX 9 14 1 0
BITMAP
3200
5A00
4C00
0000
3E00
7F00
6300
C180
C180
C180
C180
6300
7F00
3E00
ENDCHAR
STARTCHAR odieresis
ENCODING 246
SWIDTH 556 0
DWIDTH 11 0
BBX 9 14 1 0
BITMAP
3300
3300
0000
0000
3E00
7F00
6300
C180
C180
C180
C180
6300
7F00
3E00
ENDCHAR
STARTCHAR divide
ENCODING 247
SWIDTH 584 0
DWIDTH 10 0
BBX 8 8 1 1
BITMAP
18
18
00
FF
FF
00
18
18
ENDCHAR
STARTCHAR oslash
ENCODING 248
SWIDTH 611 0
DWIDTH 11 0
BBX 11 10 0 0
BITMAP
0E60
3FC0
3180
63C0
66C0
6CC0
78C0
3180
7F80
CE00
ENDCHAR
STARTCHAR ugrave
ENCODING 249
SWIDTH 556 0
DWIDTH 10 0
BBX 8 14 1 0
BITMAP
30
18
0C
00
C3
C3
C3
C3
C3
C3
C3
C7
FF
7B
ENDCHAR
STARTCHAR uacute
ENCODING 250
SWIDTH 556 0
DWIDTH 10 0
BBX 8 14 1 0
BITMAP
06
0C
18
00
C3
C3
C3
C3
C3
C3
C3
C7
FF
7B
ENDCHAR
STARTCHAR ucircumflex
ENCODING 251
SWIDTH 556 0
DWIDTH 10 0
BBX 8 14 1 0
BITMAP
18
3C
66
00
C3
C3
C3
C3
C3
C3
C3
C7
FF
7B
ENDCHAR
STARTCHAR udieresis
ENCODING 252
SWIDTH 556 0
DWIDTH 10 0
BBX 8 14 1 0
BITMAP
66
66
00
00
C3
C3
C3
C3
C3
C3
C3
C7
FF
7B
ENDCHAR
STARTCHAR yacute
ENCODING 253
SWIDTH 500 0
DWIDTH 10 0
BBX 8 18 1 -4
BITMAP
06
0C
18
00
C3
C3
C3
66
66
66
24
3C
18
18
18
18
70
70
ENDCHAR
STARTCHAR thorn
ENCODING 254
SWIDTH 556 0
DWIDTH 11 0
BBX 9 18 1 -4
BITMAP
C000
C000
C000
C000
DE00
FF00
E300
C180
C180
C180
C180
E300
FF00
DE00
C000
C000
C000
C000
ENDCHAR
STARTCHAR ydieresis
ENCODING 255
SWIDTH 500 0
DWIDTH 10 0
BBX 8 18 1 -4
BITMAP
66
66
00
00
C3
C3
C3
66
66
66
24
3C
18
18
18
18
70
70
ENDCHAR
STARTCHAR Amacron
ENCODING 256
SWIDTH 667 0
DWIDTH 13 0
BBX 12 16 0 0
BITMAP
0F80
0000
0600
0600
0F00
0F00
1980
1980
30C0
30C0
3FC0
7FE0
6060
6060
C030
C030
ENDCHAR
STARTCHAR amacron
ENCODING 257
SWIDTH 556 0
DWIDTH 11 0
BBX 9 12 1 0
BITMAP
3E00
0000
7E00
E700
C300
0700
7F00
E300
C300
C300
E780
7980
ENDCHAR
STARTCHAR Abreve
ENCODING 258
SWIDTH 667 0
DWIDTH 13 0
BBX 12 18 0 0
BITMAP
1080
1980
0F00
0000
0600
0600
0F00
0F00
1980
1980
30C0
30C0
3FC0
7FE0
6060
6060
C030
C030
ENDCHAR
STARTCHAR abreve
ENCODING 259
SWIDTH 556 0
DWIDTH 11 0
BBX 9 14 1 0
BITMAP
4200
6600
3C00
0000
7E00
E700
C300
0700
7F00
E300
C300
C300
E780
7980
ENDCHAR
STARTCHAR Aogonek
ENCODING 260
SWIDTH 667 0
DWIDTH 13 0
BBX 12 18 0 -4
BITMAP
0600
0600
0F00
0F00
1980
1980
30C0
30C0
3FC0
7FE0
6060
6060
C030
C330
0600
0C00
0C00
0700
ENDCHAR
STARTCHAR aogonek
ENCODING 261
SWIDTH 556 0
DWIDTH 11 0
BBX 9 14 1 -4
BITMAP
7E00
E700
C300
0700
7F00
E300
C300
C300
E780
7D80
1800
3000
3000
1C00
ENDCHAR
STARTCHAR Cacute
ENCODING 262
SWIDTH 722 0
DWIDTH 14 0
BBX 12 18 1 0
BITMAP
0180
0300
0600
0000
0F80
3FE0
7070
6030
E000
C000
C000
C000
C000
E000
6030
7070
3FE0
0F80
ENDCHAR
STARTCHAR cacute
ENCODING 263
SWIDTH 500 0
DWIDTH 10 0
BBX 8 14 1 0
BITMAP
06
0C
18
00
3E
7F
63
C0
C0
C0
C0
63
7F
3E
ENDCHAR
STARTCHAR Ccircumflex
ENCODING 264
SWIDTH 722 0
DWIDTH 14 0
BBX 12 18 1 0
BITMAP
0600
0F00
1980
0000
0F80
3FE0
7070
6030
E000
C000
C000
C000
C000
E000
6030
7070
3FE0
0F80
ENDCHAR
STARTCHAR ccircumflex
ENCODING 265
SWIDTH 500 0
DWIDTH 10 0
BBX 8 14 1 0
BITMAP
18
3C
66
00
3E
7F
63
C0
C0
C0
C0
63
7F
3E
ENDCHAR
STARTCHAR Cdotaccent
ENCODING 266
SWIDTH 722 0
DWIDTH 14 0
BBX 12 17 1 0
BITMAP
0600
0600
0000
0F80
3FE0
7070
6030
E000
C000
C000
C000
C000
E000
6030
7070
3FE0
0F80
ENDCHAR
STARTCHAR cdotaccent
ENCODING 267
SWIDTH 500 0
DWIDTH 10 0
BBX 8 13 1 0
BITMAP
18
18
00
3E
7F
63
C0
C0
C0
C0
63
7F
3E
ENDCHAR
STARTCHAR Ccaron
ENCODING 268
SWIDTH 722 0
DWIDTH 14 0
BBX 12 18 1 0
BITMAP
1980
0F00
0600
0000
0F80
3FE0
7070
6030
E000
C000
C000
C000
C000
E000
6030
7070
3FE0
0F80
ENDCHAR
STARTCHAR ccaron
ENCODING 269
SWIDTH 500 0
DWIDTH 10 0
BBX 8 14 1 0
BITMAP
66
3C
18
00
3E
7F
63
C0
C0
C0
C0
63
7F
3E
ENDCHAR
STARTCHAR Dcaron
ENCODING 270
SWIDTH 722 0
DWIDTH 14 0
BBX 12 18 1 0
BITMAP
3300
1E00
0C00
0000
FF80
FFC0
C0E0
C060
C030
C030
C030
C030
C030
C030
C060
C0E0
FFC0
FF80
ENDCHAR
STARTCHAR dcaron
ENCODING 271
SWIDTH 750 0
DWIDTH 14 0
BBX 12 14 1 0
BITMAP
01B0
01B0
0190
0190
3DA0
7F80
6380
C180
C180
C180
C180
6380
7F80
3D80
ENDCHAR
STARTCHAR Dcroat
ENCODING 272
SWIDTH 722 0
DWIDTH 14 0
BBX 14 14 -1 0
BITMAP
3FE0
3FF0
3038
3018
300C
300C
FE0C
FE0C
300C
300C
3018
3038
3FF0
3FE0
ENDCHAR
STARTCHAR dcroat
ENCODING 273
SWIDTH 556 0
DWIDTH 11 0
BBX 9 14 1 0
BITMAP
0180
0180
1F80
1F80
3D80
7F80
6380
C180
C180
C180
C180
6380
7F80
3D80
ENDCHAR
STARTCHAR Emacron
ENCODING 274
SWIDTH 667 0
DWIDTH 13 0
BBX 10 16 2 0
BITMAP
3E00
0000
FFC0
FFC0
C000
C000
C000
C000
FF80
FF80
C000
C000
C000
C000
FFC0
FFC0
ENDCHAR
STARTCHAR emacron
ENCODING 275
SWIDTH 556 0
DWIDTH 10 0
BBX 8 12 1 0
BITMAP
3E
00
3C
7E
C3
C3
FF
C0
C0
E3
7F
3C
ENDCHAR
STARTCHAR Ebreve
ENCODING 276
SWIDTH 667 0
DWIDTH 13 0
BBX 10 18 2 0
BITMAP
2100
3300
1E00
0000
FFC0
FFC0
C000
C000
C000
C000
FF80
FF80
C000
C000
C000
C000
FFC0
FFC0
ENDCHAR
STARTCHAR ebreve
ENCODING 277
SWIDTH 556 0
DWIDTH 10 0
BBX 8 14 1 0
BITMAP
42
66
3C
00
3C
7E
C3
C3
FF
C0
C0
E3
7F
3C
ENDCHAR
STARTCHAR Edotaccent
ENCODING 278
SWIDTH 667 0
DWIDTH 13 0
BBX 10 17 2 0
BITMAP
0C00
0C00
0000
FFC0
FFC0
C000
C000
C000
C000
FF80
FF80
C000
C000
C000
C000
FFC0
FFC0
ENDCHAR
STARTCHAR edotaccent
ENCODING 279
SWIDTH 556 0
DWIDTH 10 0
BBX 8 13 1 0
BITMAP
18
18
00
3C
7E
C3
C3
FF
C0
C0
E3
7F
3C
ENDCHAR
STARTCHAR Eogonek
ENCODING 280
SWIDTH 667 0
DWIDTH 13 0
BBX 10 18 2 -4
BITMAP
FFC0
FFC0
C000
C000
C000
C000
FF80
FF80
C000
C000
C000
C000
FFC0
FFC0
1800
3000
3000
1C00
ENDCHAR
STARTCHAR eogonek
ENCODING 281
SWIDTH 556 0
DWIDTH 10 0
BBX 8 14 1 -4
BITMAP
3C
7E
C3
C3
FF
C0
C0
E3
7F
3C
18
30
30
1C
ENDCHAR
STARTCHAR Ecaron
ENCODING 282
SWIDTH 667 0
DWIDTH 13 0
BBX 10 18 2 0
BITMAP
3300
1E00
0C00
0000
FFC0
FFC0
C000
C000
C000
C000
FF80
FF80
C000
C000
C000
C000
FFC0
FFC0
ENDCHAR
STARTCHAR ecaron
ENCODING 283
SWIDTH 556 0
DWIDTH 10 0
BBX 8 14 1 0
BITMAP
66
3C
18
00
3C
7E
C3
C3
FF
C0
C0
E3
7F
3C
ENDCHAR
STARTCHAR Gcircumflex
ENCODING 284
SWIDTH 778 0
DWIDTH 15 0
BBX 13 18 1 0
BITMAP
0300
0780
0CC0
0000
0FC0
3FF0
7038
6018
E018
C000
C000
C0F8
C0F8
E018
6018
7038
3FF8
0FD8
ENDCHAR
STARTCHAR gcircumflex
ENCODING 285
SWIDTH 556 0
DWIDTH 11 0
BBX 9 18 1 -4
BITMAP
0C00
1E00
3300
0000
3D80
7F80
6180
C180
C180
C180
C180
6380
7F80
3D80
0180
6300
7F00
1C00
ENDCHAR
STARTCHAR Gbreve
ENCODING 286
SWIDTH 778 0
DWIDTH 15 0
BBX 13 18 1 0
BITMAP
0840
0CC0
0780
0000
0FC0
3FF0
7038
6018
E018
C000
C000
C0F8
C0F8
E018
6018
7038
3FF8
0FD8
ENDCHAR
STARTCHAR gbreve
ENCODING 287
SWIDTH 556 0
DWIDTH 11 0
BBX 9 18 1 -4
BITMAP
2100
3300
1E00
0000
3D80
7F80
6180
C180
C180
C180
C180
6380
7F80
3D80
0180
6300
7F00
1C00
ENDCHAR
STARTCHAR Gdotaccent
ENCODING 288
SWIDTH 778 0
DWIDTH 15 0
BBX 13 17 1 0
BITMAP
0300
0300
0000
0FC0
3FF0
7038
6018
E018
C000
C000
C0F8
C0F8
E018
6018
7038
3FF8
0FD8
ENDCHAR
STARTCHAR gdotaccent
ENCODING 289
SWIDTH 556 0
DWIDTH 11 0
BBX 9 17 1 -4
BITMAP
0C00
0C00
0000
3D80
7F80
6180
C180
C180
C180
C180
6380
7F80
3D80
0180
6300
7F00
1C00
ENDCHAR
STARTCHAR Gcommaaccent
ENCODING 290
SWIDTH 778 0
DWIDTH 15 0
BBX 13 20 1 -6
BITMAP
0FC0
3FF0
7038
6018
E018
C000
C000
C0F8
C0F8
E018
6018
7038
3FF8
0FD8
0000
0300
0300
0100
0100
0200
ENDCHAR
STARTCHAR gcommaaccent
ENCODING 291
SWIDTH 556 0
DWIDTH 11 0
BBX 9 20 1 -4
BITMAP
0400
0800
0800
0C00
0C00
0000
3D80
7F80
6180
C180
C180
C180
C180
6380
7F80
3D80
0180
6300
7F00
1C00
ENDCHAR
STARTCHAR Hcircumflex
ENCODING 292
SWIDTH 722 0
DWIDTH 14 0
BBX 11 18 1 0
BITMAP
0600
0F00
1980
0000
C060
C060
C060
C060
C060
C060
FFE0
FFE0
C060
C060
C060
C060
C060
C060
ENDCHAR
STARTCHAR hcircumflex
ENCODING 293
SWIDTH 556 0
DWIDTH 10 0
BBX 9 18 0 0
BITMAP
3000
7800
CC00
0000
6000
6000
6000
6000
6F00
7F80
7180
6180
6180
6180
6180
6180
6180
6180
ENDCHAR
STARTCHAR Hbar
ENCODING 294
SWIDTH 722 0
DWIDTH 14 0
BBX 11 14 1 0
BITMAP
C060
C060
C060
FFE0
FFE0
C060
FFE0
FFE0
C060
C060
C060
C060
C060
C060
ENDCHAR
STARTCHAR hbar
ENCODING 295
SWIDTH 556 0
DWIDTH 10 0
BBX 9 14 0 0
BITMAP
6000
6000
FC00
FC00
6F00
7F80
7180
6180
6180
6180
6180
6180
6180
6180
ENDCHAR
STARTCHAR Itilde
ENCODING 296
SWIDTH 278 0
DWIDTH 6 0
BBX 6 18 0 0
BITMAP
64
B4
98
00
30
30
30
30
30
30
30
30
30
30
30
30
30
30
ENDCHAR
STARTCHAR itilde
ENCODING 297
SWIDTH 278 0
DWIDTH 4 0
BBX 6 14 -1 0
BITMAP
64
B4
98
00
30
30
30
30
30
30
30
30
30
30
ENDCHAR
STARTCHAR Imacron
ENCODING 298
SWIDTH 278 0
DWIDTH 6 0
BBX 5 16 1 0
BITMAP
F8
00
60
60
60
60
60
60
60
60
60
60
60
60
60
60
ENDCHAR
STARTCHAR imacron
ENCODING 299
SWIDTH 278 0
DWIDTH 4 0
BBX 5 12 0 0
BITMAP
F8
00
60
60
60
60
60
60
60
60
60
60
ENDCHAR
STARTCHAR Ibreve
ENCODING 300
SWIDTH 278 0
DWIDTH 6 0
BBX 6 18 0 0
BITMAP
84
CC
78
00
30
30
30
30
30
30
30
30
30
30
30
30
30
30
ENDCHAR
STARTCHAR ibreve
ENCODING 301
SWIDTH 278 0
DWIDTH 4 0
BBX 6 14 -1 0
BITMAP
84
CC
78
00
30
30
30
30
30
30
30
30
30
30
ENDCHAR
STARTCHAR Iogonek
ENCODING 302
SWIDTH 278 0
DWIDTH 6 0
BBX 4 18 1 -4
BITMAP
60
60
60
60
60
60
60
60
60
60
60
60
60
70
60
C0
C0
70
ENDCHAR
STARTCHAR iogonek
ENCODING 303
SWIDTH 222 0
DWIDTH 4 0
BBX 4 18 0 -4
BITMAP
60
60
00
00
60
60
60
60
60
60
60
60
60
70
60
C0
C0
70
ENDCHAR
STARTCHAR Idotaccent
ENCODING 304
SWIDTH 278 0
DWIDTH 6 0
BBX 2 17 2 0
BITMAP
C0
C0
00
C0
C0
C0
C0
C0
C0
C0
C0
C0
C0
C0
C0
C0
C0
ENDCHAR
STARTCHAR dotlessi
ENCODING 305
SWIDTH 278 0
DWIDTH 4 0
BBX 2 10 1 0
BITMAP
C0
C0
C0
C0
C0
C0
C0
C0
C0
C0
ENDCHAR
STARTCHAR IJ
ENCODING 306
SWIDTH 764 0
DWIDTH 16 0
BBX 12 14 2 0
BITMAP
C030
C030
C030
C030
C030
C030
C030
C030
C030
CC30
CC30
CE70
C7E0
C3C0
ENDCHAR
STARTCHAR ij
ENCODING 307
SWIDTH 433 0
DWIDTH 8 0
BBX 6 18 1 -4
BITMAP
CC
CC
00
00
CC
CC
CC
CC
CC
CC
CC
CC
CC
CC
0C
0C
3C
38
ENDCHAR
STARTCHAR Jcircumflex
ENCODING 308
SWIDTH 500 0
DWIDTH 10 0
BBX 9 18 0 0
BITMAP
0600
0F00
1980
0000
0300
0300
0300
0300
0300
0300
0300
0300
0300
C300
C300
E700
7E00
3C00
ENDCHAR
STARTCHAR jcircumflex
ENCODING 309
SWIDTH 222 0
DWIDTH 4 0
BBX 6 18 -1 -4
BITMAP
30
78
CC
00
30
30
30
30
30
30
30
30
30
30
30
30
F0
E0
ENDCHAR
STARTCHAR Kcommaaccent
ENCODING 310
SWIDTH 667 0
DWIDTH 13 0
BBX 12 20 2 -6
BITMAP
C0E0
C1C0
C380
C700
CE00
DC00
F800
FC00
CE00
C700
C380
C1C0
C0E0
C070
0000
0600
0600
0200
0200
0400
ENDCHAR
STARTCHAR kcommaaccent
ENCODING 311
SWIDTH 500 0
DWIDTH 9 0
BBX 8 20 1 -6
BITMAP
C0
C0
C0
C0
C6
CC
D8
F0
F8
D8
CC
CE
C6
C7
00
18
18
08
08
10
ENDCHAR
STARTCHAR kgreenlandic
ENCODING 312
SWIDTH 500 0
DWIDTH 9 0
BBX 8 10 1 0
BITMAP
C6
CC
D8
F0
F8
D8
CC
CE
C6
C7
ENDCHAR
STARTCHAR Lacute
ENCODING 313
SWIDTH 556 0
DWIDTH 11 0
BBX 9 18 1 0
BITMAP
1800
3000
6000
0000
C000
C000
C000
C000
C000
C000
C000
C000
C000
C000
C000
C000
FF80
FF80
ENDCHAR
STARTCHAR lacute
ENCODING 314
SWIDTH 222 0
DWIDTH 4 0
BBX 4 18 1 0
BITMAP
30
60
C0
00
C0
C0
C0
C0
C0
C0
C0
C0
C0
C0
C0
C0
C0
C0
ENDCHAR
STARTCHAR Lcommaaccent
ENCODING 315
SWIDTH 556 0
DWIDTH 11 0
BBX 9 20 1 -6
BITMAP
C000
C000
C000
C000
C000
C000
C000
C000
C000
C000
C000
C000
FF80
FF80
0000
1800
1800
0800
0800
1000
ENDCHAR
STARTCHAR lcommaaccent
ENCODING 316
SWIDTH 222 0
DWIDTH 4 0
BBX 2 20 1 -6
BITMAP
C0
C0
C0
C0
C0
C0
C0
C0
C0
C0
C0
C0
C0
C0
00
C0
C0
40
40
80
ENDCHAR
STARTCHAR Lcaron
ENCODING 317
SWIDTH 750 0
DWIDTH 14 0
BBX 12 14 1 0
BITMAP
C030
C030
C010
C010
C020
C000
C000
C000
C000
C000
C000
C000
FF80
FF80
ENDCHAR
STARTCHAR lcaron
ENCODING 318
SWIDTH 433 0
DWIDTH 8 0
BBX 6 14 1 0
BITMAP
CC
CC
C4
C4
C8
C0
C0
C0
C0
C0
C0
C0
C0
C0
ENDCHAR
STARTCHAR Ldot
ENCODING 319
SWIDTH 806 0
DWIDTH 14 0
BBX 12 14 1 0
BITMAP
C000
C000
C000
C000
C000
C000
C000
C000
C030
C030
C000
C000
FF80
FF80
ENDCHAR
STARTCHAR ldot
ENCODING 320
SWIDTH 489 0
DWIDTH 8 0
BBX 6 14 1 0
BITMAP
C0
C0
C0
C0
C0
C0
C0
C0
CC
CC
C0
C0
C0
C0
ENDCHAR
STARTCHAR Lslash
ENCODING 321
SWIDTH 556 0
DWIDTH 11 0
BBX 10 14 0 0
BITMAP
6000
6000
6000
6000
6C00
7C00
F000
E000
6000
6000
6000
6000
7FC0
7FC0
ENDCHAR
STARTCHAR lslash
ENCODING 322
SWIDTH 222 0
DWIDTH 4 0
BBX 4 14 0 0
BITMAP
60
60
60
60
60
70
F0
E0
60
60
60
60
60
60
ENDCHAR
STARTCHAR Nacute
ENCODING 323
SWIDTH 722 0
DWIDTH 14 0
BBX 11 18 1 0
BITMAP
0300
0600
0C00
0000
C060
E060
F060
F060
D860
CC60
CC60
C660
C660
C360
C1E0
C1E0
C0E0
C060
ENDCHAR
STARTCHAR nacute
ENCODING 324
SWIDTH 556 0
DWIDTH 10 0
BBX 8 14 1 0
BITMAP
06
0C
18
00
DE
FF
E3
C3
C3
C3
C3
C3
C3
C3
ENDCHAR
STARTCHAR Ncommaaccent
ENCODING 325
SWIDTH 722 0
DWIDTH 14 0
BBX 11 20 1 -6
BITMAP
C060
E060
F060
F060
D860
CC60
CC60
C660
C660
C360
C1E0
C1E0
C0E0
C060
0000
0600
0600
0200
0200
0400
ENDCHAR
STARTCHAR ncommaaccent
ENCODING 326
SWIDTH 556 0
DWIDTH 10 0
BBX 8 16 1 -6
BITMAP
DE
FF
E3
C3
C3
C3
C3
C3
C3
C3
00
18
18
08
08
10
ENDCHAR
STARTCHAR Ncaron
ENCODING 327
SWIDTH 722 0
DWIDTH 14 0
BBX 11 18 1 0
BITMAP
3300
1E00
0C00
0000
C060
E060
F060
F060
D860
CC60
CC60
C660
C660
C360
C1E0
C1E0
C0E0
C060
ENDCHAR
STARTCHAR ncaron
ENCODING 328
SWIDTH 556 0
DWIDTH 10 0
BBX 8 14 1 0
BITMAP
66
3C
18
00
DE
FF
E3
C3
C3
C3
C3
C3
C3
C3
ENDCHAR
STARTCHAR napostrophe
ENCODING 329
SWIDTH 767 0
DWIDTH 14 0
BBX 12 14 1 0
BITMAP
C000
C000
4000
4000
8DE0
0FF0
0E30
0C30
0C30
0C30
0C30
0C30
0C30
0C30
ENDCHAR
STARTCHAR Eng
ENCODING 330
SWIDTH 722 0
DWIDTH 14 0
BBX 11 18 1 -4
BITMAP
C060
E060
F060
F060
D860
CC60
CC60
C660
C660
C360
C1E0
C1E0
C0E0
C060
0060
0060
01E0
01C0
ENDCHAR
STARTCHAR eng
ENCODING 331
SWIDTH 556 0
DWIDTH 10 0
BBX 8 14 1 -4
BITMAP
DE
FF
E3
C3
C3
C3
C3
C3
C3
C3
03
03
0F
0E
ENDCHAR
STARTCHAR Omacron
ENCODING 332
SWIDTH 778 0
DWIDTH 15 0
BBX 13 16 1 0
BITMAP
0F80
0000
0F80
3FE0
7070
6030
E038
C018
C018
C018
C018
E038
6030
7070
3FE0
0F80
ENDCHAR
STARTCHAR omacron
ENCODING 333
SWIDTH 556 0
DWIDTH 11 0
BBX 9 12 1 0
BITMAP
3E00
0000
3E00
7F00
6300
C180
C180
C180
C180
6300
7F00
3E00
ENDCHAR
STARTCHAR Obreve
ENCODING 334
SWIDTH 778 0
DWIDTH 15 0
BBX 13 18 1 0
BITMAP
0840
0CC0
0780
0000
0F80
3FE0
7070
6030
E038
C018
C018
C018
C018
E038
6030
7070
3FE0
0F80
ENDCHAR
STARTCHAR obreve
ENCODING 335
SWIDTH 556 0
DWIDTH 11 0
BBX 9 14 1 0
BITMAP
2100
3300
1E00
0000
3E00
7F00
6300
C180
C180
C180
C180
6300
7F00
3E00
ENDCHAR
STARTCHAR Ohungarumlaut
ENCODING 336
SWIDTH 778 0
DWIDTH 15 0
BBX 13 18 1 0
BITMAP
0360
06C0
0D80
0000
0F80
3FE0
7070
6030
E038
C018
C018
C018
C018
E038
6030
7070
3FE0
0F80
ENDCHAR
STARTCHAR ohungarumlaut
ENCODING 337
SWIDTH 556 0
DWIDTH 11 0
BBX 9 14 1 0
BITMAP
0D80
1B00
3600
0000
3E00
7F00
6300
C180
C180
C180
C180
6300
7F00
3E00
ENDCHAR
STARTCHAR OE
ENCODING 338
SWIDTH 1000 0
DWIDTH 19 0
BBX 17 14 1 0
BITMAP
0EFF80
3FFF80
71C000
60C000
E0C000
C0C000
C0FF00
C0FF00
C0C000
E0C000
60C000
71C000
3FFF80
0EFF80
ENDCHAR
STARTCHAR oe
ENCODING 339
SWIDTH 944 0
DWIDTH 18 0
BBX 15 10 2 0
BITMAP
3E78
7FFC
6386
C186
C1FE
C180
C180
63C6
7FFE
3E78
ENDCHAR
STARTCHAR Racute
ENCODING 340
SWIDTH 722 0
DWIDTH 14 0
BBX 11 18 1 0
BITMAP
0300
0600
0C00
0000
FF80
FFC0
C0E0
C060
C060
C0E0
FFC0
FF80
C0C0
C0C0
C060
C060
C060
C060
ENDCHAR
STARTCHAR racute
ENCODING 341
SWIDTH 333 0
DWIDTH 6 0
BBX 5 14 1 0
BITMAP
18
30
60
00
D8
D8
E0
C0
C0
C0
C0
C0
C0
C0
ENDCHAR
STARTCHAR Rcommaaccent
ENCODING 342
SWIDTH 722 0
DWIDTH 14 0
BBX 11 20 1 -6
BITMAP
FF80
FFC0
C0E0
C060
C060
C0E0
FFC0
FF80
C0C0
C0C0
C060
C060
C060
C060
0000
0600
0600
0200
0200
0400
ENDCHAR
STARTCHAR rcommaaccent
ENCODING 343
SWIDTH 333 0
DWIDTH 6 0
BBX 5 16 1 -6
BITMAP
D8
D8
E0
C0
C0
C0
C0
C0
C0
C0
00
60
60
20
20
40
ENDCHAR
STARTCHAR Rcaron
ENCODING 344
SWIDTH 722 0
DWIDTH 14 0
BBX 11 18 1 0
BITMAP
3300
1E00
0C00
0000
FF80
FFC0
C0E0
C060
C060
C0E0
FFC0
FF80
C0C0
C0C0
C060
C060
C060
C060
ENDCHAR
STARTCHAR rcaron
ENCODING 345
SWIDTH 333 0
DWIDTH 6 0
BBX 6 14 0 0
BITMAP
CC
78
30
00
6C
6C
70
60
60
60
60
60
60
60
ENDCHAR
STARTCHAR Sacute
ENCODING 346
SWIDTH 667 0
DWIDTH 13 0
BBX 10 18 1 0
BITMAP
0300
0600
0C00
0000
1E00
7F80
E1C0
C0C0
E000
7C00
1F00
0380
01C0
00C0
C0C0
E1C0
7F80
3F00
ENDCHAR
STARTCHAR sacute
ENCODING 347
SWIDTH 500 0
DWIDTH 9 0
BBX 7 14 1 0
BITMAP
0C
18
30
00
3C
7E
C6
C0
FC
3E
06
C6
FC
78
ENDCHAR
STARTCHAR Scircumflex
ENCODING 348
SWIDTH 667 0
DWIDTH 13 0
BBX 10 18 1 0
BITMAP
0C00
1E00
3300
0000
1E00
7F80
E1C0
C0C0
E000
7C00
1F00
0380
01C0
00C0
C0C0
E1C0
7F80
3F00
ENDCHAR
STARTCHAR scircumflex
ENCODING 349
SWIDTH 500 0
DWIDTH 9 0
BBX 7 14 1 0
BITMAP
18
3C
66
00
3C
7E
C6
C0
FC
3E
06
C6
FC
78
ENDCHAR
STARTCHAR Scedilla
ENCODING 350
SWIDTH 667 0
DWIDTH 13 0
BBX 10 18 1 -4
BITMAP
1E00
7F80
E1C0
C0C0
E000
7C00
1F00
0380
01C0
00C0
C0C0
E1C0
7F80
3F00
0E00
0300
1B00
1E00
ENDCHAR
STARTCHAR scedilla
ENCODING 351
SWIDTH 500 0
DWIDTH 9 0
BBX 7 14 1 -4
BITMAP
3C
7E
C6
C0
FC
3E
06
C6
FC
78
38
0C
6C
78
ENDCHAR
STARTCHAR Scaron
ENCODING 352
SWIDTH 667 0
DWIDTH 13 0
BBX 11 14 1 0
BITMAP
3300
1E00
0C00
0000
1F00
7FC0
E0E0
E000
7FC0
3FE0
00E0
E0E0
7FC0
3F00
ENDCHAR
STARTCHAR scaron
ENCODING 353
SWIDTH 500 0
DWIDTH 9 0
BBX 7 14 1 0
BITMAP
CC
78
30
00
3C
7E
C6
C0
FC
3E
06
C6
FC
78
ENDCHAR
STARTCHAR Tcommaaccent
ENCODING 354
SWIDTH 611 0
DWIDTH 12 0
BBX 10 18 1 -4
BITMAP
FFC0
FFC0
0C00
0C00
0C00
0C00
0C00
0C00
0C00
0C00
0C00
0C00
0C00
0C00
0E00
0300
1B00
1E00
ENDCHAR
STARTCHAR tcommaaccent
ENCODING 355
SWIDTH 278 0
DWIDTH 6 0
BBX 6 17 0 -4
BITMAP
30
30
30
FC
FC
30
30
30
30
30
30
3C
3C
38
0C
6C
78
ENDCHAR
STARTCHAR Tcaron
ENCODING 356
SWIDTH 611 0
DWIDTH 12 0
BBX 10 18 1 0
BITMAP
3300
1E00
0C00
0000
FFC0
FFC0
0C00
0C00
0C00
0C00
0C00
0C00
0C00
0C00
0C00
0C00
0C00
0C00
ENDCHAR
STARTCHAR tcaron
ENCODING 357
SWIDTH 486 0
DWIDTH 10 0
BBX 9 14 0 0
BITMAP
0180
3180
3080
3080
FD00
FC00
3000
3000
3000
3000
3000
3000
3C00
1C00
ENDCHAR
STARTCHAR Tbar
ENCODING 358
SWIDTH 611 0
DWIDTH 12 0
BBX 10 14 1 0
BITMAP
FFC0
FFC0
0C00
0C00
0C00
0C00
3F00
3F00
0C00
0C00
0C00
0C00
0C00
0C00
ENDCHAR
STARTCHAR tbar
ENCODING 359
SWIDTH 278 0
DWIDTH 6 0
BBX 6 13 0 0
BITMAP
30
30
30
FC
FC
30
30
FC
FC
30
30
3C
1C
ENDCHAR
STARTCHAR Utilde
ENCODING 360
SWIDTH 722 0
DWIDTH 14 0
BBX 11 18 1 0
BITMAP
0C80
1680
1300
0000
C060
C060
C060
C060
C060
C060
C060
C060
C060
C060
C060
60C0
7FC0
1F00
ENDCHAR
STARTCHAR utilde
ENCODING 361
SWIDTH 556 0
DWIDTH 10 0
BBX 8 14 1 0
BITMAP
32
5A
4C
00
C3
C3
C3
C3
C3
C3
C3
C7
FF
7B
ENDCHAR
STARTCHAR Umacron
ENCODING 362
SWIDTH 722 0
DWIDTH 14 0
BBX 11 16 1 0
BITMAP
1F00
0000
C060
C060
C060
C060
C060
C060
C060
C060
C060
C060
C060
60C0
7FC0
1F00
ENDCHAR
STARTCHAR umacron
ENCODING 363
SWIDTH 556 0
DWIDTH 10 0
BBX 8 12 1 0
BITMAP
3E
00
C3
C3
C3
C3
C3
C3
C3
C7
FF
7B
ENDCHAR
STARTCHAR Ubreve
ENCODING 364
SWIDTH 722 0
DWIDTH 14 0
BBX 11 18 1 0
BITMAP
1080
1980
0F00
0000
C060
C060
C060
C060
C060
C060
C060
C060
C060
C060
C060
60C0
7FC0
1F00
ENDCHAR
STARTCHAR ubreve
ENCODING 365
SWIDTH 556 0
DWIDTH 10 0
BBX 8 14 1 0
BITMAP
42
66
3C
00
C3
C3
C3
C3
C3
C3
C3
C7
FF
7B
ENDCHAR
STARTCHAR Uring
ENCODING 366
SWIDTH 722 0
DWIDTH 14 0
BBX 11 19 1 0
BITMAP
0E00
1B00
1B00
0E00
0000
C060
C060
C060
C060
C060
C060
C060
C060
C060
C060
C060
60C0
7FC0
1F00
ENDCHAR
STARTCHAR uring
ENCODING 367
SWIDTH 556 0
DWIDTH 10 0
BBX 8 15 1 0
BITMAP
1C
36
36
1C
00
C3
C3
C3
C3
C3
C3
C3
C7
FF
7B
ENDCHAR
STARTCHAR Uhungarumlaut
ENCODING 368
SWIDTH 722 0
DWIDTH 14 0
BBX 11 18 1 0
BITMAP
06C0
0D80
1B00
0000
C060
C060
C060
C060
C060
C060
C060
C060
C060
C060
C060
60C0
7FC0
1F00
ENDCHAR
STARTCHAR uhungarumlaut
ENCODING 369
SWIDTH 556 0
DWIDTH 10 0
BBX 8 14 1 0
BITMAP
1B
36
6C
00
C3
C3
C3
C3
C3
C3
C3
C7
FF
7B
ENDCHAR
STARTCHAR Uogonek
ENCODING 370
SWIDTH 722 0
DWIDTH 14 0
BBX 11 18 1 -4
BITMAP
C060
C060
C060
C060
C060
C060
C060
C060
C060
C060
C060
60C0
7FC0
1F00
0C00
1800
1800
0E00
ENDCHAR
STARTCHAR uogonek
ENCODING 371
SWIDTH 556 0
DWIDTH 10 0
BBX 8 14 1 -4
BITMAP
C3
C3
C3
C3
C3
C3
C3
C7
FF
7F
18
30
30
1C
ENDCHAR
STARTCHAR Wcircumflex
ENCODING 372
SWIDTH 944 0
DWIDTH 18 0
BBX 16 18 1 0
BITMAP
0180
03C0
0660
0000
C183
C183
C183
C3C3
63C6
6246
6666
6666
366C
366C
342C
1C38
1818
1818
ENDCHAR
STARTCHAR wcircumflex
ENCODING 373
SWIDTH 722 0
DWIDTH 14 0
BBX 12 14 1 0
BITMAP
0600
0F00
1980
0000
C630
C630
C630
6660
6660
6960
2940
39C0
1980
1980
ENDCHAR
STARTCHAR Ycircumflex
ENCODING 374
SWIDTH 667 0
DWIDTH 13 0
BBX 12 18 0 0
BITMAP
0600
0F00
1980
0000
C030
C030
6060
6060
30C0
39C0
1980
0F00
0600
0600
0600
0600
0600
0600
ENDCHAR
STARTCHAR ycircumflex
ENCODING 375
SWIDTH 500 0
DWIDTH 10 0
BBX 8 18 1 -4
BITMAP
18
3C
66
00
C3
C3
C3
66
66
66
24
3C
18
18
18
18
70
70
ENDCHAR
STARTCHAR Ydieresis
ENCODING 376
SWIDTH 667 0
DWIDTH 14 0
BBX 12 14 1 0
BITMAP
1B00
1B00
0000
0000
C030
6060
30C0
1980
0F00
0600
0600
0600
0600
0600
ENDCHAR
STARTCHAR Zacute
ENCODING 377
SWIDTH 611 0
DWIDTH 12 0
BBX 10 18 1 0
BITMAP
0300
0600
0C00
0000
FFC0
FFC0
00C0
0180
0300
0600
0C00
1C00
1800
3000
6000
C000
FFC0
FFC0
ENDCHAR
STARTCHAR zacute
ENCODING 378
SWIDTH 500 0
DWIDTH 9 0
BBX 7 14 1 0
BITMAP
0C
18
30
00
FE
FE
06
0C
18
30
60
C0
FE
FE
ENDCHAR
STARTCHAR Zdotaccent
ENCODING 379
SWIDTH 611 0
DWIDTH 12 0
BBX 10 17 1 0
BITMAP
0C00
0C00
0000
FFC0
FFC0
00C0
0180
0300
0600
0C00
1C00
1800
3000
6000
C000
FFC0
FFC0
ENDCHAR
STARTCHAR zdotaccent
ENCODING 380
SWIDTH 500 0
DWIDTH 9 0
BBX 7 13 1 0
BITMAP
18
18
00
FE
FE
06
0C
18
30
60
C0
FE
FE
ENDCHAR
STARTCHAR Zcaron
ENCODING 381
SWIDTH 611 0
DWIDTH 12 0
BBX 10 14 1 0
BITMAP
3300
1E00
0C00
0000
FFC0
FF80
0700
0C00
1800
3000
6000
C000
FFC0
FFC0
ENDCHAR
STARTCHAR zcaron
ENCODING 382
SWIDTH 500 0
DWIDTH 9 0
BBX 7 14 1 0
BITMAP
CC
78
30
00
FE
FE
06
0C
18
30
60
C0
FE
FE
ENDCHAR
STARTCHAR uni0186
ENCODING 390
SWIDTH 722 0
DWIDTH 14 0
BBX 12 14 1 0
BITMAP
1F00
7FC0
E0E0
C060
0070
0030
0030
0030
0030
0070
C060
E0E0
7FC0
1F00
ENDCHAR
STARTCHAR uni0189
ENCODING 393
SWIDTH 722 0
DWIDTH 14 0
BBX 14 14 -1 0
BITMAP
3FE0
3FF0
3038
3018
300C
300C
FE0C
FE0C
300C
300C
3018
3038
3FF0
3FE0
ENDCHAR
STARTCHAR uni018E
ENCODING 398
SWIDTH 667 0
DWIDTH 13 0
BBX 10 14 2 0
BITMAP
FFC0
FFC0
00C0
00C0
00C0
00C0
7FC0
7FC0
00C0
00C0
00C0
00C0
FFC0
FFC0
ENDCHAR
STARTCHAR florin
ENCODING 402
SWIDTH 556 0
DWIDTH 10 0
BBX 9 17 0 -4
BITMAP
0380
0780
0C00
0C00
7F00
7F00
1800
1800
1800
1800
1800
1800
3000
3000
3000
E000
C000
ENDCHAR
STARTCHAR uni0197
ENCODING 407
SWIDTH 278 0
DWIDTH 6 0
BBX 6 14 0 0
BITMAP
30
30
30
30
30
30
FC
FC
30
30
30
30
30
30
ENDCHAR
STARTCHAR uni019A
ENCODING 410
SWIDTH 222 0
DWIDTH 4 0
BBX 6 14 -1 0
BITMAP
30
30
30
30
30
30
FC
FC
30
30
30
30
30
30
ENDCHAR
STARTCHAR uni019D
ENCODING 413
SWIDTH 722 0
DWIDTH 14 0
BBX 13 18 -1 -4
BITMAP
3018
3818
3C18
3C18
3618
3318
3318
3198
3198
30D8
3078
3078
3038
3018
3000
3000
F000
E000
ENDCHAR
STARTCHAR uni019F
ENCODING 415
SWIDTH 778 0
DWIDTH 15 0
BBX 13 14 1 0
BITMAP
0F80
3FE0
7070
6030
E038
C018
FFF8
FFF8
C018
E038
6030
7070
3FE0
0F80
ENDCHAR
STARTCHAR Ohorn
ENCODING 416
SWIDTH 778 0
DWIDTH 15 0
BBX 14 14 1 0
BITMAP
0F8C
3FEC
7074
6034
E038
C018
C018
C018
C018
E038
6030
7070
3FE0
0F80
ENDCHAR
STARTCHAR ohorn
ENCODING 417
SWIDTH 556 0
DWIDTH 11 0
BBX 10 10 1 0
BITMAP
3EC0
7FC0
6340
C1C0
C180
C180
C180
6300
7F00
3E00
ENDCHAR
STARTCHAR uni01A7
ENCODING 423
SWIDTH 667 0
DWIDTH 13 0
BBX 10 14 1 0
BITMAP
1E00
7F80
E1C0
C0C0
01C0
0F80
3E00
7000
E000
C000
C0C0
E1C0
7F80
3F00
ENDCHAR
STARTCHAR uni01A8
ENCODING 424
SWIDTH 500 0
DWIDTH 9 0
BBX 7 10 1 0
BITMAP
78
FC
C6
06
7E
F8
C0
C6
7E
3C
ENDCHAR
STARTCHAR uni01AE
ENCODING 430
SWIDTH 611 0
DWIDTH 12 0
BBX 10 18 1 -4
BITMAP
FFC0
FFC0
0C00
0C00
0C00
0C00
0C00
0C00
0C00
0C00
0C00
0C00
0C00
0C00
0C00
0C00
0F00
0700
ENDCHAR
STARTCHAR Uhorn
ENCODING 431
SWIDTH 722 0
DWIDTH 14 0
BBX 12 14 1 0
BITMAP
C070
C070
C070
C070
C060
C060
C060
C060
C060
C060
C060
60C0
7FC0
1F00
ENDCHAR
STARTCHAR uhorn
ENCODING 432
SWIDTH 556 0
DWIDTH 10 0
BBX 10 10 1 0
BITMAP
C3C0
C3C0
C340
C340
C380
C300
C300
C700
FF00
7B00
ENDCHAR
STARTCHAR uni01B5
ENCODING 437
SWIDTH 611 0
DWIDTH 12 0
BBX 10 14 1 0
BITMAP
FFC0
FFC0
00C0
0180
0300
0600
3F00
3F00
1800
3000
6000
C000
FFC0
FFC0
ENDCHAR
STARTCHAR uni01B6
ENCODING 438
SWIDTH 500 0
DWIDTH 9 0
BBX 7 10 1 0
BITMAP
FE
FE
06
0C
7E
7E
60
C0
FE
FE
ENDCHAR
STARTCHAR uni01BB
ENCODING 443
SWIDTH 556 0
DWIDTH 10 0
BBX 8 13 1 0
BITMAP
3C
FE
C3
03
07
FF
FF
38
70
E0
C0
FF
FF
ENDCHAR
STARTCHAR uni01BC
ENCODING 444
SWIDTH 556 0
DWIDTH 10 0
BBX 8 13 1 0
BITMAP
FE
FE
C0
C0
FC
FE
C7
03
03
C3
C7
FE
7C
ENDCHAR
STARTCHAR uni01C0
ENCODING 448
SWIDTH 260 0
DWIDTH 5 0
BBX 2 18 1 -4
BITMAP
C0
C0
C0
C0
C0
C0
C0
C0
C0
C0
C0
C0
C0
C0
C0
C0
C0
C0
ENDCHAR
STARTCHAR uni01C2
ENCODING 450
SWIDTH 584 0
DWIDTH 11 0
BBX 7 18 2 -4
BITMAP
18
18
18
18
18
18
18
FE
FE
18
FE
FE
18
18
18
18
18
18
ENDCHAR
STARTCHAR uni01C3
ENCODING 451
SWIDTH 278 0
DWIDTH 6 0
BBX 2 14 2 0
BITMAP
C0
C0
C0
C0
C0
C0
C0
C0
80
80
00
00
C0
C0
ENDCHAR
STARTCHAR uni01CD
ENCODING 461
SWIDTH 667 0
DWIDTH 13 0
BBX 12 18 0 0
BITMAP
1980
0F00
0600
0000
0600
0600
0F00
0F00
1980
1980
30C0
30C0
3FC0
7FE0
6060
6060
C030
C030
ENDCHAR
STARTCHAR uni01CE
ENCODING 462
SWIDTH 556 0
DWIDTH 11 0
BBX 9 14 1 0
BITMAP
6600
3C00
1800
0000
7E00
E700
C300
0700
7F00
E300
C300
C300
E780
7980
ENDCHAR
STARTCHAR uni01CF
ENCODING 463
SWIDTH 278 0
DWIDTH 6 0
BBX 6 18 0 0
BITMAP
CC
78
30
00
30
30
30
30
30
30
30
30
30
30
30
30
30
30
ENDCHAR
STARTCHAR uni01D0
ENCODING 464
SWIDTH 278 0
DWIDTH 4 0
BBX 6 14 -1 0
BITMAP
CC
78
30
00
30
30
30
30
30
30
30
30
30
30
ENDCHAR
STARTCHAR uni01D1
ENCODING 465
SWIDTH 778 0
DWIDTH 15 0
BBX 13 18 1 0
BITMAP
0CC0
0780
0300
0000
0F80
3FE0
7070
6030
E038
C018
C018
C018
C018
E038
6030
7070
3FE0
0F80
ENDCHAR
STARTCHAR uni01D2
ENCODING 466
SWIDTH 556 0
DWIDTH 11 0
BBX 9 14 1 0
BITMAP
3300
1E00
0C00
0000
3E00
7F00
6300
C180
C180
C180
C180
6300
7F00
3E00
ENDCHAR
STARTCHAR uni01D3
ENCODING 467
SWIDTH 722 0
DWIDTH 14 0
BBX 11 18 1 0
BITMAP
1980
0F00
0600
0000
C060
C060
C060
C060
C060
C060
C060
C060
C060
C060
C060
60C0
7FC0
1F00
ENDCHAR
STARTCHAR uni01D4
ENCODING 468
SWIDTH 556 0
DWIDTH 10 0
BBX 8 14 1 0
BITMAP
66
3C
18
00
C3
C3
C3
C3
C3
C3
C3
C7
FF
7B
ENDCHAR
STARTCHAR uni01D5
ENCODING 469
SWIDTH 722 0
DWIDTH 14 0
BBX 11 19 1 0
BITMAP
1F00
0000
3180
3180
0000
C060
C060
C060
C060
C060
C060
C060
C060
C060
C060
C060
60C0
7FC0
1F00
ENDCHAR
STARTCHAR uni01D6
ENCODING 470
SWIDTH 556 0
DWIDTH 10 0
BBX 8 16 1 0
BITMAP
3E
00
66
66
00
00
C3
C3
C3
C3
C3
C3
C3
C7
FF
7B
ENDCHAR
STARTCHAR uni01D7
ENCODING 471
SWIDTH 722 0
DWIDTH 14 0
BBX 11 21 1 0
BITMAP
0300
0600
0C00
0000
3180
3180
0000
C060
C060
C060
C060
C060
C060
C060
C060
C060
C060
C060
60C0
7FC0
1F00
ENDCHAR
STARTCHAR uni01D8
ENCODING 472
SWIDTH 556 0
DWIDTH 10 0
BBX 8 18 1 0
BITMAP
06
0C
18
00
66
66
00
00
C3
C3
C3
C3
C3
C3
C3
C7
FF
7B
ENDCHAR
STARTCHAR uni01D9
ENCODING 473
SWIDTH 722 0
DWIDTH 14 0
BBX 11 21 1 0
BITMAP
1980
0F00
0600
0000
3180
3180
0000
C060
C060
C060
C060
C060
C060
C060
C060
C060
C060
C060
60C0
7FC0
1F00
ENDCHAR
STARTCHAR uni01DA
ENCODING 474
SWIDTH 556 0
DWIDTH 10 0
BBX 8 18 1 0
BITMAP
66
3C
18
00
66
66
00
00
C3
C3
C3
C3
C3
C3
C3
C7
FF
7B
ENDCHAR
STARTCHAR uni01DB
ENCODING 475
SWIDTH 722 0
DWIDTH 14 0
BBX 11 21 1 0
BITMAP
1800
0C00
0600
0000
3180
3180
0000
C060
C060
C060
C060
C060
C060
C060
C060
C060
C060
C060
60C0
7FC0
1F00
ENDCHAR
STARTCHAR uni01DC
ENCODING 476
SWIDTH 556 0
DWIDTH 10 0
BBX 8 18 1 0
BITMAP
60
30
18
00
66
66
00
00
C3
C3
C3
C3
C3
C3
C3
C7
FF
7B
ENDCHAR
STARTCHAR uni01DD
ENCODING 477
SWIDTH 556 0
DWIDTH 10 0
BBX 8 10 1 0
BITMAP
3C
FE
C7
03
03
FF
C3
C3
7E
3C
ENDCHAR
STARTCHAR uni01DE
ENCODING 478
SWIDTH 667 0
DWIDTH 13 0
BBX 12 19 0 0
BITMAP
0F80
0000
1980
1980
0000
0600
0600
0F00
0F00
1980
1980
30C0
30C0
3FC0
7FE0
6060
6060
C030
C030
ENDCHAR
STARTCHAR uni01DF
ENCODING 479
SWIDTH 556 0
DWIDTH 11 0
BBX 9 16 1 0
BITMAP
3E00
0000
6600
6600
0000
0000
7E00
E700
C300
0700
7F00
E300
C300
C300
E780
7980
ENDCHAR
STARTCHAR uni01E0
ENCODING 480
SWIDTH 667 0
DWIDTH 13 0
BBX 12 19 0 0
BITMAP
0F80
0000
0600
0600
0000
0600
0600
0F00
0F00
1980
1980
30C0
30C0
3FC0
7FE0
6060
6060
C030
C030
ENDCHAR
STARTCHAR uni01E1
ENCODING 481
SWIDTH 556 0
DWIDTH 11 0
BBX 9 15 1 0
BITMAP
3E00
0000
1800
1800
0000
7E00
E700
C300
0700
7F00
E300
C300
C300
E780
7980
ENDCHAR
STARTCHAR uni01E2
ENCODING 482
SWIDTH 1000 0
DWIDTH 18 0
BBX 16 16 1 0
BITMAP
03E0
0000
07FF
07FF
0D80
0D80
1980
1980
31FE
31FE
3F80
7F80
6180
6180
C1FF
C1FF
ENDCHAR
STARTCHAR uni01E3
ENCODING 483
SWIDTH 889 0
DWIDTH 17 0
BBX 14 12 2 0
BITMAP
0F80
0000
7EF0
E7F8
C30C
070C
7FFC
E300
C300
C38C
E7FC
7AF0
ENDCHAR
STARTCHAR uni01E4
ENCODING 484
SWIDTH 778 0
DWIDTH 15 0
BBX 14 14 1 0
BITMAP
0FC0
3FF0
7038
6018
E018
C000
C000
C0F8
C0F8
E018
60FC
70FC
3FF8
0FD8
ENDCHAR
STARTCHAR uni01E5
ENCODING 485
SWIDTH 556 0
DWIDTH 11 0
BBX 9 14 1 -4
BITMAP
3D80
7F80
6180
C180
C180
C180
C180
6380
7F80
FF80
FF80
6300
7F00
1C00
ENDCHAR
STARTCHAR Gcaron
ENCODING 486
SWIDTH 778 0
DWIDTH 15 0
BBX 13 18 1 0
BITMAP
0CC0
0780
0300
0000
0FC0
3FF0
7038
6018
E018
C000
C000
C0F8
C0F8
E018
6018
7038
3FF8
0FD8
ENDCHAR
STARTCHAR gcaron
ENCODING 487
SWIDTH 556 0
DWIDTH 11 0
BBX 9 18 1 -4
BITMAP
3300
1E00
0C00
0000
3D80
7F80
6180
C180
C180
C180
C180
6380
7F80
3D80
0180
6300
7F00
1C00
ENDCHAR
STARTCHAR uni01E8
ENCODING 488
SWIDTH 667 0
DWIDTH 13 0
BBX 12 18 2 0
BITMAP
3300
1E00
0C00
0000
C0E0
C1C0
C380
C700
CE00
DC00
F800
FC00
CE00
C700
C380
C1C0
C0E0
C070
ENDCHAR
STARTCHAR uni01E9
ENCODING 489
SWIDTH 500 0
DWIDTH 9 0
BBX 9 18 0 0
BITMAP
CC00
7800
3000
0000
6000
6000
6000
6000
6300
6600
6C00
7800
7C00
6C00
6600
6700
6300
6380
ENDCHAR
STARTCHAR uni01EA
ENCODING 490
SWIDTH 778 0
DWIDTH 15 0
BBX 13 18 1 -4
BITMAP
0F80
3FE0
7070
6030
E038
C018
C018
C018
C018
E038
6030
7070
3FE0
0F80
0600
0C00
0C00
0700
ENDCHAR
STARTCHAR uni01EB
ENCODING 491
SWIDTH 556 0
DWIDTH 11 0
BBX 9 14 1 -4
BITMAP
3E00
7F00
6300
C180
C180
C180
C180
6300
7F00
3E00
1800
3000
3000
1C00
ENDCHAR
STARTCHAR uni01EC
ENCODING 492
SWIDTH 778 0
DWIDTH 15 0
BBX 13 20 1 -4
BITMAP
0F80
0000
0F80
3FE0
7070
6030
E038
C018
C018
C018
C018
E038
6030
7070
3FE0
0F80
0600
0C00
0C00
0700
ENDCHAR
STARTCHAR uni01ED
ENCODING 493
SWIDTH 556 0
DWIDTH 11 0
BBX 9 16 1 -4
BITMAP
3E00
0000
3E00
7F00
6300
C180
C180
C180
C180
6300
7F00
3E00
1800
3000
3000
1C00
ENDCHAR
STARTCHAR uni01F0
ENCODING 496
SWIDTH 222 0
DWIDTH 4 0
BBX 6 18 -1 -4
BITMAP
CC
78
30
00
30
30
30
30
30
30
30
30
30
30
30
30
F0
E0
ENDCHAR
STARTCHAR uni01F4
ENCODING 500
SWIDTH 778 0
DWIDTH 15 0
BBX 13 18 1 0
BITMAP
00C0
0180
0300
0000
0FC0
3FF0
7038
6018
E018
C000
C000
C0F8
C0F8
E018
6018
7038
3FF8
0FD8
ENDCHAR
STARTCHAR uni01F5
ENCODING 501
SWIDTH 556 0
DWIDTH 11 0
BBX 9 18 1 -4
BITMAP
0300
0600
0C00
0000
3D80
7F80
6180
C180
C180
C180
C180
6380
7F80
3D80
0180
6300
7F00
1C00
ENDCHAR
STARTCHAR uni01F8
ENCODING 504
SWIDTH 722 0
DWIDTH 14 0
BBX 11 18 1 0
BITMAP
3000
1800
0C00
0000
C060
E060
F060
F060
D860
CC60
CC60
C660
C660
C360
C1E0
C1E0
C0E0
C060
ENDCHAR
STARTCHAR uni01F9
ENCODING 505
SWIDTH 556 0
DWIDTH 10 0
BBX 8 14 1 0
BITMAP
60
30
18
00
DE
FF
E3
C3
C3
C3
C3
C3
C3
C3
ENDCHAR
STARTCHAR Aringacute
ENCODING 506
SWIDTH 667 0
DWIDTH 13 0
BBX 12 21 0 0
BITMAP
0180
0300
0600
0000
0600
0900
0900
0600
0600
0F00
0F00
1980
1980
30C0
30C0
3FC0
7FE0
6060
6060
C030
C030
ENDCHAR
STARTCHAR aringacute
ENCODING 507
SWIDTH 556 0
DWIDTH 11 0
BBX 9 18 1 0
BITMAP
0600
0C00
1800
0000
1800
2400
2400
1800
7E00
E700
C300
0700
7F00
E300
C300
C300
E780
7980
ENDCHAR
STARTCHAR AEacute
ENCODING 508
SWIDTH 1000 0
DWIDTH 18 0
BBX 16 18 1 0
BITMAP
0030
0060
00C0
0000
07FF
07FF
0D80
0D80
1980
1980
31FE
31FE
3F80
7F80
6180
6180
C1FF
C1FF
ENDCHAR
STARTCHAR aeacute
ENCODING 509
SWIDTH 889 0
DWIDTH 17 0
BBX 14 14 2 0
BITMAP
00C0
0180
0300
0000
7EF0
E7F8
C30C
070C
7FFC
E300
C300
C38C
E7FC
7AF0
ENDCHAR
STARTCHAR Oslashacute
ENCODING 510
SWIDTH 778 0
DWIDTH 15 0
BBX 14 18 0 0
BITMAP
00C0
0180
0300
0000
07CC
1FF8
3830
3078
70DC
618C
630C
620C
660C
6C1C
3818
3838
6FF0
C7C0
ENDCHAR
STARTCHAR oslashacute
ENCODING 511
SWIDTH 611 0
DWIDTH 11 0
BBX 11 14 0 0
BITMAP
0180
0300
0600
0000
0E60
3FC0
3180
63C0
66C0
6CC0
78C0
3180
7F80
CE00
ENDCHAR
STARTCHAR uni0200
ENCODING 512
SWIDTH 667 0
DWIDTH 13 0
BBX 12 18 0 0
BITMAP
3600
1B00
0D80
0000
0600
0600
0F00
0F00
1980
1980
30C0
30C0
3FC0
7FE0
6060
6060
C030
C030
ENDCHAR
STARTCHAR uni0201
ENCODING 513
SWIDTH 556 0
DWIDTH 11 0
BBX 9 14 1 0
BITMAP
D800
6C00
3600
0000
7E00
E700
C300
0700
7F00
E300
C300
C300
E780
7980
ENDCHAR
STARTCHAR uni0202
ENCODING 514
SWIDTH 667 0
DWIDTH 13 0
BBX 12 18 0 0
BITMAP
0F00
1980
1080
0000
0600
0600
0F00
0F00
1980
1980
30C0
30C0
3FC0
7FE0
6060
6060
C030
C030
ENDCHAR
STARTCHAR uni0203
ENCODING 515
SWIDTH 556 0
DWIDTH 11 0
BBX 9 14 1 0
BITMAP
3C00
6600
4200
0000
7E00
E700
C300
0700
7F00
E300
C300
C300
E780
7980
ENDCHAR
STARTCHAR uni0204
ENCODING 516
SWIDTH 667 0
DWIDTH 13 0
BBX 10 18 2 0
BITMAP
D800
6C00
3600
0000
FFC0
FFC0
C000
C000
C000
C000
FF80
FF80
C000
C000
C000
C000
FFC0
FFC0
ENDCHAR
STARTCHAR uni0205
ENCODING 517
SWIDTH 556 0
DWIDTH 10 0
BBX 8 14 1 0
BITMAP
D8
6C
36
00
3C
7E
C3
C3
FF
C0
C0
E3
7F
3C
ENDCHAR
STARTCHAR uni0206
ENCODING 518
SWIDTH 667 0
DWIDTH 13 0
BBX 10 18 2 0
BITMAP
1E00
3300
2100
0000
FFC0
FFC0
C000
C000
C000
C000
FF80
FF80
C000
C000
C000
C000
FFC0
FFC0
ENDCHAR
STARTCHAR uni0207
ENCODING 519
SWIDTH 556 0
DWIDTH 10 0
BBX 8 14 1 0
BITMAP
3C
66
42
00
3C
7E
C3
C3
FF
C0
C0
E3
7F
3C
ENDCHAR
STARTCHAR uni0208
ENCODING 520
SWIDTH 278 0
DWIDTH 6 0
BBX 7 18 -1 0
BITMAP
D8
6C
36
00
18
18
18
18
18
18
18
18
18
18
18
18
18
18
ENDCHAR
STARTCHAR uni0209
ENCODING 521
SWIDTH 278 0
DWIDTH 4 0
BBX 7 14 -2 0
BITMAP
D8
6C
36
00
18
18
18
18
18
18
18
18
18
18
ENDCHAR
STARTCHAR uni020A
ENCODING 522
SWIDTH 278 0
DWIDTH 6 0
BBX 6 18 0 0
BITMAP
78
CC
84
00
30
30
30
30
30
30
30
30
30
30
30
30
30
30
ENDCHAR
STARTCHAR uni020B
ENCODING 523
SWIDTH 278 0
DWIDTH 4 0
BBX 6 14 -1 0
BITMAP
78
CC
84
00
30
30
30
30
30
30
30
30
30
30
ENDCHAR
STARTCHAR uni020C
ENCODING 524
SWIDTH 778 0
DWIDTH 15 0
BBX 13 18 1 0
BITMAP
3600
1B00
0D80
0000
0F80
3FE0
7070
6030
E038
C018
C018
C018
C018
E038
6030
7070
3FE0
0F80
ENDCHAR
STARTCHAR uni020D
ENCODING 525
SWIDTH 556 0
DWIDTH 11 0
BBX 9 14 1 0
BITMAP
D800
6C00
3600
0000
3E00
7F00
6300
C180
C180
C180
C180
6300
7F00
3E00
ENDCHAR
STARTCHAR uni020E
ENCODING 526
SWIDTH 778 0
DWIDTH 15 0
BBX 13 18 1 0
BITMAP
0780
0CC0
0840
0000
0F80
3FE0
7070
6030
E038
C018
C018
C018
C018
E038
6030
7070
3FE0
0F80
ENDCHAR
STARTCHAR uni020F
ENCODING 527
SWIDTH 556 0
DWIDTH 11 0
BBX 9 14 1 0
BITMAP
1E00
3300
2100
0000
3E00
7F00
6300
C180
C180
C180
C180
6300
7F00
3E00
ENDCHAR
STARTCHAR uni0210
ENCODING 528
SWIDTH 722 0
DWIDTH 14 0
BBX 11 18 1 0
BITMAP
6C00
3600
1B00
0000
FF80
FFC0
C0E0
C060
C060
C0E0
FFC0
FF80
C0C0
C0C0
C060
C060
C060
C060
ENDCHAR
STARTCHAR uni0211
ENCODING 529
SWIDTH 333 0
DWIDTH 6 0
BBX 7 14 -1 0
BITMAP
D8
6C
36
00
36
36
38
30
30
30
30
30
30
30
ENDCHAR
STARTCHAR uni0212
ENCODING 530
SWIDTH 722 0
DWIDTH 14 0
BBX 11 18 1 0
BITMAP
1E00
3300
2100
0000
FF80
FFC0
C0E0
C060
C060
C0E0
FFC0
FF80
C0C0
C0C0
C060
C060
C060
C060
ENDCHAR
STARTCHAR uni0213
ENCODING 531
SWIDTH 333 0
DWIDTH 6 0
BBX 6 14 0 0
BITMAP
78
CC
84
00
6C
6C
70
60
60
60
60
60
60
60
ENDCHAR
STARTCHAR uni0214
ENCODING 532
SWIDTH 722 0
DWIDTH 14 0
BBX 11 18 1 0
BITMAP
6C00
3600
1B00
0000
C060
C060
C060
C060
C060
C060
C060
C060
C060
C060
C060
60C0
7FC0
1F00
ENDCHAR
STARTCHAR uni0215
ENCODING 533
SWIDTH 556 0
DWIDTH 10 0
BBX 8 14 1 0
BITMAP
D8
6C
36
00
C3
C3
C3
C3
C3
C3
C3
C7
FF
7B
ENDCHAR
STARTCHAR uni0216
ENCODING 534
SWIDTH 722 0
DWIDTH 14 0
BBX 11 18 1 0
BITMAP
0F00
1980
1080
0000
C060
C060
C060
C060
C060
C060
C060
C060
C060
C060
C060
60C0
7FC0
1F00
ENDCHAR
STARTCHAR uni0217
ENCODING 535
SWIDTH 556 0
DWIDTH 10 0
BBX 8 14 1 0
BITMAP
3C
66
42
00
C3
C3
C3
C3
C3
C3
C3
C7
FF
7B
ENDCHAR
STARTCHAR Scommaaccent
ENCODING 536
SWIDTH 667 0
DWIDTH 13 0
BBX 10 20 1 -6
BITMAP
1E00
7F80
E1C0
C0C0
E000
7C00
1F00
0380
01C0
00C0
C0C0
E1C0
7F80
3F00
0000
0C00
0C00
0400
0400
0800
ENDCHAR
STARTCHAR scommaaccent
ENCODING 537
SWIDTH 500 0
DWIDTH 9 0
BBX 7 16 1 -6
BITMAP
3C
7E
C6
C0
FC
3E
06
C6
FC
78
00
30
30
10
10
20
ENDCHAR
STARTCHAR Tcommaaccent
ENCODING 538
SWIDTH 611 0
DWIDTH 12 0
BBX 10 20 1 -6
BITMAP
FFC0
FFC0
0C00
0C00
0C00
0C00
0C00
0C00
0C00
0C00
0C00
0C00
0C00
0C00
0000
0C00
0C00
0400
0400
0800
ENDCHAR
STARTCHAR tcommaaccent
ENCODING 539
SWIDTH 278 0
DWIDTH 6 0
BBX 6 19 0 -6
BITMAP
30
30
30
FC
FC
30
30
30
30
30
30
3C
1C
00
18
18
08
08
10
ENDCHAR
STARTCHAR uni021E
ENCODING 542
SWIDTH 722 0
DWIDTH 14 0
BBX 11 18 1 0
BITMAP
1980
0F00
0600
0000
C060
C060
C060
C060
C060
C060
FFE0
FFE0
C060
C060
C060
C060
C060
C060
ENDCHAR
STARTCHAR uni021F
ENCODING 543
SWIDTH 556 0
DWIDTH 10 0
BBX 9 18 0 0
BITMAP
CC00
7800
3000
0000
6000
6000
6000
6000
6F00
7F80
7180
6180
6180
6180
6180
6180
6180
6180
ENDCHAR
STARTCHAR uni0226
ENCODING 550
SWIDTH 667 0
DWIDTH 13 0
BBX 12 17 0 0
BITMAP
0600
0600
0000
0600
0600
0F00
0F00
1980
1980
30C0
30C0
3FC0
7FE0
6060
6060
C030
C030
ENDCHAR
STARTCHAR uni0227
ENCODING 551
SWIDTH 556 0
DWIDTH 11 0
BBX 9 13 1 0
BITMAP
1800
1800
0000
7E00
E700
C300
0700
7F00
E300
C300
C300
E780
7980
ENDCHAR
STARTCHAR uni0228
ENCODING 552
SWIDTH 667 0
DWIDTH 13 0
BBX 10 18 2 -4
BITMAP
FFC0
FFC0
C000
C000
C000
C000
FF80
FF80
C000
C000
C000
C000
FFC0
FFC0
1C00
0600
3600
3C00
ENDCHAR
STARTCHAR uni0229
ENCODING 553
SWIDTH 556 0
DWIDTH 10 0
BBX 8 14 1 -4
BITMAP
3C
7E
C3
C3
FF
C0
C0
E3
7F
3C
1C
06
36
3C
ENDCHAR
STARTCHAR uni022A
ENCODING 554
SWIDTH 778 0
DWIDTH 15 0
BBX 13 19 1 0
BITMAP
0F80
0000
0CC0
0CC0
0000
0F80
3FE0
7070
6030
E038
C018
C018
C018
C018
E038
6030
7070
3FE0
0F80
ENDCHAR
STARTCHAR uni022B
ENCODING 555
SWIDTH 556 0
DWIDTH 11 0
BBX 9 16 1 0
BITMAP
3E00
0000
3300
3300
0000
0000
3E00
7F00
6300
C180
C180
C180
C180
6300
7F00
3E00
ENDCHAR
STARTCHAR uni022C
ENCODING 556
SWIDTH 778 0
DWIDTH 15 0
BBX 13 20 1 0
BITMAP
0F80
0000
0640
0B40
0980
0000
0F80
3FE0
7070
6030
E038
C018
C018
C018
C018
E038
6030
7070
3FE0
0F80
ENDCHAR
STARTCHAR uni022D
ENCODING 557
SWIDTH 556 0
DWIDTH 11 0
BBX 9 16 1 0
BITMAP
3E00
0000
3200
5A00
4C00
0000
3E00
7F00
6300
C180
C180
C180
C180
6300
7F00
3E00
ENDCHAR
STARTCHAR uni022E
ENCODING 558
SWIDTH 778 0
DWIDTH 15 0
BBX 13 17 1 0
BITMAP
0300
0300
0000
0F80
3FE0
7070
6030
E038
C018
C018
C018
C018
E038
6030
7070
3FE0
0F80
ENDCHAR
STARTCHAR uni022F
ENCODING 559
SWIDTH 556 0
DWIDTH 11 0
BBX 9 13 1 0
BITMAP
0C00
0C00
0000
3E00
7F00
6300
C180
C180
C180
C180
6300
7F00
3E00
ENDCHAR
STARTCHAR uni0230
ENCODING 560
SWIDTH 778 0
DWIDTH 15 0
BBX 13 19 1 0
BITMAP
0F80
0000
0300
0300
0000
0F80
3FE0
7070
6030
E038
C018
C018
C018
C018
E038
6030
7070
3FE0
0F80
ENDCHAR
STARTCHAR uni0231
ENCODING 561
SWIDTH 556 0
DWIDTH 11 0
BBX 9 15 1 0
BITMAP
3E00
0000
0C00
0C00
0000
3E00
7F00
6300
C180
C180
C180
C180
6300
7F00
3E00
ENDCHAR
STARTCHAR uni0232
ENCODING 562
SWIDTH 667 0
DWIDTH 13 0
BBX 12 16 0 0
BITMAP
0F80
0000
C030
C030
6060
6060
30C0
39C0
1980
0F00
0600
0600
0600
0600
0600
0600
ENDCHAR
STARTCHAR uni0233
ENCODING 563
SWIDTH 500 0
DWIDTH 10 0
BBX 8 16 1 -4
BITMAP
3E
00
C3
C3
C3
66
66
66
24
3C
18
18
18
18
70
70
ENDCHAR
STARTCHAR uni0250
ENCODING 592
SWIDTH 556 0
DWIDTH 11 0
BBX 9 10 1 0
BITMAP
CF00
F380
6180
6180
6380
7F00
7000
6180
7380
3F00
ENDCHAR
STARTCHAR uni0254
ENCODING 596
SWIDTH 500 0
DWIDTH 10 0
BBX 8 10 1 0
BITMAP
7C
FE
C6
03
03
03
03
C6
FE
7C
ENDCHAR
STARTCHAR uni0258
ENCODING 600
SWIDTH 556 0
DWIDTH 10 0
BBX 8 10 1 0
BITMAP
3C
7E
C3
C3
FF
03
03
C7
FE
3C
ENDCHAR
STARTCHAR uni0259
ENCODING 601
SWIDTH 556 0
DWIDTH 10 0
BBX 8 10 1 0
BITMAP
3C
FE
C7
03
03
FF
C3
C3
7E
3C
ENDCHAR
STARTCHAR uni025F
ENCODING 607
SWIDTH 278 0
DWIDTH 6 0
BBX 6 14 0 -4
BITMAP
30
30
30
30
30
30
30
30
FC
FC
30
30
F0
E0
ENDCHAR
STARTCHAR uni0265
ENCODING 613
SWIDTH 556 0
DWIDTH 10 0
BBX 8 14 1 -4
BITMAP
C3
C3
C3
C3
C3
C3
C3
C7
FF
7B
03
03
03
03
ENDCHAR
STARTCHAR uni0275
ENCODING 629
SWIDTH 556 0
DWIDTH 11 0
BBX 9 10 1 0
BITMAP
3E00
7F00
6300
C180
FF80
FF80
C180
6300
7F00
3E00
ENDCHAR
STARTCHAR uni0279
ENCODING 633
SWIDTH 333 0
DWIDTH 6 0
BBX 5 10 1 0
BITMAP
18
18
18
18
18
18
18
38
D8
D8
ENDCHAR
STARTCHAR uni0287
ENCODING 647
SWIDTH 278 0
DWIDTH 6 0
BBX 6 13 0 0
BITMAP
E0
F0
30
30
30
30
30
30
FC
FC
30
30
30
ENDCHAR
STARTCHAR uni0288
ENCODING 648
SWIDTH 278 0
DWIDTH 6 0
BBX 6 17 0 -4
BITMAP
30
30
30
FC
FC
30
30
30
30
30
30
30
30
30
30
3C
1C
ENDCHAR
STARTCHAR uni0289
ENCODING 649
SWIDTH 556 0
DWIDTH 10 0
BBX 8 10 1 0
BITMAP
C3
C3
C3
C3
FF
FF
C3
C7
FF
7B
ENDCHAR
STARTCHAR uni028C
ENCODING 652
SWIDTH 500 0
DWIDTH 10 0
BBX 8 10 1 0
BITMAP
18
18
3C
24
66
66
66
C3
C3
C3
ENDCHAR
STARTCHAR uni028D
ENCODING 653
SWIDTH 722 0
DWIDTH 14 0
BBX 12 10 1 0
BITMAP
1980
1980
39C0
2940
6960
6660
6660
C630
C630
C630
ENDCHAR
STARTCHAR uni028E
ENCODING 654
SWIDTH 500 0
DWIDTH 10 0
BBX 8 14 1 0
BITMAP
0E
0E
18
18
18
18
3C
24
66
66
66
C3
C3
C3
ENDCHAR
STARTCHAR uni029E
ENCODING 670
SWIDTH 500 0
DWIDTH 9 0
BBX 8 14 1 -4
BITMAP
E3
63
73
33
1B
1F
0F
1B
33
63
03
03
03
03
ENDCHAR
STARTCHAR uni02BB
ENCODING 699
SWIDTH 222 0
DWIDTH 4 0
BBX 2 5 1 9
BITMAP
40
80
80
C0
C0
ENDCHAR
STARTCHAR afii57929
ENCODING 700
SWIDTH 222 0
DWIDTH 4 0
BBX 2 5 1 9
BITMAP
C0
C0
40
40
80
ENDCHAR
STARTCHAR afii64937
ENCODING 701
SWIDTH 222 0
DWIDTH 4 0
BBX 2 5 1 9
BITMAP
C0
C0
80
80
40
ENDCHAR
STARTCHAR circumflex
ENCODING 710
SWIDTH 333 0
DWIDTH 6 0
BBX 6 3 0 11
BITMAP
30
78
CC
ENDCHAR
STARTCHAR caron
ENCODING 711
SWIDTH 333 0
DWIDTH 6 0
BBX 6 3 0 11
BITMAP
CC
78
30
ENDCHAR
STARTCHAR uni02C8
ENCODING 712
SWIDTH 191 0
DWIDTH 3 0
BBX 1 5 1 9
BITMAP
80
80
80
80
80
ENDCHAR
STARTCHAR macron
ENCODING 713
SWIDTH 333 0
DWIDTH 5 0
BBX 5 1 0 12
BITMAP
F8
ENDCHAR
STARTCHAR uni02CA
ENCODING 714
SWIDTH 333 0
DWIDTH 4 0
BBX 4 3 0 11
BITMAP
30
60
C0
ENDCHAR
STARTCHAR uni02CB
ENCODING 715
SWIDTH 333 0
DWIDTH 4 0
BBX 4 3 0 11
BITMAP
C0
60
30
ENDCHAR
STARTCHAR uni02CD
ENCODING 717
SWIDTH 333 0
DWIDTH 5 0
BBX 5 1 0 -2
BITMAP
F8
ENDCHAR
STARTCHAR uni02CE
ENCODING 718
SWIDTH 333 0
DWIDTH 4 0
BBX 4 3 0 -4
BITMAP
C0
60
30
ENDCHAR
STARTCHAR uni02CF
ENCODING 719
SWIDTH 333 0
DWIDTH 4 0
BBX 4 3 0 -4
BITMAP
30
60
C0
ENDCHAR
STARTCHAR breve
ENCODING 728
SWIDTH 333 0
DWIDTH 6 0
BBX 6 3 0 11
BITMAP
84
CC
78
ENDCHAR
STARTCHAR dotaccent
ENCODING 729
SWIDTH 333 0
DWIDTH 6 0
BBX 2 2 2 12
BITMAP
C0
C0
ENDCHAR
STARTCHAR ring
ENCODING 730
SWIDTH 333 0
DWIDTH 6 0
BBX 5 4 0 10
BITMAP
70
D8
D8
70
ENDCHAR
STARTCHAR ogonek
ENCODING 731
SWIDTH 333 0
DWIDTH 6 0
BBX 4 5 2 -4
BITMAP
30
60
C0
C0
70
ENDCHAR
STARTCHAR tilde
ENCODING 732
SWIDTH 333 0
DWIDTH 6 0
BBX 6 3 0 11
BITMAP
64
B4
98
ENDCHAR
STARTCHAR hungarumlaut
ENCODING 733
SWIDTH 333 0
DWIDTH 5 0
BBX 7 3 -1 11
BITMAP
36
6C
D8
ENDCHAR
STARTCHAR uni02EE
ENCODING 750
SWIDTH 333 0
DWIDTH 7 0
BBX 5 5 1 9
BITMAP
D8
D8
48
48
90
ENDCHAR
STARTCHAR uni037E
ENCODING 894
SWIDTH 278 0
DWIDTH 5 0
BBX 2 13 1 -3
BITMAP
C0
C0
00
00
00
00
00
00
C0
C0
40
40
80
ENDCHAR
STARTCHAR tonos
ENCODING 900
SWIDTH 333 0
DWIDTH 4 0
BBX 4 3 0 11
BITMAP
30
60
C0
ENDCHAR
STARTCHAR dieresistonos
ENCODING 901
SWIDTH 333 0
DWIDTH 6 0
BBX 5 6 0 12
BITMAP
18
30
60
00
D8
D8
ENDCHAR
STARTCHAR anoteleia
ENCODING 903
SWIDTH 278 0
DWIDTH 4 0
BBX 2 2 1 4
BITMAP
C0
C0
ENDCHAR
STARTCHAR mu
ENCODING 956
SWIDTH 556 0
DWIDTH 10 0
BBX 8 14 1 -4
BITMAP
C3
C3
C3
C3
C3
C3
C3
E7
FF
DB
C0
C0
C0
C0
ENDCHAR
STARTCHAR uni1E00
ENCODING 7680
SWIDTH 667 0
DWIDTH 13 0
BBX 12 19 0 -5
BITMAP
0600
0600
0F00
0F00
1980
1980
30C0
30C0
3FC0
7FE0
6060
6060
C030
C030
0000
0700
0D80
0D80
0700
ENDCHAR
STARTCHAR uni1E01
ENCODING 7681
SWIDTH 556 0
DWIDTH 11 0
BBX 9 15 1 -5
BITMAP
7E00
E700
C300
0700
7F00
E300
C300
C300
E780
7980
0000
1C00
3600
3600
1C00
ENDCHAR
STARTCHAR uni1E02
ENCODING 7682
SWIDTH 667 0
DWIDTH 13 0
BBX 11 17 1 0
BITMAP
0C00
0C00
0000
FF00
FF80
C1C0
C0C0
C0C0
C180
FF80
FFC0
C0E0
C060
C060
C0E0
FFC0
FF80
ENDCHAR
STARTCHAR uni1E03
ENCODING 7683
SWIDTH 556 0
DWIDTH 11 0
BBX 9 17 1 0
BITMAP
6000
6000
0000
C000
C000
C000
C000
DE00
FF00
E300
C180
C180
C180
C180
E300
FF00
DE00
ENDCHAR
STARTCHAR uni1E04
ENCODING 7684
SWIDTH 667 0
DWIDTH 13 0
BBX 11 17 1 -3
BITMAP
FF00
FF80
C1C0
C0C0
C0C0
C180
FF80
FFC0
C0E0
C060
C060
C0E0
FFC0
FF80
0000
0C00
0C00
ENDCHAR
STARTCHAR uni1E05
ENCODING 7685
SWIDTH 556 0
DWIDTH 11 0
BBX 9 17 1 -3
BITMAP
C000
C000
C000
C000
DE00
FF00
E300
C180
C180
C180
C180
E300
FF00
DE00
0000
1800
1800
ENDCHAR
STARTCHAR uni1E06
ENCODING 7686
SWIDTH 667 0
DWIDTH 13 0
BBX 11 16 1 -2
BITMAP
FF00
FF80
C1C0
C0C0
C0C0
C180
FF80
FFC0
C0E0
C060
C060
C0E0
FFC0
FF80
0000
1F00
ENDCHAR
STARTCHAR uni1E07
ENCODING 7687
SWIDTH 556 0
DWIDTH 11 0
BBX 9 16 1 -2
BITMAP
C000
C000
C000
C000
DE00
FF00
E300
C180
C180
C180
C180
E300
FF00
DE00
0000
3E00
ENDCHAR
STARTCHAR uni1E08
ENCODING 7688
SWIDTH 722 0
DWIDTH 14 0
BBX 12 22 1 -4
BITMAP
0180
0300
0600
0000
0F80
3FE0
7070
6030
E000
C000
C000
C000
C000
E000
6030
7070
3FE0
0F80
0600
0300
1B00
1E00
ENDCHAR
STARTCHAR uni1E09
ENCODING 7689
SWIDTH 500 0
DWIDTH 10 0
BBX 8 18 1 -4
BITMAP
06
0C
18
00
3E
7F
63
C0
C0
C0
C0
63
7F
3E
18
0C
6C
78
ENDCHAR
STARTCHAR uni1E0A
ENCODING 7690
SWIDTH 722 0
DWIDTH 14 0
BBX 12 17 1 0
BITMAP
0C00
0C00
0000
FF80
FFC0
C0E0
C060
C030
C030
C030
C030
C030
C030
C060
C0E0
FFC0
FF80
ENDCHAR
STARTCHAR uni1E0B
ENCODING 7691
SWIDTH 556 0
DWIDTH 11 0
BBX 9 17 1 0
BITMAP
0300
0300
0000
0180
0180
0180
0180
3D80
7F80
6380
C180
C180
C180
C180
6380
7F80
3D80
ENDCHAR
STARTCHAR uni1E0C
ENCODING 7692
SWIDTH 722 0
DWIDTH 14 0
BBX 12 17 1 -3
BITMAP
FF80
FFC0
C0E0
C060
C030
C030
C030
C030
C030
C030
C060
C0E0
FFC0
FF80
0000
0C00
0C00
ENDCHAR
STARTCHAR uni1E0D
ENCODING 7693
SWIDTH 556 0
DWIDTH 11 0
BBX 9 17 1 -3
BITMAP
0180
0180
0180
0180
3D80
7F80
6380
C180
C180
C180
C180
6380
7F80
3D80
0000
0C00
0C00
ENDCHAR
STARTCHAR uni1E0E
ENCODING 7694
SWIDTH 722 0
DWIDTH 14 0
BBX 12 16 1 -2
BITMAP
FF80
FFC0
C0E0
C060
C030
C030
C030
C030
C030
C030
C060
C0E0
FFC0
FF80
0000
1F00
ENDCHAR
STARTCHAR uni1E0F
ENCODING 7695
SWIDTH 556 0
DWIDTH 11 0
BBX 9 16 1 -2
BITMAP
0180
0180
0180
0180
3D80
7F80
6380
C180
C180
C180
C180
6380
7F80
3D80
0000
3E00
ENDCHAR
STARTCHAR uni1E10
ENCODING 7696
SWIDTH 722 0
DWIDTH 14 0
BBX 12 18 1 -4
BITMAP
FF80
FFC0
C0E0
C060
C030
C030
C030
C030
C030
C030
C060
C0E0
FFC0
FF80
0E00
0300
1B00
1E00
ENDCHAR
STARTCHAR uni1E11
ENCODING 7697
SWIDTH 556 0
DWIDTH 11 0
BBX 9 18 1 -4
BITMAP
0180
0180
0180
0180
3D80
7F80
6380
C180
C180
C180
C180
6380
7F80
3D80
0E00
0300
1B00
1E00
ENDCHAR
STARTCHAR uni1E12
ENCODING 7698
SWIDTH 722 0
DWIDTH 14 0
BBX 12 18 1 -4
BITMAP
FF80
FFC0
C0E0
C060
C030
C030
C030
C030
C030
C030
C060
C0E0
FFC0
FF80
0000
0C00
1E00
3300
ENDCHAR
STARTCHAR uni1E13
ENCODING 7699
SWIDTH 556 0
DWIDTH 11 0
BBX 9 18 1 -4
BITMAP
0180
0180
0180
0180
3D80
7F80
6380
C180
C180
C180
C180
6380
7F80
3D80
0000
0C00
1E00
3300
ENDCHAR
STARTCHAR uni1E14
ENCODING 7700
SWIDTH 667 0
DWIDTH 13 0
BBX 10 20 2 0
BITMAP
3000
1800
0C00
0000
3E00
0000
FFC0
FFC0
C000
C000
C000
C000
FF80
FF80
C000
C000
C000
C000
FFC0
FFC0
ENDCHAR
STARTCHAR uni1E15
ENCODING 7701
SWIDTH 556 0
DWIDTH 10 0
BBX 8 16 1 0
BITMAP
60
30
18
00
3E
00
3C
7E
C3
C3
FF
C0
C0
E3
7F
3C
ENDCHAR
STARTCHAR uni1E16
ENCODING 7702
SWIDTH 667 0
DWIDTH 13 0
BBX 10 20 2 0
BITMAP
0600
0C00
1800
0000
3E00
0000
FFC0
FFC0
C000
C000
C000
C000
FF80
FF80
C000
C000
C000
C000
FFC0
FFC0
ENDCHAR
STARTCHAR uni1E17
ENCODING 7703
SWIDTH 556 0
DWIDTH 10 0
BBX 8 16 1 0
BITMAP
06
0C
18
00
3E
00
3C
7E
C3
C3
FF
C0
C0
E3
7F
3C
ENDCHAR
STARTCHAR uni1E18
ENCODING 7704
SWIDTH 667 0
DWIDTH 13 0
BBX 10 18 2 -4
BITMAP
FFC0
FFC0
C000
C000
C000
C000
FF80
FF80
C000
C000
C000
C000
FFC0
FFC0
0000
0C00
1E00
3300
ENDCHAR
STARTCHAR uni1E19
ENCODING 7705
SWIDTH 556 0
DWIDTH 10 0
BBX 8 14 1 -4
BITMAP
3C
7E
C3
C3
FF
C0
C0
E3
7F
3C
00
18
3C
66
ENDCHAR
STARTCHAR uni1E1A
ENCODING 7706
SWIDTH 667 0
DWIDTH 13 0
BBX 10 18 2 -4
BITMAP
FFC0
FFC0
C000
C000
C000
C000
FF80
FF80
C000
C000
C000
C000
FFC0
FFC0
0000
3200
5A00
4C00
ENDCHAR
STARTCHAR uni1E1B
ENCODING 7707
SWIDTH 556 0
DWIDTH 10 0
BBX 8 14 1 -4
BITMAP
3C
7E
C3
C3
FF
C0
C0
E3
7F
3C
00
32
5A
4C
ENDCHAR
STARTCHAR uni1E1C
ENCODING 7708
SWIDTH 667 0
DWIDTH 13 0
BBX 10 22 2 -4
BITMAP
4200
6600
3C00
0000
FFC0
FFC0
C000
C000
C000
C000
FF80
FF80
C000
C000
C000
C000
FFC0
FFC0
1C00
0600
3600
3C00
ENDCHAR
STARTCHAR uni1E1D
ENCODING 7709
SWIDTH 556 0
DWIDTH 10 0
BBX 8 18 1 -4
BITMAP
42
66
3C
00
3C
7E
C3
C3
FF
C0
C0
E3
7F
3C
1C
06
36
3C
ENDCHAR
STARTCHAR uni1E1E
ENCODING 7710
SWIDTH 611 0
DWIDTH 12 0
BBX 9 17 2 0
BITMAP
1800
1800
0000
FF80
FF80
C000
C000
C000
C000
FF00
FF00
C000
C000
C000
C000
C000
C000
ENDCHAR
STARTCHAR uni1E1F
ENCODING 7711
SWIDTH 278 0
DWIDTH 6 0
BBX 6 17 0 0
BITMAP
18
18
00
1C
3C
30
30
FC
FC
30
30
30
30
30
30
30
30
ENDCHAR
STARTCHAR uni1E20
ENCODING 7712
SWIDTH 778 0
DWIDTH 15 0
BBX 13 16 1 0
BITMAP
0F80
0000
0FC0
3FF0
7038
6018
E018
C000
C000
C0F8
C0F8
E018
6018
7038
3FF8
0FD8
ENDCHAR
STARTCHAR uni1E21
ENCODING 7713
SWIDTH 556 0
DWIDTH 11 0
BBX 9 16 1 -4
BITMAP
3E00
0000
3D80
7F80
6180
C180
C180
C180
C180
6380
7F80
3D80
0180
6300
7F00
1C00
ENDCHAR
STARTCHAR uni1E22
ENCODING 7714
SWIDTH 722 0
DWIDTH 14 0
BBX 11 17 1 0
BITMAP
0600
0600
0000
C060
C060
C060
C060
C060
C060
FFE0
FFE0
C060
C060
C060
C060
C060
C060
ENDCHAR
STARTCHAR uni1E23
ENCODING 7715
SWIDTH 556 0
DWIDTH 10 0
BBX 8 17 1 0
BITMAP
60
60
00
C0
C0
C0
C0
DE
FF
E3
C3
C3
C3
C3
C3
C3
C3
ENDCHAR
STARTCHAR uni1E24
ENCODING 7716
SWIDTH 722 0
DWIDTH 14 0
BBX 11 17 1 -3
BITMAP
C060
C060
C060
C060
C060
C060
FFE0
FFE0
C060
C060
C060
C060
C060
C060
0000
0600
0600
ENDCHAR
STARTCHAR uni1E25
ENCODING 7717
SWIDTH 556 0
DWIDTH 10 0
BBX 8 17 1 -3
BITMAP
C0
C0
C0
C0
DE
FF
E3
C3
C3
C3
C3
C3
C3
C3
00
18
18
ENDCHAR
STARTCHAR uni1E26
ENCODING 7718
SWIDTH 722 0
DWIDTH 14 0
BBX 11 17 1 0
BITMAP
1B00
1B00
0000
C060
C060
C060
C060
C060
C060
FFE0
FFE0
C060
C060
C060
C060
C060
C060
ENDCHAR
STARTCHAR uni1E27
ENCODING 7719
SWIDTH 556 0
DWIDTH 10 0
BBX 8 17 1 0
BITMAP
D8
D8
00
C0
C0
C0
C0
DE
FF
E3
C3
C3
C3
C3
C3
C3
C3
ENDCHAR
STARTCHAR uni1E28
ENCODING 7720
SWIDTH 722 0
DWIDTH 14 0
BBX 11 18 1 -4
BITMAP
C060
C060
C060
C060
C060
C060
FFE0
FFE0
C060
C060
C060
C060
C060
CC60
0E00
0300
1B00
1E00
ENDCHAR
STARTCHAR uni1E29
ENCODING 7721
SWIDTH 556 0
DWIDTH 10 0
BBX 8 18 1 -4
BITMAP
C0
C0
C0
C0
DE
FF
E3
C3
C3
C3
C3
C3
C3
DB
1C
06
36
3C
ENDCHAR
STARTCHAR uni1E2A
ENCODING 7722
SWIDTH 722 0
DWIDTH 14 0
BBX 11 18 1 -4
BITMAP
C060
C060
C060
C060
C060
C060
FFE0
FFE0
C060
C060
C060
C060
C060
C060
0000
1080
1980
0F00
ENDCHAR
STARTCHAR uni1E2B
ENCODING 7723
SWIDTH 556 0
DWIDTH 10 0
BBX 8 18 1 -4
BITMAP
C0
C0
C0
C0
DE
FF
E3
C3
C3
C3
C3
C3
C3
C3
00
42
66
3C
ENDCHAR
STARTCHAR uni1E2C
ENCODING 7724
SWIDTH 278 0
DWIDTH 6 0
BBX 6 18 0 -4
BITMAP
30
30
30
30
30
30
30
30
30
30
30
30
30
30
00
64
B4
98
ENDCHAR
STARTCHAR uni1E2D
ENCODING 7725
SWIDTH 222 0
DWIDTH 4 0
BBX 6 18 -1 -4
BITMAP
30
30
00
00
30
30
30
30
30
30
30
30
30
30
00
64
B4
98
ENDCHAR
STARTCHAR uni1E2E
ENCODING 7726
SWIDTH 278 0
DWIDTH 6 0
BBX 6 21 0 0
BITMAP
0C
18
30
00
CC
CC
00
30
30
30
30
30
30
30
30
30
30
30
30
30
30
ENDCHAR
STARTCHAR uni1E2F
ENCODING 7727
SWIDTH 278 0
DWIDTH 4 0
BBX 5 18 0 0
BITMAP
18
30
60
00
D8
D8
00
00
60
60
60
60
60
60
60
60
60
60
ENDCHAR
STARTCHAR uni1E30
ENCODING 7728
SWIDTH 667 0
DWIDTH 13 0
BBX 12 18 2 0
BITMAP
0300
0600
0C00
0000
C0E0
C1C0
C380
C700
CE00
DC00
F800
FC00
CE00
C700
C380
C1C0
C0E0
C070
ENDCHAR
STARTCHAR uni1E31
ENCODING 7729
SWIDTH 500 0
DWIDTH 9 0
BBX 8 18 1 0
BITMAP
18
30
60
00
C0
C0
C0
C0
C6
CC
D8
F0
F8
D8
CC
CE
C6
C7
ENDCHAR
STARTCHAR uni1E32
ENCODING 7730
SWIDTH 667 0
DWIDTH 13 0
BBX 12 17 2 -3
BITMAP
C0E0
C1C0
C380
C700
CE00
DC00
F800
FC00
CE00
C700
C380
C1C0
C0E0
C070
0000
0600
0600
ENDCHAR
STARTCHAR uni1E33
ENCODING 7731
SWIDTH 500 0
DWIDTH 9 0
BBX 8 17 1 -3
BITMAP
C0
C0
C0
C0
C6
CC
D8
F0
F8
D8
CC
CE
C6
C7
00
18
18
ENDCHAR
STARTCHAR uni1E34
ENCODING 7732
SWIDTH 667 0
DWIDTH 13 0
BBX 12 16 2 -2
BITMAP
C0E0
C1C0
C380
C700
CE00
DC00
F800
FC00
CE00
C700
C380
C1C0
C0E0
C070
0000
1F00
ENDCHAR
STARTCHAR uni1E35
ENCODING 7733
SWIDTH 500 0
DWIDTH 9 0
BBX 8 16 1 -2
BITMAP
C0
C0
C0
C0
C6
CC
D8
F0
F8
D8
CC
CE
C6
C7
00
7C
ENDCHAR
STARTCHAR uni1E36
ENCODING 7734
SWIDTH 556 0
DWIDTH 11 0
BBX 9 17 1 -3
BITMAP
C000
C000
C000
C000
C000
C000
C000
C000
C000
C000
C000
C000
FF80
FF80
0000
1800
1800
ENDCHAR
STARTCHAR uni1E37
ENCODING 7735
SWIDTH 222 0
DWIDTH 4 0
BBX 2 17 1 -3
BITMAP
C0
C0
C0
C0
C0
C0
C0
C0
C0
C0
C0
C0
C0
C0
00
C0
C0
ENDCHAR
STARTCHAR uni1E38
ENCODING 7736
SWIDTH 556 0
DWIDTH 11 0
BBX 9 19 1 -3
BITMAP
F800
0000
C000
C000
C000
C000
C000
C000
C000
C000
C000
C000
C000
C000
FF80
FF80
0000
1800
1800
ENDCHAR
STARTCHAR uni1E39
ENCODING 7737
SWIDTH 222 0
DWIDTH 4 0
BBX 5 19 0 -3
BITMAP
F8
00
60
60
60
60
60
60
60
60
60
60
60
60
60
60
00
60
60
ENDCHAR
STARTCHAR uni1E3A
ENCODING 7738
SWIDTH 556 0
DWIDTH 11 0
BBX 9 16 1 -2
BITMAP
C000
C000
C000
C000
C000
C000
C000
C000
C000
C000
C000
C000
FF80
FF80
0000
3E00
ENDCHAR
STARTCHAR uni1E3B
ENCODING 7739
SWIDTH 222 0
DWIDTH 4 0
BBX 5 16 0 -2
BITMAP
60
60
60
60
60
60
60
60
60
60
60
60
60
60
00
F8
ENDCHAR
STARTCHAR uni1E3C
ENCODING 7740
SWIDTH 556 0
DWIDTH 11 0
BBX 9 18 1 -4
BITMAP
C000
C000
C000
C000
C000
C000
C000
C000
C000
C000
C000
C000
FF80
FF80
0000
1800
3C00
6600
ENDCHAR
STARTCHAR uni1E3D
ENCODING 7741
SWIDTH 222 0
DWIDTH 4 0
BBX 6 18 -1 -4
BITMAP
30
30
30
30
30
30
30
30
30
30
30
30
30
30
00
30
78
CC
ENDCHAR
STARTCHAR uni1E3E
ENCODING 7742
SWIDTH 833 0
DWIDTH 16 0
BBX 14 18 1 0
BITMAP
00C0
0180
0300
0000
C00C
C00C
E01C
E01C
F03C
F03C
D86C
D86C
CCCC
CCCC
C48C
C78C
C30C
C30C
ENDCHAR
STARTCHAR uni1E3F
ENCODING 7743
SWIDTH 833 0
DWIDTH 16 0
BBX 14 14 1 0
BITMAP
00C0
0180
0300
0000
DE78
FFFC
E38C
C30C
C30C
C30C
C30C
C30C
C30C
C30C
ENDCHAR
STARTCHAR uni1E40
ENCODING 7744
SWIDTH 833 0
DWIDTH 16 0
BBX 14 17 1 0
BITMAP
0300
0300
0000
C00C
C00C
E01C
E01C
F03C
F03C
D86C
D86C
CCCC
CCCC
C48C
C78C
C30C
C30C
ENDCHAR
STARTCHAR uni1E41
ENCODING 7745
SWIDTH 833 0
DWIDTH 16 0
BBX 14 13 1 0
BITMAP
0300
0300
0000
DE78
FFFC
E38C
C30C
C30C
C30C
C30C
C30C
C30C
C30C
ENDCHAR
STARTCHAR uni1E42
ENCODING 7746
SWIDTH 833 0
DWIDTH 16 0
BBX 14 17 1 -3
BITMAP
C00C
C00C
E01C
E01C
F03C
F03C
D86C
D86C
CCCC
CCCC
C48C
C78C
C30C
C30C
0000
0300
0300
ENDCHAR
STARTCHAR uni1E43
ENCODING 7747
SWIDTH 833 0
DWIDTH 16 0
BBX 14 13 1 -3
BITMAP
DE78
FFFC
E38C
C30C
C30C
C30C
C30C
C30C
C30C
C30C
0000
0300
0300
ENDCHAR
STARTCHAR uni1E44
ENCODING 7748
SWIDTH 722 0
DWIDTH 14 0
BBX 11 17 1 0
BITMAP
0C00
0C00
0000
C060
E060
F060
F060
D860
CC60
CC60
C660
C660
C360
C1E0
C1E0
C0E0
C060
ENDCHAR
STARTCHAR uni1E45
ENCODING 7749
SWIDTH 556 0
DWIDTH 10 0
BBX 8 13 1 0
BITMAP
18
18
00
DE
FF
E3
C3
C3
C3
C3
C3
C3
C3
ENDCHAR
STARTCHAR uni1E46
ENCODING 7750
SWIDTH 722 0
DWIDTH 14 0
BBX 11 17 1 -3
BITMAP
C060
E060
F060
F060
D860
CC60
CC60
C660
C660
C360
C1E0
C1E0
C0E0
C060
0000
0600
0600
ENDCHAR
STARTCHAR uni1E47
ENCODING 7751
SWIDTH 556 0
DWIDTH 10 0
BBX 8 13 1 -3
BITMAP
DE
FF
E3
C3
C3
C3
C3
C3
C3
C3
00
18
18
ENDCHAR
STARTCHAR uni1E48
ENCODING 7752
SWIDTH 722 0
DWIDTH 14 0
BBX 11 16 1 -2
BITMAP
C060
E060
F060
F060
D860
CC60
CC60
C660
C660
C360
C1E0
C1E0
C0E0
C060
0000
1F00
ENDCHAR
STARTCHAR uni1E49
ENCODING 7753
SWIDTH 556 0
DWIDTH 10 0
BBX 8 12 1 -2
BITMAP
DE
FF
E3
C3
C3
C3
C3
C3
C3
C3
00
3E
ENDCHAR
STARTCHAR uni1E4A
ENCODING 7754
SWIDTH 722 0
DWIDTH 14 0
BBX 11 18 1 -4
BITMAP
C060
E060
F060
F060
D860
CC60
CC60
C660
C660
C360
C1E0
C1E0
C0E0
C060
0000
0600
0F00
1980
ENDCHAR
STARTCHAR uni1E4B
ENCODING 7755
SWIDTH 556 0
DWIDTH 10 0
BBX 8 14 1 -4
BITMAP
DE
FF
E3
C3
C3
C3
C3
C3
C3
C3
00
18
3C
66
ENDCHAR
STARTCHAR uni1E4C
ENCODING 7756
SWIDTH 778 0
DWIDTH 15 0
BBX 13 22 1 0
BITMAP
0180
0300
0600
0000
0640
0B40
0980
0000
0F80
3FE0
7070
6030
E038
C018
C018
C018
C018
E038
6030
7070
3FE0
0F80
ENDCHAR
STARTCHAR uni1E4D
ENCODING 7757
SWIDTH 556 0
DWIDTH 11 0
BBX 9 18 1 0
BITMAP
0600
0C00
1800
0000
3200
5A00
4C00
0000
3E00
7F00
6300
C180
C180
C180
C180
6300
7F00
3E00
ENDCHAR
STARTCHAR uni1E4E
ENCODING 7758
SWIDTH 778 0
DWIDTH 15 0
BBX 13 21 1 0
BITMAP
0D80
0D80
0000
0640
0B40
0980
0000
0F80
3FE0
7070
6030
E038
C018
C018
C018
C018
E038
6030
7070
3FE0
0F80
ENDCHAR
STARTCHAR uni1E4F
ENCODING 7759
SWIDTH 556 0
DWIDTH 11 0
BBX 9 17 1 0
BITMAP
3600
3600
0000
3200
5A00
4C00
0000
3E00
7F00
6300
C180
C180
C180
C180
6300
7F00
3E00
ENDCHAR
STARTCHAR uni1E50
ENCODING 7760
SWIDTH 778 0
DWIDTH 15 0
BBX 13 20 1 0
BITMAP
0C00
0600
0300
0000
0F80
0000
0F80
3FE0
7070
6030
E038
C018
C018
C018
C018
E038
6030
7070
3FE0
0F80
ENDCHAR
STARTCHAR uni1E51
ENCODING 7761
SWIDTH 556 0
DWIDTH 11 0
BBX 9 16 1 0
BITMAP
3000
1800
0C00
0000
3E00
0000
3E00
7F00
6300
C180
C180
C180
C180
6300
7F00
3E00
ENDCHAR
STARTCHAR uni1E52
ENCODING 7762
SWIDTH 778 0
DWIDTH 15 0
BBX 13 20 1 0
BITMAP
0180
0300
0600
0000
0F80
0000
0F80
3FE0
7070
6030
E038
C018
C018
C018
C018
E038
6030
7070
3FE0
0F80
ENDCHAR
STARTCHAR uni1E53
ENCODING 7763
SWIDTH 556 0
DWIDTH 11 0
BBX 9 16 1 0
BITMAP
0600
0C00
1800
0000
3E00
0000
3E00
7F00
6300
C180
C180
C180
C180
6300
7F00
3E00
ENDCHAR
STARTCHAR uni1E54
ENCODING 7764
SWIDTH 667 0
DWIDTH 13 0
BBX 10 18 2 0
BITMAP
0600
0C00
1800
0000
FF00
FF80
C1C0
C0C0
C0C0
C1C0
FF80
FF00
C000
C000
C000
C000
C000
C000
ENDCHAR
STARTCHAR uni1E55
ENCODING 7765
SWIDTH 556 0
DWIDTH 11 0
BBX 9 18 1 -4
BITMAP
0600
0C00
1800
0000
DE00
FF00
E300
C180
C180
C180
C180
E300
FF00
DE00
C000
C000
C000
C000
ENDCHAR
STARTCHAR uni1E56
ENCODING 7766
SWIDTH 667 0
DWIDTH 13 0
BBX 10 17 2 0
BITMAP
0C00
0C00
0000
FF00
FF80
C1C0
C0C0
C0C0
C1C0
FF80
FF00
C000
C000
C000
C000
C000
C000
ENDCHAR
STARTCHAR uni1E57
ENCODING 7767
SWIDTH 556 0
DWIDTH 11 0
BBX 9 17 1 -4
BITMAP
1800
1800
0000
DE00
FF00
E300
C180
C180
C180
C180
E300
FF00
DE00
C000
C000
C000
C000
ENDCHAR
STARTCHAR uni1E58
ENCODING 7768
SWIDTH 722 0
DWIDTH 14 0
BBX 11 17 1 0
BITMAP
0C00
0C00
0000
FF80
FFC0
C0E0
C060
C060
C0E0
FFC0
FF80
C0C0
C0C0
C060
C060
C060
C060
ENDCHAR
STARTCHAR uni1E59
ENCODING 7769
SWIDTH 333 0
DWIDTH 6 0
BBX 5 13 1 0
BITMAP
60
60
00
D8
D8
E0
C0
C0
C0
C0
C0
C0
C0
ENDCHAR
STARTCHAR uni1E5A
ENCODING 7770
SWIDTH 722 0
DWIDTH 14 0
BBX 11 17 1 -3
BITMAP
FF80
FFC0
C0E0
C060
C060
C0E0
FFC0
FF80
C0C0
C0C0
C060
C060
C060
C060
0000
0600
0600
ENDCHAR
STARTCHAR uni1E5B
ENCODING 7771
SWIDTH 333 0
DWIDTH 6 0
BBX 5 13 1 -3
BITMAP
D8
D8
E0
C0
C0
C0
C0
C0
C0
C0
00
60
60
ENDCHAR
STARTCHAR uni1E5C
ENCODING 7772
SWIDTH 722 0
DWIDTH 14 0
BBX 11 19 1 -3
BITMAP
1F00
0000
FF80
FFC0
C0E0
C060
C060
C0E0
FFC0
FF80
C0C0
C0C0
C060
C060
C060
C060
0000
0600
0600
ENDCHAR
STARTCHAR uni1E5D
ENCODING 7773
SWIDTH 333 0
DWIDTH 6 0
BBX 5 15 1 -3
BITMAP
F8
00
D8
D8
E0
C0
C0
C0
C0
C0
C0
C0
00
60
60
ENDCHAR
STARTCHAR uni1E5E
ENCODING 7774
SWIDTH 722 0
DWIDTH 14 0
BBX 11 16 1 -2
BITMAP
FF80
FFC0
C0E0
C060
C060
C0E0
FFC0
FF80
C0C0
C0C0
C060
C060
C060
C060
0000
1F00
ENDCHAR
STARTCHAR uni1E5F
ENCODING 7775
SWIDTH 333 0
DWIDTH 6 0
BBX 6 12 0 -2
BITMAP
6C
6C
70
60
60
60
60
60
60
60
00
F8
ENDCHAR
STARTCHAR uni1E60
ENCODING 7776
SWIDTH 667 0
DWIDTH 13 0
BBX 10 17 1 0
BITMAP
0C00
0C00
0000
1E00
7F80
E1C0
C0C0
E000
7C00
1F00
0380
01C0
00C0
C0C0
E1C0
7F80
3F00
ENDCHAR
STARTCHAR uni1E61
ENCODING 7777
SWIDTH 500 0
DWIDTH 9 0
BBX 7 13 1 0
BITMAP
18
18
00
3C
7E
C6
C0
FC
3E
06
C6
FC
78
ENDCHAR
STARTCHAR uni1E62
ENCODING 7778
SWIDTH 667 0
DWIDTH 13 0
BBX 10 17 1 -3
BITMAP
1E00
7F80
E1C0
C0C0
E000
7C00
1F00
0380
01C0
00C0
C0C0
E1C0
7F80
3F00
0000
0C00
0C00
ENDCHAR
STARTCHAR uni1E63
ENCODING 7779
SWIDTH 500 0
DWIDTH 9 0
BBX 7 13 1 -3
BITMAP
3C
7E
C6
C0
FC
3E
06
C6
FC
78
00
30
30
ENDCHAR
STARTCHAR uni1E64
ENCODING 7780
SWIDTH 667 0
DWIDTH 13 0
BBX 10 21 1 0
BITMAP
0C00
0C00
0000
0300
0600
0C00
0000
1E00
7F80
E1C0
C0C0
E000
7C00
1F00
0380
01C0
00C0
C0C0
E1C0
7F80
3F00
ENDCHAR
STARTCHAR uni1E65
ENCODING 7781
SWIDTH 500 0
DWIDTH 9 0
BBX 7 17 1 0
BITMAP
18
18
00
0C
18
30
00
3C
7E
C6
C0
FC
3E
06
C6
FC
78
ENDCHAR
STARTCHAR uni1E66
ENCODING 7782
SWIDTH 667 0
DWIDTH 13 0
BBX 11 17 1 0
BITMAP
0C00
0C00
0000
3300
1E00
0C00
0000
1F00
7FC0
E0E0
E000
7FC0
3FE0
00E0
E0E0
7FC0
3F00
ENDCHAR
STARTCHAR uni1E67
ENCODING 7783
SWIDTH 500 0
DWIDTH 9 0
BBX 7 17 1 0
BITMAP
30
30
00
CC
78
30
00
3C
7E
C6
C0
FC
3E
06
C6
FC
78
ENDCHAR
STARTCHAR uni1E68
ENCODING 7784
SWIDTH 667 0
DWIDTH 13 0
BBX 10 20 1 -3
BITMAP
0C00
0C00
0000
1E00
7F80
E1C0
C0C0
E000
7C00
1F00
0380
01C0
00C0
C0C0
E1C0
7F80
3F00
0000
0C00
0C00
ENDCHAR
STARTCHAR uni1E69
ENCODING 7785
SWIDTH 500 0
DWIDTH 9 0
BBX 7 16 1 -3
BITMAP
18
18
00
3C
7E
C6
C0
FC
3E
06
C6
FC
78
00
30
30
ENDCHAR
STARTCHAR uni1E6A
ENCODING 7786
SWIDTH 611 0
DWIDTH 12 0
BBX 10 17 1 0
BITMAP
0C00
0C00
0000
FFC0
FFC0
0C00
0C00
0C00
0C00
0C00
0C00
0C00
0C00
0C00
0C00
0C00
0C00
ENDCHAR
STARTCHAR uni1E6B
ENCODING 7787
SWIDTH 278 0
DWIDTH 6 0
BBX 6 16 0 0
BITMAP
30
30
00
30
30
30
FC
FC
30
30
30
30
30
30
3C
1C
ENDCHAR
STARTCHAR uni1E6C
ENCODING 7788
SWIDTH 611 0
DWIDTH 12 0
BBX 10 17 1 -3
BITMAP
FFC0
FFC0
0C00
0C00
0C00
0C00
0C00
0C00
0C00
0C00
0C00
0C00
0C00
0C00
0000
0C00
0C00
ENDCHAR
STARTCHAR uni1E6D
ENCODING 7789
SWIDTH 278 0
DWIDTH 6 0
BBX 6 16 0 -3
BITMAP
30
30
30
FC
FC
30
30
30
30
30
30
3C
1C
00
18
18
ENDCHAR
STARTCHAR uni1E6E
ENCODING 7790
SWIDTH 611 0
DWIDTH 12 0
BBX 10 16 1 -2
BITMAP
FFC0
FFC0
0C00
0C00
0C00
0C00
0C00
0C00
0C00
0C00
0C00
0C00
0C00
0C00
0000
1F00
ENDCHAR
STARTCHAR uni1E6F
ENCODING 7791
SWIDTH 278 0
DWIDTH 6 0
BBX 6 15 0 -2
BITMAP
30
30
30
FC
FC
30
30
30
30
30
30
3C
1C
00
7C
ENDCHAR
STARTCHAR uni1E70
ENCODING 7792
SWIDTH 611 0
DWIDTH 12 0
BBX 10 18 1 -4
BITMAP
FFC0
FFC0
0C00
0C00
0C00
0C00
0C00
0C00
0C00
0C00
0C00
0C00
0C00
0C00
0000
0C00
1E00
3300
ENDCHAR
STARTCHAR uni1E71
ENCODING 7793
SWIDTH 278 0
DWIDTH 6 0
BBX 7 17 0 -4
BITMAP
30
30
30
FC
FC
30
30
30
30
30
30
3C
1C
00
18
3C
66
ENDCHAR
STARTCHAR uni1E72
ENCODING 7794
SWIDTH 722 0
DWIDTH 14 0
BBX 11 17 1 -3
BITMAP
C060
C060
C060
C060
C060
C060
C060
C060
C060
C060
C060
60C0
7FC0
1F00
0000
1B00
1B00
ENDCHAR
STARTCHAR uni1E73
ENCODING 7795
SWIDTH 556 0
DWIDTH 10 0
BBX 8 13 1 -3
BITMAP
C3
C3
C3
C3
C3
C3
C3
C7
FF
7B
00
36
36
ENDCHAR
STARTCHAR uni1E74
ENCODING 7796
SWIDTH 722 0
DWIDTH 14 0
BBX 11 18 1 -4
BITMAP
C060
C060
C060
C060
C060
C060
C060
C060
C060
C060
C060
60C0
7FC0
1F00
0000
1900
2D00
2600
ENDCHAR
STARTCHAR uni1E75
ENCODING 7797
SWIDTH 556 0
DWIDTH 10 0
BBX 8 14 1 -4
BITMAP
C3
C3
C3
C3
C3
C3
C3
C7
FF
7B
00
32
5A
4C
ENDCHAR
STARTCHAR uni1E76
ENCODING 7798
SWIDTH 722 0
DWIDTH 14 0
BBX 11 18 1 -4
BITMAP
C060
C060
C060
C060
C060
C060
C060
C060
C060
C060
C060
60C0
7FC0
1F00
0000
0600
0F00
1980
ENDCHAR
STARTCHAR uni1E77
ENCODING 7799
SWIDTH 556 0
DWIDTH 10 0
BBX 8 14 1 -4
BITMAP
C3
C3
C3
C3
C3
C3
C3
C7
FF
7B
00
18
3C
66
ENDCHAR
STARTCHAR uni1E78
ENCODING 7800
SWIDTH 722 0
DWIDTH 14 0
BBX 11 22 1 0
BITMAP
0300
0600
0C00
0000
0C80
1680
1300
0000
C060
C060
C060
C060
C060
C060
C060
C060
C060
C060
C060
60C0
7FC0
1F00
ENDCHAR
STARTCHAR uni1E79
ENCODING 7801
SWIDTH 556 0
DWIDTH 10 0
BBX 8 18 1 0
BITMAP
06
0C
18
00
32
5A
4C
00
C3
C3
C3
C3
C3
C3
C3
C7
FF
7B
ENDCHAR
STARTCHAR uni1E7A
ENCODING 7802
SWIDTH 722 0
DWIDTH 14 0
BBX 11 19 1 0
BITMAP
1B00
1B00
0000
1F00
0000
C060
C060
C060
C060
C060
C060
C060
C060
C060
C060
C060
60C0
7FC0
1F00
ENDCHAR
STARTCHAR uni1E7B
ENCODING 7803
SWIDTH 556 0
DWIDTH 10 0
BBX 8 15 1 0
BITMAP
36
36
00
3E
00
C3
C3
C3
C3
C3
C3
C3
C7
FF
7B
ENDCHAR
STARTCHAR uni1E7C
ENCODING 7804
SWIDTH 667 0
DWIDTH 13 0
BBX 12 18 0 0
BITMAP
0C80
1680
1300
0000
C030
C030
6060
6060
6060
30C0
30C0
30C0
1980
1980
1980
0F00
0F00
0600
ENDCHAR
STARTCHAR uni1E7D
ENCODING 7805
SWIDTH 500 0
DWIDTH 10 0
BBX 8 14 1 0
BITMAP
32
5A
4C
00
C3
C3
C3
66
66
66
24
3C
18
18
ENDCHAR
STARTCHAR uni1E7E
ENCODING 7806
SWIDTH 667 0
DWIDTH 13 0
BBX 12 17 0 -3
BITMAP
C030
C030
6060
6060
6060
30C0
30C0
30C0
1980
1980
1980
0F00
0F00
0600
0000
0600
0600
ENDCHAR
STARTCHAR uni1E7F
ENCODING 7807
SWIDTH 500 0
DWIDTH 10 0
BBX 8 13 1 -3
BITMAP
C3
C3
C3
66
66
66
24
3C
18
18
00
18
18
ENDCHAR
STARTCHAR Wgrave
ENCODING 7808
SWIDTH 944 0
DWIDTH 18 0
BBX 16 18 1 0
BITMAP
0600
0300
0180
0000
C183
C183
C183
C3C3
63C6
6246
6666
6666
366C
366C
342C
1C38
1818
1818
ENDCHAR
STARTCHAR wgrave
ENCODING 7809
SWIDTH 722 0
DWIDTH 14 0
BBX 12 14 1 0
BITMAP
1800
0C00
0600
0000
C630
C630
C630
6660
6660
6960
2940
39C0
1980
1980
ENDCHAR
STARTCHAR Wacute
ENCODING 7810
SWIDTH 944 0
DWIDTH 18 0
BBX 16 18 1 0
BITMAP
0060
00C0
0180
0000
C183
C183
C183
C3C3
63C6
6246
6666
6666
366C
366C
342C
1C38
1818
1818
ENDCHAR
STARTCHAR wacute
ENCODING 7811
SWIDTH 722 0
DWIDTH 14 0
BBX 12 14 1 0
BITMAP
0180
0300
0600
0000
C630
C630
C630
6660
6660
6960
2940
39C0
1980
1980
ENDCHAR
STARTCHAR Wdieresis
ENCODING 7812
SWIDTH 944 0
DWIDTH 18 0
BBX 16 17 1 0
BITMAP
0360
0360
0000
C183
C183
C183
C3C3
63C6
6246
6666
6666
366C
366C
342C
1C38
1818
1818
ENDCHAR
STARTCHAR wdieresis
ENCODING 7813
SWIDTH 722 0
DWIDTH 14 0
BBX 12 13 1 0
BITMAP
0D80
0D80
0000
C630
C630
C630
6660
6660
6960
2940
39C0
1980
1980
ENDCHAR
STARTCHAR uni1E86
ENCODING 7814
SWIDTH 944 0
DWIDTH 18 0
BBX 16 17 1 0
BITMAP
0180
0180
0000
C183
C183
C183
C3C3
63C6
6246
6666
6666
366C
366C
342C
1C38
1818
1818
ENDCHAR
STARTCHAR uni1E87
ENCODING 7815
SWIDTH 722 0
DWIDTH 14 0
BBX 12 13 1 0
BITMAP
0600
0600
0000
C630
C630
C630
6660
6660
6960
2940
39C0
1980
1980
ENDCHAR
STARTCHAR uni1E88
ENCODING 7816
SWIDTH 944 0
DWIDTH 18 0
BBX 16 17 1 -3
BITMAP
C183
C183
C183
C3C3
63C6
6246
6666
6666
366C
366C
342C
1C38
1818
1818
0000
0180
0180
ENDCHAR
STARTCHAR uni1E89
ENCODING 7817
SWIDTH 722 0
DWIDTH 14 0
BBX 12 13 1 -3
BITMAP
C630
C630
C630
6660
6660
6960
2940
39C0
1980
1980
0000
0600
0600
ENDCHAR
STARTCHAR uni1E8A
ENCODING 7818
SWIDTH 667 0
DWIDTH 13 0
BBX 11 17 1 0
BITMAP
0600
0600
0000
C060
C060
60C0
71C0
3180
1B00
0E00
0E00
1B00
3180
71C0
60C0
C060
C060
ENDCHAR
STARTCHAR uni1E8B
ENCODING 7819
SWIDTH 500 0
DWIDTH 10 0
BBX 8 13 1 0
BITMAP
18
18
00
C3
E7
66
3C
18
18
3C
66
E7
C3
ENDCHAR
STARTCHAR uni1E8C
ENCODING 7820
SWIDTH 667 0
DWIDTH 13 0
BBX 11 17 1 0
BITMAP
1B00
1B00
0000
C060
C060
60C0
71C0
3180
1B00
0E00
0E00
1B00
3180
71C0
60C0
C060
C060
ENDCHAR
STARTCHAR uni1E8D
ENCODING 7821
SWIDTH 500 0
DWIDTH 10 0
BBX 8 13 1 0
BITMAP
36
36
00
C3
E7
66
3C
18
18
3C
66
E7
C3
ENDCHAR
STARTCHAR uni1E8E
ENCODING 7822
SWIDTH 667 0
DWIDTH 13 0
BBX 12 17 0 0
BITMAP
0600
0600
0000
C030
C030
6060
6060
30C0
39C0
1980
0F00
0600
0600
0600
0600
0600
0600
ENDCHAR
STARTCHAR uni1E8F
ENCODING 7823
SWIDTH 500 0
DWIDTH 10 0
BBX 8 17 1 -4
BITMAP
18
18
00
C3
C3
C3
66
66
66
24
3C
18
18
18
18
70
70
ENDCHAR
STARTCHAR uni1E90
ENCODING 7824
SWIDTH 611 0
DWIDTH 12 0
BBX 10 18 1 0
BITMAP
0C00
1E00
3300
0000
FFC0
FFC0
00C0
0180
0300
0600
0C00
1C00
1800
3000
6000
C000
FFC0
FFC0
ENDCHAR
STARTCHAR uni1E91
ENCODING 7825
SWIDTH 500 0
DWIDTH 9 0
BBX 7 14 1 0
BITMAP
18
3C
66
00
FE
FE
06
0C
18
30
60
C0
FE
FE
ENDCHAR
STARTCHAR uni1E92
ENCODING 7826
SWIDTH 611 0
DWIDTH 12 0
BBX 10 17 1 -3
BITMAP
FFC0
FFC0
00C0
0180
0300
0600
0C00
1C00
1800
3000
6000
C000
FFC0
FFC0
0000
0C00
0C00
ENDCHAR
STARTCHAR uni1E93
ENCODING 7827
SWIDTH 500 0
DWIDTH 9 0
BBX 7 13 1 -3
BITMAP
FE
FE
06
0C
18
30
60
C0
FE
FE
00
30
30
ENDCHAR
STARTCHAR uni1E94
ENCODING 7828
SWIDTH 611 0
DWIDTH 12 0
BBX 10 16 1 -2
BITMAP
FFC0
FFC0
00C0
0180
0300
0600
0C00
1C00
1800
3000
6000
C000
FFC0
FFC0
0000
3E00
ENDCHAR
STARTCHAR uni1E95
ENCODING 7829
SWIDTH 500 0
DWIDTH 9 0
BBX 7 12 1 -2
BITMAP
FE
FE
06
0C
18
30
60
C0
FE
FE
00
7C
ENDCHAR
STARTCHAR uni1E96
ENCODING 7830
SWIDTH 556 0
DWIDTH 10 0
BBX 8 16 1 -2
BITMAP
C0
C0
C0
C0
DE
FF
E3
C3
C3
C3
C3
C3
C3
C3
00
3E
ENDCHAR
STARTCHAR uni1E97
ENCODING 7831
SWIDTH 278 0
DWIDTH 6 0
BBX 6 16 0 0
BITMAP
6C
6C
00
30
30
30
FC
FC
30
30
30
30
30
30
3C
1C
ENDCHAR
STARTCHAR uni1E98
ENCODING 7832
SWIDTH 722 0
DWIDTH 14 0
BBX 12 15 1 0
BITMAP
0700
0D80
0D80
0700
0000
C630
C630
C630
6660
6660
6960
2940
39C0
1980
1980
ENDCHAR
STARTCHAR uni1E99
ENCODING 7833
SWIDTH 500 0
DWIDTH 10 0
BBX 8 19 1 -4
BITMAP
1C
36
36
1C
00
C3
C3
C3
66
66
66
24
3C
18
18
18
18
70
70
ENDCHAR
STARTCHAR uni1EA0
ENCODING 7840
SWIDTH 667 0
DWIDTH 13 0
BBX 12 17 0 -3
BITMAP
0600
0600
0F00
0F00
1980
1980
30C0
30C0
3FC0
7FE0
6060
6060
C030
C030
0000
0600
0600
ENDCHAR
STARTCHAR uni1EA1
ENCODING 7841
SWIDTH 556 0
DWIDTH 11 0
BBX 9 13 1 -3
BITMAP
7E00
E700
C300
0700
7F00
E300
C300
C300
E780
7980
0000
0C00
0C00
ENDCHAR
STARTCHAR uni1EA4
ENCODING 7844
SWIDTH 667 0
DWIDTH 13 0
BBX 12 22 0 0
BITMAP
0180
0300
0600
0000
0600
0F00
1980
0000
0600
0600
0F00
0F00
1980
1980
30C0
30C0
3FC0
7FE0
6060
6060
C030
C030
ENDCHAR
STARTCHAR uni1EA5
ENCODING 7845
SWIDTH 556 0
DWIDTH 11 0
BBX 9 18 1 0
BITMAP
0600
0C00
1800
0000
1800
3C00
6600
0000
7E00
E700
C300
0700
7F00
E300
C300
C300
E780
7980
ENDCHAR
STARTCHAR uni1EA6
ENCODING 7846
SWIDTH 667 0
DWIDTH 13 0
BBX 12 22 0 0
BITMAP
1800
0C00
0600
0000
0600
0F00
1980
0000
0600
0600
0F00
0F00
1980
1980
30C0
30C0
3FC0
7FE0
6060
6060
C030
C030
ENDCHAR
STARTCHAR uni1EA7
ENCODING 7847
SWIDTH 556 0
DWIDTH 11 0
BBX 9 18 1 0
BITMAP
3000
1800
0C00
0000
1800
3C00
6600
0000
7E00
E700
C300
0700
7F00
E300
C300
C300
E780
7980
ENDCHAR
STARTCHAR uni1EAA
ENCODING 7850
SWIDTH 667 0
DWIDTH 13 0
BBX 12 22 0 0
BITMAP
0C80
1680
1300
0000
0600
0F00
1980
0000
0600
0600
0F00
0F00
1980
1980
30C0
30C0
3FC0
7FE0
6060
6060
C030
C030
ENDCHAR
STARTCHAR uni1EAB
ENCODING 7851
SWIDTH 556 0
DWIDTH 11 0
BBX 9 18 1 0
BITMAP
3200
5A00
4C00
0000
1800
3C00
6600
0000
7E00
E700
C300
0700
7F00
E300
C300
C300
E780
7980
ENDCHAR
STARTCHAR uni1EAC
ENCODING 7852
SWIDTH 667 0
DWIDTH 13 0
BBX 12 21 0 -3
BITMAP
0600
0F00
1980
0000
0600
0600
0F00
0F00
1980
1980
30C0
30C0
3FC0
7FE0
6060
6060
C030
C030
0000
0600
0600
ENDCHAR
STARTCHAR uni1EAD
ENCODING 7853
SWIDTH 556 0
DWIDTH 11 0
BBX 9 17 1 -3
BITMAP
1800
3C00
6600
0000
7E00
E700
C300
0700
7F00
E300
C300
C300
E780
7980
0000
0C00
0C00
ENDCHAR
STARTCHAR uni1EAE
ENCODING 7854
SWIDTH 667 0
DWIDTH 13 0
BBX 12 22 0 0
BITMAP
0180
0300
0600
0000
1080
1980
0F00
0000
0600
0600
0F00
0F00
1980
1980
30C0
30C0
3FC0
7FE0
6060
6060
C030
C030
ENDCHAR
STARTCHAR uni1EAF
ENCODING 7855
SWIDTH 556 0
DWIDTH 11 0
BBX 9 18 1 0
BITMAP
0600
0C00
1800
0000
4200
6600
3C00
0000
7E00
E700
C300
0700
7F00
E300
C300
C300
E780
7980
ENDCHAR
STARTCHAR uni1EB0
ENCODING 7856
SWIDTH 667 0
DWIDTH 13 0
BBX 12 22 0 0
BITMAP
1800
0C00
0600
0000
1080
1980
0F00
0000
0600
0600
0F00
0F00
1980
1980
30C0
30C0
3FC0
7FE0
6060
6060
C030
C030
ENDCHAR
STARTCHAR uni1EB1
ENCODING 7857
SWIDTH 556 0
DWIDTH 11 0
BBX 9 18 1 0
BITMAP
3000
1800
0C00
0000
4200
6600
3C00
0000
7E00
E700
C300
0700
7F00
E300
C300
C300
E780
7980
ENDCHAR
STARTCHAR uni1EB4
ENCODING 7860
SWIDTH 667 0
DWIDTH 13 0
BBX 12 22 0 0
BITMAP
0C80
1680
1300
0000
1080
1980
0F00
0000
0600
0600
0F00
0F00
1980
1980
30C0
30C0
3FC0
7FE0
6060
6060
C030
C030
ENDCHAR
STARTCHAR uni1EB5
ENCODING 7861
SWIDTH 556 0
DWIDTH 11 0
BBX 9 18 1 0
BITMAP
3200
5A00
4C00
0000
4200
6600
3C00
0000
7E00
E700
C300
0700
7F00
E300
C300
C300
E780
7980
ENDCHAR
STARTCHAR uni1EB6
ENCODING 7862
SWIDTH 667 0
DWIDTH 13 0
BBX 12 21 0 -3
BITMAP
1080
1980
0F00
0000
0600
0600
0F00
0F00
1980
1980
30C0
30C0
3FC0
7FE0
6060
6060
C030
C030
0000
0600
0600
ENDCHAR
STARTCHAR uni1EB7
ENCODING 7863
SWIDTH 556 0
DWIDTH 11 0
BBX 9 17 1 -3
BITMAP
4200
6600
3C00
0000
7E00
E700
C300
0700
7F00
E300
C300
C300
E780
7980
0000
0C00
0C00
ENDCHAR
STARTCHAR uni1EB8
ENCODING 7864
SWIDTH 667 0
DWIDTH 13 0
BBX 10 17 2 -3
BITMAP
FFC0
FFC0
C000
C000
C000
C000
FF80
FF80
C000
C000
C000
C000
FFC0
FFC0
0000
0C00
0C00
ENDCHAR
STARTCHAR uni1EB9
ENCODING 7865
SWIDTH 556 0
DWIDTH 10 0
BBX 8 13 1 -3
BITMAP
3C
7E
C3
C3
FF
C0
C0
E3
7F
3C
00
18
18
ENDCHAR
STARTCHAR uni1EBC
ENCODING 7868
SWIDTH 667 0
DWIDTH 13 0
BBX 10 18 2 0
BITMAP
1900
2D00
2600
0000
FFC0
FFC0
C000
C000
C000
C000
FF80
FF80
C000
C000
C000
C000
FFC0
FFC0
ENDCHAR
STARTCHAR uni1EBD
ENCODING 7869
SWIDTH 556 0
DWIDTH 10 0
BBX 8 14 1 0
BITMAP
32
5A
4C
00
3C
7E
C3
C3
FF
C0
C0
E3
7F
3C
ENDCHAR
STARTCHAR uni1EBE
ENCODING 7870
SWIDTH 667 0
DWIDTH 13 0
BBX 10 22 2 0
BITMAP
0300
0600
0C00
0000
0C00
1E00
3300
0000
FFC0
FFC0
C000
C000
C000
C000
FF80
FF80
C000
C000
C000
C000
FFC0
FFC0
ENDCHAR
STARTCHAR uni1EBF
ENCODING 7871
SWIDTH 556 0
DWIDTH 10 0
BBX 8 18 1 0
BITMAP
06
0C
18
00
18
3C
66
00
3C
7E
C3
C3
FF
C0
C0
E3
7F
3C
ENDCHAR
STARTCHAR uni1EC0
ENCODING 7872
SWIDTH 667 0
DWIDTH 13 0
BBX 10 22 2 0
BITMAP
3000
1800
0C00
0000
0C00
1E00
3300
0000
FFC0
FFC0
C000
C000
C000
C000
FF80
FF80
C000
C000
C000
C000
FFC0
FFC0
ENDCHAR
STARTCHAR uni1EC1
ENCODING 7873
SWIDTH 556 0
DWIDTH 10 0
BBX 8 18 1 0
BITMAP
60
30
18
00
18
3C
66
00
3C
7E
C3
C3
FF
C0
C0
E3
7F
3C
ENDCHAR
STARTCHAR uni1EC4
ENCODING 7876
SWIDTH 667 0
DWIDTH 13 0
BBX 10 22 2 0
BITMAP
1900
2D00
2600
0000
0C00
1E00
3300
0000
FFC0
FFC0
C000
C000
C000
C000
FF80
FF80
C000
C000
C000
C000
FFC0
FFC0
ENDCHAR
STARTCHAR uni1EC5
ENCODING 7877
SWIDTH 556 0
DWIDTH 10 0
BBX 8 18 1 0
BITMAP
32
5A
4C
00
18
3C
66
00
3C
7E
C3
C3
FF
C0
C0
E3
7F
3C
ENDCHAR
STARTCHAR uni1EC6
ENCODING 7878
SWIDTH 667 0
DWIDTH 13 0
BBX 10 21 2 -3
BITMAP
1800
3C00
6600
0000
FFC0
FFC0
C000
C000
C000
C000
FF80
FF80
C000
C000
C000
C000
FFC0
FFC0
0000
0C00
0C00
ENDCHAR
STARTCHAR uni1EC7
ENCODING 7879
SWIDTH 556 0
DWIDTH 10 0
BBX 8 17 1 -3
BITMAP
18
3C
66
00
3C
7E
C3
C3
FF
C0
C0
E3
7F
3C
00
18
18
ENDCHAR
STARTCHAR uni1ECA
ENCODING 7882
SWIDTH 278 0
DWIDTH 6 0
BBX 2 17 2 -3
BITMAP
C0
C0
C0
C0
C0
C0
C0
C0
C0
C0
C0
C0
C0
C0
00
C0
C0
ENDCHAR
STARTCHAR uni1ECB
ENCODING 7883
SWIDTH 222 0
DWIDTH 4 0
BBX 2 17 1 -3
BITMAP
C0
C0
00
00
C0
C0
C0
C0
C0
C0
C0
C0
C0
C0
00
C0
C0
ENDCHAR
STARTCHAR uni1ECC
ENCODING 7884
SWIDTH 778 0
DWIDTH 15 0
BBX 13 17 1 -3
BITMAP
0F80
3FE0
7070
6030
E038
C018
C018
C018
C018
E038
6030
7070
3FE0
0F80
0000
0300
0300
ENDCHAR
STARTCHAR uni1ECD
ENCODING 7885
SWIDTH 556 0
DWIDTH 11 0
BBX 9 13 1 -3
BITMAP
3E00
7F00
6300
C180
C180
C180
C180
6300
7F00
3E00
0000
0C00
0C00
ENDCHAR
STARTCHAR uni1ED0
ENCODING 7888
SWIDTH 778 0
DWIDTH 15 0
BBX 13 22 1 0
BITMAP
0180
0300
0600
0000
0300
0780
0CC0
0000
0F80
3FE0
7070
6030
E038
C018
C018
C018
C018
E038
6030
7070
3FE0
0F80
ENDCHAR
STARTCHAR uni1ED1
ENCODING 7889
SWIDTH 556 0
DWIDTH 11 0
BBX 9 18 1 0
BITMAP
0600
0C00
1800
0000
1800
3C00
6600
0000
3E00
7F00
6300
C180
C180
C180
C180
6300
7F00
3E00
ENDCHAR
STARTCHAR uni1ED2
ENCODING 7890
SWIDTH 778 0
DWIDTH 15 0
BBX 13 22 1 0
BITMAP
0C00
0600
0300
0000
0300
0780
0CC0
0000
0F80
3FE0
7070
6030
E038
C018
C018
C018
C018
E038
6030
7070
3FE0
0F80
ENDCHAR
STARTCHAR uni1ED3
ENCODING 7891
SWIDTH 556 0
DWIDTH 11 0
BBX 9 18 1 0
BITMAP
3000
1800
0C00
0000
1800
3C00
6600
0000
3E00
7F00
6300
C180
C180
C180
C180
6300
7F00
3E00
ENDCHAR
STARTCHAR uni1ED6
ENCODING 7894
SWIDTH 778 0
DWIDTH 15 0
BBX 13 22 1 0
BITMAP
0640
0B40
0980
0000
0300
0780
0CC0
0000
0F80
3FE0
7070
6030
E038
C018
C018
C018
C018
E038
6030
7070
3FE0
0F80
ENDCHAR
STARTCHAR uni1ED7
ENCODING 7895
SWIDTH 556 0
DWIDTH 11 0
BBX 9 18 1 0
BITMAP
3200
5A00
4C00
0000
1800
3C00
6600
0000
3E00
7F00
6300
C180
C180
C180
C180
6300
7F00
3E00
ENDCHAR
STARTCHAR uni1ED8
ENCODING 7896
SWIDTH 778 0
DWIDTH 15 0
BBX 13 21 1 -3
BITMAP
0300
0780
0CC0
0000
0F80
3FE0
7070
6030
E038
C018
C018
C018
C018
E038
6030
7070
3FE0
0F80
0000
0300
0300
ENDCHAR
STARTCHAR uni1ED9
ENCODING 7897
SWIDTH 556 0
DWIDTH 11 0
BBX 9 17 1 -3
BITMAP
0C00
1E00
3300
0000
3E00
7F00
6300
C180
C180
C180
C180
6300
7F00
3E00
0000
0C00
0C00
ENDCHAR
STARTCHAR uni1EDA
ENCODING 7898
SWIDTH 778 0
DWIDTH 15 0
BBX 14 18 1 0
BITMAP
00C0
0180
0300
0000
0F8C
3FEC
7074
6034
E038
C018
C018
C018
C018
E038
6030
7070
3FE0
0F80
ENDCHAR
STARTCHAR uni1EDB
ENCODING 7899
SWIDTH 556 0
DWIDTH 11 0
BBX 10 14 1 0
BITMAP
0300
0600
0C00
0000
3EC0
7FC0
6340
C1C0
C180
C180
C180
6300
7F00
3E00
ENDCHAR
STARTCHAR uni1EDC
ENCODING 7900
SWIDTH 778 0
DWIDTH 15 0
BBX 14 18 1 0
BITMAP
0600
0300
0180
0000
0F8C
3FEC
7074
6034
E038
C018
C018
C018
C018
E038
6030
7070
3FE0
0F80
ENDCHAR
STARTCHAR uni1EDD
ENCODING 7901
SWIDTH 556 0
DWIDTH 11 0
BBX 10 14 1 0
BITMAP
1800
0C00
0600
0000
3EC0
7FC0
6340
C1C0
C180
C180
C180
6300
7F00
3E00
ENDCHAR
STARTCHAR uni1EE0
ENCODING 7904
SWIDTH 778 0
DWIDTH 15 0
BBX 14 18 1 0
BITMAP
0320
05A0
04C0
0000
0F8C
3FEC
7074
6034
E038
C018
C018
C018
C018
E038
6030
7070
3FE0
0F80
ENDCHAR
STARTCHAR uni1EE1
ENCODING 7905
SWIDTH 556 0
DWIDTH 11 0
BBX 10 14 1 0
BITMAP
0C80
1680
1300
0000
3EC0
7FC0
6340
C1C0
C180
C180
C180
6300
7F00
3E00
ENDCHAR
STARTCHAR uni1EE2
ENCODING 7906
SWIDTH 778 0
DWIDTH 15 0
BBX 14 17 1 -3
BITMAP
0F8C
3FEC
7074
6034
E038
C018
C018
C018
C018
E038
6030
7070
3FE0
0F80
0000
0300
0300
ENDCHAR
STARTCHAR uni1EE3
ENCODING 7907
SWIDTH 556 0
DWIDTH 11 0
BBX 10 13 1 -3
BITMAP
3EC0
7FC0
6340
C1C0
C180
C180
C180
6300
7F00
3E00
0000
0C00
0C00
ENDCHAR
STARTCHAR uni1EE4
ENCODING 7908
SWIDTH 722 0
DWIDTH 14 0
BBX 11 17 1 -3
BITMAP
C060
C060
C060
C060
C060
C060
C060
C060
C060
C060
C060
60C0
7FC0
1F00
0000
0600
0600
ENDCHAR
STARTCHAR uni1EE5
ENCODING 7909
SWIDTH 556 0
DWIDTH 10 0
BBX 8 13 1 -3
BITMAP
C3
C3
C3
C3
C3
C3
C3
C7
FF
7B
00
18
18
ENDCHAR
STARTCHAR uni1EE8
ENCODING 7912
SWIDTH 722 0
DWIDTH 14 0
BBX 12 18 1 0
BITMAP
0180
0300
0600
0000
C070
C070
C070
C070
C060
C060
C060
C060
C060
C060
C060
60C0
7FC0
1F00
ENDCHAR
STARTCHAR uni1EE9
ENCODING 7913
SWIDTH 556 0
DWIDTH 10 0
BBX 10 14 1 0
BITMAP
0300
0600
0C00
0000
C3C0
C3C0
C340
C340
C380
C300
C300
C700
FF00
7B00
ENDCHAR
STARTCHAR uni1EEA
ENCODING 7914
SWIDTH 722 0
DWIDTH 14 0
BBX 12 18 1 0
BITMAP
0C00
0600
0300
0000
C070
C070
C070
C070
C060
C060
C060
C060
C060
C060
C060
60C0
7FC0
1F00
ENDCHAR
STARTCHAR uni1EEB
ENCODING 7915
SWIDTH 556 0
DWIDTH 10 0
BBX 10 14 1 0
BITMAP
1800
0C00
0600
0000
C3C0
C3C0
C340
C340
C380
C300
C300
C700
FF00
7B00
ENDCHAR
STARTCHAR uni1EEE
ENCODING 7918
SWIDTH 722 0
DWIDTH 14 0
BBX 12 18 1 0
BITMAP
0640
0B40
0980
0000
C070
C070
C070
C070
C060
C060
C060
C060
C060
C060
C060
60C0
7FC0
1F00
ENDCHAR
STARTCHAR uni1EEF
ENCODING 7919
SWIDTH 556 0
DWIDTH 10 0
BBX 10 14 1 0
BITMAP
1900
2D00
2600
0000
C3C0
C3C0
C340
C340
C380
C300
C300
C700
FF00
7B00
ENDCHAR
STARTCHAR uni1EF0
ENCODING 7920
SWIDTH 722 0
DWIDTH 14 0
BBX 12 17 1 -3
BITMAP
C070
C070
C070
C070
C060
C060
C060
C060
C060
C060
C060
60C0
7FC0
1F00
0000
0600
0600
ENDCHAR
STARTCHAR uni1EF1
ENCODING 7921
SWIDTH 556 0
DWIDTH 10 0
BBX 10 13 1 -3
BITMAP
C3C0
C3C0
C340
C340
C380
C300
C300
C700
FF00
7B00
0000
1800
1800
ENDCHAR
STARTCHAR Ygrave
ENCODING 7922
SWIDTH 667 0
DWIDTH 13 0
BBX 12 18 0 0
BITMAP
1800
0C00
0600
0000
C030
C030
6060
6060
30C0
39C0
1980
0F00
0600
0600
0600
0600
0600
0600
ENDCHAR
STARTCHAR ygrave
ENCODING 7923
SWIDTH 500 0
DWIDTH 10 0
BBX 8 18 1 -4
BITMAP
60
30
18
00
C3
C3
C3
66
66
66
24
3C
18
18
18
18
70
70
ENDCHAR
STARTCHAR uni1EF4
ENCODING 7924
SWIDTH 667 0
DWIDTH 13 0
BBX 12 17 0 -3
BITMAP
C030
C030
6060
6060
30C0
39C0
1980
0F00
0600
0600
0600
0600
0600
0600
0000
0600
0600
ENDCHAR
STARTCHAR uni1EF5
ENCODING 7925
SWIDTH 500 0
DWIDTH 10 0
BBX 8 17 1 -7
BITMAP
C3
C3
C3
66
66
66
24
3C
18
18
18
18
70
70
00
30
30
ENDCHAR
STARTCHAR uni1EF8
ENCODING 7928
SWIDTH 667 0
DWIDTH 13 0
BBX 12 18 0 0
BITMAP
0C80
1680
1300
0000
C030
C030
6060
6060
30C0
39C0
1980
0F00
0600
0600
0600
0600
0600
0600
ENDCHAR
STARTCHAR uni1EF9
ENCODING 7929
SWIDTH 500 0
DWIDTH 10 0
BBX 8 18 1 -4
BITMAP
32
5A
4C
00
C3
C3
C3
66
66
66
24
3C
18
18
18
18
70
70
ENDCHAR
STARTCHAR uni2000
ENCODING 8192
SWIDTH 500 0
DWIDTH 10 0
BBX 1 1 0 0
BITMAP
00
ENDCHAR
STARTCHAR uni2001
ENCODING 8193
SWIDTH 1000 0
DWIDTH 19 0
BBX 1 1 0 0
BITMAP
00
ENDCHAR
STARTCHAR uni2002
ENCODING 8194
SWIDTH 500 0
DWIDTH 10 0
BBX 1 1 0 0
BITMAP
00
ENDCHAR
STARTCHAR uni2003
ENCODING 8195
SWIDTH 1000 0
DWIDTH 19 0
BBX 1 1 0 0
BITMAP
00
ENDCHAR
STARTCHAR uni2004
ENCODING 8196
SWIDTH 333 0
DWIDTH 6 0
BBX 1 1 0 0
BITMAP
00
ENDCHAR
STARTCHAR uni2005
ENCODING 8197
SWIDTH 250 0
DWIDTH 5 0
BBX 1 1 0 0
BITMAP
00
ENDCHAR
STARTCHAR uni2006
ENCODING 8198
SWIDTH 167 0
DWIDTH 3 0
BBX 1 1 0 0
BITMAP
00
ENDCHAR
STARTCHAR uni2007
ENCODING 8199
SWIDTH 556 0
DWIDTH 10 0
BBX 1 1 0 0
BITMAP
00
ENDCHAR
STARTCHAR uni2008
ENCODING 8200
SWIDTH 278 0
DWIDTH 5 0
BBX 1 1 0 0
BITMAP
00
ENDCHAR
STARTCHAR uni2009
ENCODING 8201
SWIDTH 200 0
DWIDTH 4 0
BBX 1 1 0 0
BITMAP
00
ENDCHAR
STARTCHAR uni200A
ENCODING 8202
SWIDTH 100 0
DWIDTH 2 0
BBX 1 1 0 0
BITMAP
00
ENDCHAR
STARTCHAR uni200B
ENCODING 8203
SWIDTH 0 0
DWIDTH 0 0
BBX 1 1 0 0
BITMAP
00
ENDCHAR
STARTCHAR uni2010
ENCODING 8208
SWIDTH 333 0
DWIDTH 6 0
BBX 5 1 0 5
BITMAP
F8
ENDCHAR
STARTCHAR uni2011
ENCODING 8209
SWIDTH 333 0
DWIDTH 6 0
BBX 5 1 0 5
BITMAP
F8
ENDCHAR
STARTCHAR figuredash
ENCODING 8210
SWIDTH 556 0
DWIDTH 11 0
BBX 11 1 0 5
BITMAP
FFE0
ENDCHAR
STARTCHAR endash
ENCODING 8211
SWIDTH 556 0
DWIDTH 11 0
BBX 11 1 0 5
BITMAP
FFE0
ENDCHAR
STARTCHAR emdash
ENCODING 8212
SWIDTH 1000 0
DWIDTH 19 0
BBX 19 1 0 5
BITMAP
FFFFE0
ENDCHAR
STARTCHAR afii00208
ENCODING 8213
SWIDTH 1000 0
DWIDTH 19 0
BBX 19 1 0 5
BITMAP
FFFFE0
ENDCHAR
STARTCHAR quoteleft
ENCODING 8216
SWIDTH 222 0
DWIDTH 4 0
BBX 2 5 1 9
BITMAP
40
80
80
C0
C0
ENDCHAR
STARTCHAR quoteright
ENCODING 8217
SWIDTH 222 0
DWIDTH 4 0
BBX 2 5 1 9
BITMAP
C0
C0
40
40
80
ENDCHAR
STARTCHAR quotesinglbase
ENCODING 8218
SWIDTH 222 0
DWIDTH 4 0
BBX 2 5 1 -3
BITMAP
C0
C0
40
40
80
ENDCHAR
STARTCHAR quotereversed
ENCODING 8219
SWIDTH 222 0
DWIDTH 4 0
BBX 2 5 1 9
BITMAP
C0
C0
80
80
40
ENDCHAR
STARTCHAR quotedblleft
ENCODING 8220
SWIDTH 333 0
DWIDTH 7 0
BBX 5 5 1 9
BITMAP
48
90
90
D8
D8
ENDCHAR
STARTCHAR quotedblright
ENCODING 8221
SWIDTH 333 0
DWIDTH 7 0
BBX 5 5 1 9
BITMAP
D8
D8
48
48
90
ENDCHAR
STARTCHAR quotedblbase
ENCODING 8222
SWIDTH 333 0
DWIDTH 7 0
BBX 5 5 1 -3
BITMAP
D8
D8
48
48
90
ENDCHAR
STARTCHAR uni201F
ENCODING 8223
SWIDTH 333 0
DWIDTH 7 0
BBX 5 5 1 9
BITMAP
D8
D8
90
90
48
ENDCHAR
STARTCHAR dagger
ENCODING 8224
SWIDTH 556 0
DWIDTH 10 0
BBX 8 18 1 -4
BITMAP
18
18
18
18
FF
FF
18
18
18
18
18
18
18
18
18
18
18
18
ENDCHAR
STARTCHAR daggerdbl
ENCODING 8225
SWIDTH 556 0
DWIDTH 10 0
BBX 8 18 1 -4
BITMAP
18
18
18
18
FF
FF
18
18
18
18
18
18
FF
FF
18
18
18
18
ENDCHAR
STARTCHAR bullet
ENCODING 8226
SWIDTH 350 0
DWIDTH 6 0
BBX 4 5 1 4
BITMAP
60
F0
F0
F0
60
ENDCHAR
STARTCHAR ellipsis
ENCODING 8230
SWIDTH 1000 0
DWIDTH 19 0
BBX 14 2 2 0
BITMAP
C30C
C30C
ENDCHAR
STARTCHAR perthousand
ENCODING 8240
SWIDTH 1000 0
DWIDTH 20 0
BBX 19 13 1 0
BITMAP
306000
78C000
CCC000
CD8000
798000
330000
030000
066180
06F3C0
0D9E60
0D9E60
18F3C0
186180
ENDCHAR
STARTCHAR guilsinglleft
ENCODING 8249
SWIDTH 333 0
DWIDTH 6 0
BBX 4 8 1 1
BITMAP
10
30
60
C0
C0
60
30
10
ENDCHAR
STARTCHAR guilsinglright
ENCODING 8250
SWIDTH 333 0
DWIDTH 6 0
BBX 4 8 1 1
BITMAP
80
C0
60
30
30
60
C0
80
ENDCHAR
STARTCHAR fraction
ENCODING 8260
SWIDTH 167 0
DWIDTH 6 0
BBX 9 13 -2 0
BITMAP
0180
0180
0300
0600
0600
0C00
0800
1800
3000
3000
6000
C000
C000
ENDCHAR
STARTCHAR oneinferior
ENCODING 8321
SWIDTH 333 0
DWIDTH 6 0
BBX 4 8 0 -4
BITMAP
30
F0
F0
30
30
30
30
30
ENDCHAR
STARTCHAR twoinferior
ENCODING 8322
SWIDTH 333 0
DWIDTH 6 0
BBX 5 8 0 -4
BITMAP
70
F8
98
18
30
60
F8
F8
ENDCHAR
STARTCHAR threeinferior
ENCODING 8323
SWIDTH 333 0
DWIDTH 6 0
BBX 5 8 0 -4
BITMAP
70
F8
98
30
30
98
F8
70
ENDCHAR
STARTCHAR uni20A5
ENCODING 8357
SWIDTH 833 0
DWIDTH 16 0
BBX 14 14 1 -2
BITMAP
00C0
00C0
DEF8
FFFC
E38C
C38C
C38C
C30C
C30C
C30C
C70C
C70C
0600
0600
ENDCHAR
STARTCHAR uni20A6
ENCODING 8358
SWIDTH 722 0
DWIDTH 14 0
BBX 11 14 1 0
BITMAP
C060
E060
F060
F060
FFE0
FFE0
CC60
FFE0
FFE0
C360
C1E0
C1E0
C0E0
C060
ENDCHAR
STARTCHAR uni20A9
ENCODING 8361
SWIDTH 944 0
DWIDTH 18 0
BBX 16 14 1 0
BITMAP
C183
C183
C183
C3C3
67F6
67F6
6666
67F6
37FC
366C
342C
1C38
1818
1818
ENDCHAR
STARTCHAR Euro
ENCODING 8364
SWIDTH 722 0
DWIDTH 14 0
BBX 13 14 0 0
BITMAP
07C0
1FF0
3838
3018
FE00
FE00
6000
FE00
FE00
7000
3018
3838
1FF0
07C0
ENDCHAR
STARTCHAR uni20AD
ENCODING 8365
SWIDTH 667 0
DWIDTH 13 0
BBX 12 14 2 0
BITMAP
C0E0
C1C0
C380
C700
CE00
DC00
FFF0
FFF0
CE00
C700
C380
C1C0
C0E0
C070
ENDCHAR
STARTCHAR uni2103
ENCODING 8451
SWIDTH 1102 0
DWIDTH 21 0
BBX 19 14 1 0
BITMAP
001F00
707FC0
D8E0E0
88C060
D9C000
718000
018000
018000
018000
01C000
00C060
00E0E0
007FC0
001F00
ENDCHAR
STARTCHAR uni2109
ENCODING 8457
SWIDTH 991 0
DWIDTH 19 0
BBX 17 14 1 0
BITMAP
00FF80
70FF80
D8C000
88C000
D8C000
70C000
00FF00
00FF00
00C000
00C000
00C000
00C000
00C000
00C000
ENDCHAR
STARTCHAR trademark
ENCODING 8482
SWIDTH 1000 0
DWIDTH 16 0
BBX 14 7 1 6
BITMAP
F904
218C
218C
2154
2154
2124
2124
ENDCHAR
STARTCHAR uni212A
ENCODING 8490
SWIDTH 667 0
DWIDTH 13 0
BBX 12 14 2 0
BITMAP
C0E0
C1C0
C380
C700
CE00
DC00
F800
FC00
CE00
C700
C380
C1C0
C0E0
C070
ENDCHAR
STARTCHAR uni212B
ENCODING 8491
SWIDTH 667 0
DWIDTH 13 0
BBX 12 17 0 0
BITMAP
0600
0900
0900
0600
0600
0F00
0F00
1980
1980
30C0
30C0
3FC0
7FE0
6060
6060
C030
C030
ENDCHAR
STARTCHAR uni2132
ENCODING 8498
SWIDTH 611 0
DWIDTH 12 0
BBX 9 14 2 0
BITMAP
0180
0180
0180
0180
0180
0180
7F80
7F80
0180
0180
0180
0180
FF80
FF80
ENDCHAR
STARTCHAR universal
ENCODING 8704
SWIDTH 667 0
DWIDTH 13 0
BBX 12 14 0 0
BITMAP
C030
C030
6060
6060
7FE0
3FC0
30C0
30C0
1980
1980
0F00
0F00
0600
0600
ENDCHAR
STARTCHAR existential
ENCODING 8707
SWIDTH 667 0
DWIDTH 13 0
BBX 10 14 2 0
BITMAP
FFC0
FFC0
00C0
00C0
00C0
00C0
7FC0
7FC0
00C0
00C0
00C0
00C0
FFC0
FFC0
ENDCHAR
STARTCHAR uni2204
ENCODING 8708
SWIDTH 667 0
DWIDTH 13 0
BBX 10 14 2 0
BITMAP
FFC0
FFC0
03C0
03C0
06C0
06C0
7FC0
7FC0
0CC0
0CC0
18C0
18C0
FFC0
FFC0
ENDCHAR
STARTCHAR minus
ENCODING 8722
SWIDTH 584 0
DWIDTH 11 0
BBX 9 2 1 4
BITMAP
FF80
FF80
ENDCHAR
STARTCHAR fraction
ENCODING 8725
SWIDTH 167 0
DWIDTH 6 0
BBX 9 13 -2 0
BITMAP
0180
0180
0300
0600
0600
0C00
0800
1800
3000
3000
6000
C000
C000
ENDCHAR
STARTCHAR periodcentered
ENCODING 8729
SWIDTH 278 0
DWIDTH 4 0
BBX 2 2 1 4
BITMAP
C0
C0
ENDCHAR
STARTCHAR uni2236
ENCODING 8758
SWIDTH 278 0
DWIDTH 5 0
BBX 2 10 1 0
BITMAP
C0
C0
00
00
00
00
00
00
C0
C0
ENDCHAR
STARTCHAR uni2259
ENCODING 8793
SWIDTH 584 0
DWIDTH 11 0
BBX 7 9 2 2
BITMAP
18
3C
66
00
FE
FE
00
FE
FE
ENDCHAR
STARTCHAR uni225A
ENCODING 8794
SWIDTH 584 0
DWIDTH 11 0
BBX 7 9 2 2
BITMAP
66
3C
18
00
FE
FE
00
FE
FE
ENDCHAR
STARTCHAR notequal
ENCODING 8800
SWIDTH 584 0
DWIDTH 11 0
BBX 7 14 2 -2
BITMAP
0C
0C
0C
0C
18
FE
FE
30
FE
FE
60
60
60
60
ENDCHAR
STARTCHAR equivalence
ENCODING 8801
SWIDTH 584 0
DWIDTH 11 0
BBX 7 8 0 1
BITMAP
FE
FE
00
FE
FE
00
FE
FE
ENDCHAR
STARTCHAR uni2262
ENCODING 8802
SWIDTH 584 0
DWIDTH 11 0
BBX 7 14 0 -2
BITMAP
0C
0C
0C
FE
FE
18
FE
FE
30
FE
FE
60
60
60
ENDCHAR
STARTCHAR lessequal
ENCODING 8804
SWIDTH 584 0
DWIDTH 10 0
BBX 8 12 1 -3
BITMAP
03
0F
3C
70
C0
70
3C
0F
03
00
FF
FF
ENDCHAR
STARTCHAR greaterequal
ENCODING 8805
SWIDTH 584 0
DWIDTH 10 0
BBX 8 12 1 -3
BITMAP
C0
F0
3C
0E
03
0E
3C
F0
C0
00
FF
FF
ENDCHAR
STARTCHAR uni226E
ENCODING 8814
SWIDTH 584 0
DWIDTH 10 0
BBX 8 14 1 -2
BITMAP
06
06
06
07
0F
3C
7C
D8
78
3C
3F
33
30
30
ENDCHAR
STARTCHAR uni226F
ENCODING 8815
SWIDTH 584 0
DWIDTH 10 0
BBX 8 14 1 -2
BITMAP
06
06
06
C6
FC
3C
0E
1B
1E
3C
F0
F0
30
30
ENDCHAR
STARTCHAR uni2270
ENCODING 8816
SWIDTH 584 0
DWIDTH 10 0
BBX 8 14 1 -4
BITMAP
06
07
0F
3E
7C
CC
7C
3C
1F
1B
30
FF
FF
30
ENDCHAR
STARTCHAR uni2271
ENCODING 8817
SWIDTH 584 0
DWIDTH 10 0
BBX 8 14 1 -4
BITMAP
06
C6
F6
3E
0E
0F
0E
3C
F8
D8
30
FF
FF
30
ENDCHAR
STARTCHAR fi
ENCODING -1
SWIDTH 500 0
DWIDTH 10 0
BBX 9 14 0 0
BITMAP
1D80
3D80
3000
3000
FD80
3180
3180
3180
3180
3180
3180
3180
3180
3180
ENDCHAR
STARTCHAR fl
ENCODING -1
SWIDTH 500 0
DWIDTH 10 0
BBX 9 14 0 0
BITMAP
1D80
3D80
3180
3180
FD80
3180
3180
3180
3180
3180
3180
3180
3180
3180
ENDCHAR
ENDFONT
